<?xml version="1.0" encoding="UTF-8" standalone="no"?>
<svg xmlns="http://www.w3.org/2000/svg" width="1800" height="547" viewBox="0 0 1800 547">
  <rect width="1800" height="547" fill="white" />
  <polyline points="5,137.00 6,137.00 7,141.20 8,140.25 9,142.00 10,143.50 11,143.50 12,140.00 13,139.80 14,140.25 15,143.50 16,144.00 17,141.00 18,140.00 19,139.00 20,140.00 21,140.00 22,140.00 23,140.00 24,140.00 25,141.00 26,141.00 27,140.00 28,140.00 29,141.50 30,141.00 31,140.00 32,140.50 33,139.50 34,140.00 35,141.00 36,141.00 37,140.50 38,139.00 39,141.00 40,140.00 41,140.00 42,139.00 43,140.00 44,140.00 45,140.00 46,141.00 47,141.50 48,139.00 49,141.00 50,140.00 51,140.50 52,141.00 53,141.00 54,141.50 55,139.50 56,140.00 57,140.00 58,140.00 59,140.00 60,139.50 61,140.00 62,140.00 63,141.00 64,141.50 65,140.00 66,141.00 67,141.00 68,139.00 69,140.00 70,140.50 71,140.00 72,140.00 73,140.50 74,140.50 75,141.00 76,140.00 77,139.00 78,140.00 79,141.50 80,140.00 81,140.00 82,141.00 83,141.00 84,141.50 85,140.00 86,140.00 87,140.00 88,140.00 89,140.00 90,141.00 91,140.00 92,140.50 93,140.00 94,141.00 95,140.00 96,140.00 97,140.00 98,139.00 99,140.00 100,140.00 101,139.00 102,140.00 103,140.50 104,141.00 105,140.00 106,311.15 107,288.71 108,265.87 109,276.31 110,280.60 111,296.09 112,296.09 113,277.44 114,280.60 115,296.09 116,280.50 117,277.44 118,261.50 119,280.45 120,277.62 121,296.86 122,296.00 123,324.77 124,302.48 125,317.00 126,309.00 127,309.00 128,324.77 129,323.95 130,309.00 131,302.48 132,323.95 133,323.95 134,309.00 135,324.77 136,302.48 137,309.00 138,296.00 139,323.95 140,309.00 141,309.00 142,309.00 143,309.00 144,324.77 145,324.77 146,309.00 147,309.00 148,323.95 149,324.77 150,302.48 151,324.77 152,302.00 153,324.77 154,309.00 155,309.00 156,324.77 157,324.77 158,302.48 159,324.77 160,309.00 161,309.00 162,324.77 163,302.48 164,291.00 165,223.20 166,188.00 167,188.00 168,296.55 169,236.62 170,223.13 171,236.62 172,236.62 173,265.27 174,197.55 175,188.00 176,287.18 177,235.23 178,253.36 179,223.13 180,223.13 181,195.91 182,185.00 183,218.50 184,206.64 185,288.38 186,188.00 187,188.00 188,288.38 189,218.58 190,223.13 191,223.40 192,223.13 193,206.71 194,304.47 195,193.25 196,209.33 197,235.31 198,296.00 199,140.00 200,141.50 201,140.00 202,140.00 203,140.00 204,140.00 205,141.00 206,140.00 207,141.00 208,141.00 209,140.00 210,140.00 211,139.50 212,141.00 213,141.00 214,140.00 215,140.00 216,140.00 217,140.00 218,139.00 219,140.00 220,140.00 221,140.00 222,140.00 223,140.00 224,140.00 225,139.50 226,140.50 227,139.00 228,140.00 229,140.00 230,139.00 231,140.00 232,141.00 233,140.00 234,141.00 235,141.50 236,141.00 237,140.00 238,140.50 239,141.00 240,140.00 241,141.00 242,140.00 243,140.00 244,140.00 245,140.00 246,139.00 247,141.50 248,140.00 249,141.00 250,140.50 251,141.00 252,141.00 253,141.00 254,141.00 255,140.00 256,140.50 257,141.00 258,141.50 259,141.00 260,140.00 261,141.00 262,141.00 263,140.00 264,141.00 265,141.50 266,141.00 267,141.00 268,138.50 269,139.50 270,140.00 271,140.00 272,140.00 273,140.00 274,140.00 275,141.00 276,140.00 277,141.00 278,141.00 279,140.00 280,140.00 281,141.00 282,141.00 283,141.50 284,141.00 285,139.00 286,140.50 287,140.00 288,140.00 289,141.00 290,141.00 291,140.00 292,140.40 293,140.78 294,141.12 295,140.20 296,143.44 297,143.50 298,144.00 299,144.50 300,143.00 301,142.50 302,142.29 303,141.43 304,140.33 305,142.00 306,140.40 307,141.00 308,141.00 309,141.00 310,141.00 311,140.50 312,140.50 313,141.00 314,140.00 315,140.00 316,141.00 317,127.00 318,111.00 319,112.00 320,112.00 321,112.00 322,113.00 323,112.50 324,112.50 325,112.00 326,112.50 327,112.00 328,112.00 329,112.00 330,112.00 331,112.50 332,111.00 333,112.00 334,112.00 335,112.00 336,112.00 337,112.00 338,112.00 339,112.50 340,112.00 341,112.50 342,112.50 343,112.00 344,112.50 345,112.00 346,112.50 347,112.00 348,112.00 349,112.00 350,112.00 351,112.00 352,112.00 353,110.00 354,112.00 355,112.00 356,112.00 357,112.00 358,112.00 359,112.00 360,112.00 361,111.00 362,112.00 363,111.00 364,112.00 365,111.00 366,111.50 367,112.00 368,112.00 369,112.00 370,110.00 371,112.00 372,112.00 373,111.00 374,112.50 375,111.50 376,112.00 377,112.00 378,111.00 379,111.00 380,112.00 381,112.00 382,112.50 383,112.00 384,111.00 385,111.00 386,112.00 387,112.00 388,111.00 389,110.00 390,112.00 391,111.00 392,110.50 393,112.50 394,111.50 395,110.00 396,112.00 397,111.00 398,111.00 399,112.00 400,126.50 401,141.00 402,139.00 403,141.00 404,141.00 405,140.00 406,141.00 407,140.00 408,139.00 409,140.50 410,140.00 411,141.00 412,141.00 413,140.00 414,140.00 415,139.50 416,141.00 417,141.00 418,140.00 419,140.50 420,140.00 421,139.50 422,139.00 423,137.50 424,138.00 426,136.50 427,138.50 428,139.00 429,138.50 430,140.00 431,139.00 432,140.00 433,139.50 434,140.00 435,140.00 436,140.00 437,140.00 438,140.00 439,141.00 440,140.00 441,140.00 442,140.00 443,141.00 444,140.00 445,140.00 446,140.50 447,140.00 448,141.50 449,140.00 450,141.00 451,139.50 452,141.00 453,140.00 454,141.00 455,139.50 456,141.00 457,140.00 458,141.00 459,140.00 460,140.00 461,141.00 462,140.50 463,140.00 464,140.00 465,140.00 466,141.00 467,140.00 468,140.00 469,141.00 470,140.00 471,140.00 472,139.00 473,140.00 474,141.00 475,140.00 476,140.00 477,140.00 478,141.00 479,141.00 480,140.00 481,141.00 482,140.50 483,140.00 484,141.00 485,140.00 486,141.00 487,138.50 488,141.00 489,140.00 490,141.00 491,141.00 492,139.50 493,141.00 494,140.00 495,139.50 496,139.50 497,139.50 498,140.00 499,141.00 500,140.00 501,140.00 502,140.00 503,140.00 504,139.50 505,141.00 506,141.00 507,141.00 508,140.00 509,139.00 510,140.50 511,139.00 512,141.00 513,140.00 514,141.00 515,141.00 516,140.00 517,140.00 518,140.00 519,141.00 520,140.50 521,140.00 522,139.50 523,141.00 524,139.00 525,140.00 526,141.50 527,140.00 528,140.00 529,140.00 530,139.00 531,140.00 532,140.00 533,138.50 534,141.00 535,140.00 536,141.00 537,141.00 538,139.00 539,140.00 540,140.50 541,140.00 542,141.00 543,140.00 544,140.00 545,141.00 546,140.00 547,139.00 548,140.00 549,141.00 550,140.00 551,140.00 552,140.00 553,140.00 554,141.00 555,141.00 556,139.50 557,140.00 558,140.00 559,140.00 560,140.00 561,140.00 562,141.50 563,140.00 564,140.00 565,140.00 566,141.00 567,141.00 568,140.60 569,138.50 570,139.00 571,141.00 572,139.00 573,141.00 574,139.00 575,140.00 576,141.00 577,141.00 578,141.00 579,140.00 580,140.00 581,140.50 582,141.00 583,140.00 584,140.00 585,140.00 586,140.00 587,140.00 588,140.00 589,141.00 590,141.00 591,139.50 592,140.00 593,140.00 594,140.00 595,140.00 596,140.00 597,141.00 598,140.00 599,139.00 600,140.00 601,139.50 602,141.00 603,140.00 604,140.00 605,141.00 606,140.50 607,141.00 608,140.00 609,140.00 610,139.50 611,140.00 612,141.00 613,141.50 614,139.50 615,140.00 616,140.00 617,141.00 618,140.50 619,141.00 620,139.00 621,141.00 622,140.00 623,141.00 624,141.00 625,140.00 626,140.50 627,140.00 628,141.00 629,140.00 630,140.00 631,141.00 632,140.00 633,141.00 634,140.00 635,140.00 636,140.00 637,141.50 638,140.00 639,139.00 640,140.50 641,141.50 642,141.00 643,139.50 644,141.50 645,141.50 646,141.00 647,140.00 648,141.00 649,141.00 650,141.00 651,141.00 652,141.00 653,141.00 654,141.00 655,138.50 656,141.00 657,140.00 658,139.00 659,140.00 660,141.00 661,139.00 662,140.00 663,140.00 664,140.00 665,140.00 666,141.00 667,140.00 668,140.00 669,140.00 670,140.00 671,140.00 672,141.00 673,141.00 674,139.50 675,139.00 676,140.00 677,140.00 678,140.00 679,140.50 680,141.00 681,140.00 682,140.00 683,140.00 684,140.00 685,140.00 686,141.00 687,141.00 688,141.50 689,139.00 690,139.50 691,140.00 692,141.50 693,140.50 694,140.00 695,139.00 696,140.00 697,140.00 698,140.00 699,140.00 700,141.00 701,140.00 702,138.50 703,140.00 704,140.50 705,141.00 706,140.00 707,140.00 708,141.00 709,141.00 710,139.50 711,141.00 712,139.00 713,140.00 714,141.00 715,140.50 716,141.00 717,140.00 718,140.50 719,140.00 720,139.50 721,140.00 722,141.00 723,140.00 724,140.00 725,140.00 726,140.00 727,139.00 728,141.00 729,140.00 730,140.00 731,140.00 732,141.00 733,141.00 734,140.00 735,140.00 736,139.50 737,141.00 738,140.00 739,141.00 740,139.00 741,141.00 742,140.00 743,140.00 744,140.00 745,141.00 746,141.00 747,140.50 748,140.00 749,139.50 750,140.00 751,141.00 752,139.00 753,140.00 754,140.00 755,139.50 756,141.00 757,141.50 758,141.50 759,141.00 760,140.00 761,141.00 762,140.00 763,141.00 764,141.00 765,140.00 766,141.00 767,140.00 768,140.00 769,141.50 770,140.00 771,141.00 772,139.00 773,141.00 774,139.00 775,141.00 776,140.00 777,141.00 778,139.00 779,140.00 780,140.00 781,141.00 782,141.00 783,140.00 784,140.50 785,141.50 786,140.00 787,140.00 788,140.00 789,141.00" fill="none" stroke="rgb(255,0,128)" stroke-width="2" stroke-linecap="round" stroke-linejoin="round" />
  <polyline points="1002,314.00 1003,314.00 1004,318.20 1005,317.25 1006,319.00 1007,320.50 1008,320.50 1009,317.00 1010,316.80 1011,317.25 1012,320.50 1013,321.00 1014,316.60 1015,311.03 1016,310.48 1017,307.48 1018,284.57 1019,310.05 1020,303.09 1021,302.78 1022,305.50 1023,290.00 1024,308.50 1025,302.50 1026,305.50 1027,308.50 1028,293.00 1029,305.50 1030,299.50 1031,302.50 1032,308.50 1033,290.00 1034,308.50 1035,305.50 1036,305.50 1037,305.50 1038,293.00 1039,308.50 1040,305.50 1041,305.50 1042,302.50 1043,287.00 1044,308.50 1045,308.50 1046,302.50 1047,302.50 1048,293.00 1049,305.50 1050,305.50 1051,302.50 1052,305.50 1053,290.00 1054,308.50 1055,305.50 1056,302.50 1057,308.50 1058,284.00 1059,305.50 1060,302.50 1061,308.50 1062,305.50 1063,287.00 1064,311.50 1065,302.50 1066,302.50 1067,305.50 1068,287.00 1069,308.50 1070,302.50 1071,302.50 1072,305.50 1073,287.00 1074,323.50 1075,302.50 1076,305.50 1077,302.50 1078,296.50 1079,317.50 1080,305.50 1081,302.50 1082,305.50 1083,299.50 1084,317.50 1085,305.50 1086,302.50 1087,302.50 1088,299.50 1089,320.50 1090,302.50 1091,305.50 1092,302.50 1093,299.50 1094,320.50 1095,299.50 1096,305.50 1097,305.50 1098,299.50 1099,320.50 1100,302.50 1101,305.50 1102,420.10 1103,418.00 1104,451.59 1105,421.62 1106,420.11 1107,398.18 1108,403.56 1109,447.98 1110,414.68 1111,415.85 1112,423.67 1113,418.37 1114,435.64 1115,414.13 1116,421.64 1117,417.99 1118,421.10 1119,458.98 1120,420.62 1121,421.02 1122,426.65 1123,421.02 1124,453.05 1125,424.50 1126,426.65 1127,418.00 1128,421.02 1129,458.40 1130,424.12 1131,426.29 1132,426.29 1133,421.02 1134,458.42 1135,425.97 1136,423.27 1137,417.43 1138,423.27 1139,451.59 1140,420.26 1141,425.20 1142,416.46 1143,423.37 1144,449.03 1145,415.51 1146,418.86 1147,417.10 1148,419.08 1149,451.90 1150,423.15 1151,421.83 1152,421.53 1153,425.26 1154,456.50 1155,419.11 1156,418.18 1157,419.25 1158,416.26 1159,448.19 1160,422.27 1161,417.71 1162,412.33 1163,396.73 1164,444.62 1165,412.50 1166,409.18 1167,392.42 1168,409.82 1169,444.36 1170,416.85 1171,414.94 1172,408.39 1173,403.27 1174,441.89 1175,426.75 1176,407.12 1177,399.15 1178,406.34 1179,439.95 1180,433.53 1181,411.89 1182,402.04 1183,394.39 1184,408.68 1185,436.91 1186,421.29 1187,411.37 1188,415.19 1189,416.66 1190,418.24 1191,397.98 1192,406.49 1193,403.63 1194,415.66 1195,428.48 1196,413.32 1197,302.50 1198,302.50 1199,305.50 1200,287.00 1201,302.50 1202,305.50 1203,302.50 1204,305.50 1205,287.00 1206,305.50 1207,302.50 1208,305.50 1209,307.50 1210,287.00 1211,305.50 1212,305.50 1213,302.50 1214,305.50 1215,287.00 1216,308.50 1217,302.50 1218,302.50 1219,311.50 1220,287.00 1221,308.50 1222,305.50 1223,302.50 1224,311.50 1225,290.00 1226,305.50 1227,305.50 1228,302.50 1229,308.50 1230,287.00 1231,308.50 1232,302.50 1233,302.50 1234,305.50 1235,287.00 1236,308.50 1237,299.50 1238,299.50 1239,305.50 1240,287.00 1241,302.50 1242,305.50 1243,305.50 1244,302.50 1245,287.00 1246,307.50 1247,305.50 1248,302.50 1249,308.50 1250,287.00 1251,308.50 1252,302.50 1253,305.50 1254,308.50 1255,287.00 1256,305.50 1257,305.50 1258,302.50 1259,305.50 1260,290.00 1261,308.50 1262,305.50 1263,302.50 1264,305.50 1265,287.00 1266,308.50 1267,308.50 1268,302.50 1269,305.50 1270,290.00 1271,311.50 1272,302.50 1273,305.50 1274,310.00 1275,287.00 1276,308.50 1277,302.50 1278,302.50 1279,323.50 1280,296.50 1281,302.50 1282,305.50 1283,299.50 1284,323.50 1285,302.50 1286,305.50 1287,305.50 1288,302.50 1289,320.50 1290,302.50 1291,302.50 1292,302.50 1293,290.00 1294,305.50 1295,305.50 1296,305.50 1297,308.50 1298,290.00 1299,305.50 1300,305.50 1301,305.50 1302,317.50 1303,299.50 1304,302.50 1305,302.50 1306,284.00 1307,305.50 1308,302.50 1309,296.50 1310,317.50 1311,296.50 1312,302.50 1313,308.50 1314,290.00 1315,305.50 1316,302.50 1317,302.50 1318,317.50 1319,305.50 1320,302.50 1321,302.50 1322,290.00 1323,302.50 1324,305.50 1325,284.00 1326,305.50 1327,305.50 1328,284.00 1329,311.50 1330,302.50 1331,299.50 1332,320.50 1333,302.50 1334,302.50 1335,320.50 1336,305.50 1337,302.50 1338,317.50 1339,305.50 1340,305.50 1341,323.50 1342,305.50 1343,299.50 1344,317.50 1345,302.50 1346,296.50 1347,317.50 1348,302.50 1349,287.00 1350,308.50 1351,305.50 1352,287.00 1353,305.50 1354,302.50 1355,287.00 1356,302.50 1357,317.50 1358,302.50 1359,305.50 1360,320.50 1361,305.50 1362,287.00 1363,308.50 1364,305.50 1365,290.00 1366,305.50 1367,320.50 1368,302.50 1369,308.50 1370,317.50 1371,305.50 1372,287.00 1373,302.50 1374,320.50 1375,299.50 1376,302.50 1377,323.50 1378,302.50 1379,287.00 1380,305.50 1381,323.50 1382,299.50 1383,302.50 1384,320.50 1385,308.50 1386,293.00 1387,305.50 1388,320.50 1389,302.50 1390,287.00 1391,302.50 1392,323.50 1393,305.50 1394,290.00 1395,302.50 1396,323.50 1397,305.50 1398,302.50 1399,323.50 1400,305.50 1401,293.00 1402,305.50 1403,323.50 1404,302.50 1405,290.00 1406,305.50 1407,320.50 1408,308.50 1409,290.00 1410,302.50 1411,320.50 1412,308.50 1413,287.00 1414,305.50 1415,323.50 1416,305.50 1417,287.00 1418,299.50 1419,317.50 1420,305.50 1421,287.00 1422,299.50 1423,317.50 1424,302.50 1425,287.00 1426,287.00 1427,308.50 1428,317.50 1429,302.50 1430,287.00 1431,299.50 1432,317.50 1433,302.50 1434,290.00 1435,305.50 1436,323.50 1437,302.50 1438,290.00 1439,305.50 1440,320.50 1441,302.50 1442,287.00 1443,308.50 1444,320.50 1445,308.50 1446,287.00 1447,290.00 1448,305.50 1449,320.50 1450,302.50 1451,290.00 1452,305.50 1453,320.50 1454,308.50 1455,287.00 1456,302.50 1457,320.50 1458,305.50 1459,290.00 1460,290.00 1461,308.50 1462,320.50 1463,302.50 1464,287.00 1465,305.50 1466,323.50 1467,302.50 1468,284.00 1469,302.50 1470,326.50 1471,318.00 1472,287.00 1473,290.00 1474,305.50 1475,323.50 1476,302.50 1477,287.00 1478,302.50 1479,323.50 1480,308.50 1481,287.00 1482,290.00 1483,308.50 1484,320.50 1485,305.50 1486,290.00 1487,299.50 1488,320.50 1489,302.50 1490,287.00 1491,287.00 1492,310.50 1493,317.50 1494,305.50 1495,290.00 1496,302.50 1497,317.50 1498,302.50 1499,290.00 1500,296.50 1501,320.50 1502,320.50 1503,305.50 1504,284.00 1505,305.50 1506,320.50 1507,305.50 1508,287.00 1509,287.00 1510,308.50 1511,323.50 1512,302.50 1513,293.00 1514,302.50 1515,317.50 1516,308.50 1517,284.00 1518,287.00 1519,305.50 1520,320.50 1521,302.50 1522,290.00 1523,308.50 1524,320.50 1525,305.50 1526,287.00 1527,287.00 1528,308.50 1529,320.50 1530,302.50 1531,287.00 1532,302.50 1533,326.50 1534,305.50 1535,290.00 1536,290.00 1537,308.50 1538,326.50 1539,305.50 1540,290.00 1541,302.50 1542,323.50 1543,314.50 1544,287.00 1545,287.00 1546,308.50 1547,320.50 1548,305.50 1549,287.00 1550,305.50 1551,320.50 1552,320.50 1553,302.50 1554,287.00 1555,305.50 1556,320.50 1557,305.50 1558,287.00 1559,302.50 1560,320.50 1561,323.50 1562,299.50 1563,287.00 1564,308.50 1565,323.50 1566,302.50 1567,287.00 1568,301.00 1569,323.50 1570,323.50 1571,302.50 1572,284.00 1573,302.50 1574,323.50 1575,305.50 1576,287.00 1577,299.50 1578,323.50 1579,317.50 1580,302.50 1581,290.00 1582,305.50 1583,320.50 1584,305.50 1585,287.00 1586,290.00 1587,308.50 1588,320.50 1589,299.50 1590,290.00 1591,305.50 1592,320.50 1593,305.50 1594,290.00 1595,287.00 1596,305.50 1597,323.50 1598,302.50 1599,287.00 1600,299.50 1601,320.50 1602,311.50 1603,287.00 1604,284.00 1605,302.50 1606,323.50 1607,302.50 1608,284.00 1609,302.50 1610,320.50 1611,317.50 1612,302.50 1613,284.00 1614,305.50 1615,317.50 1616,302.50 1617,287.00 1618,299.50 1619,323.50 1620,320.50 1621,302.50 1622,290.00 1623,302.50 1624,323.50 1625,305.50 1626,287.00 1627,296.50 1628,323.50 1629,320.50 1630,302.50 1631,287.00 1632,305.50 1633,320.50 1634,305.50 1635,290.00 1636,293.00 1637,308.50 1638,323.50 1639,302.50 1640,284.00 1641,305.50 1642,323.50 1643,305.50 1644,287.00 1645,287.00 1646,305.50 1647,323.50 1648,302.50 1649,287.00 1650,305.50 1651,320.50 1652,323.50 1653,293.00 1654,287.00 1655,308.50 1656,320.50 1657,305.50 1658,287.00 1659,305.50 1660,320.50 1661,320.50 1662,302.50 1663,287.00 1664,305.50 1665,323.50 1666,305.50 1667,293.00 1668,299.50 1669,323.50 1670,320.50 1671,302.50 1672,280.50 1673,308.50 1674,323.50 1675,302.50 1676,293.00 1677,287.00 1678,305.50 1679,320.50 1680,302.50 1681,287.00 1682,302.50 1683,320.50 1684,305.50 1685,290.00 1686,287.00 1687,305.50 1688,317.50 1689,305.50 1690,290.00 1691,299.50 1692,323.50 1693,308.50 1694,287.00 1695,287.00 1696,305.50 1697,320.50 1698,305.50 1699,287.00 1700,299.50 1701,323.50 1702,320.50 1703,299.50 1704,287.00 1705,302.50 1706,320.50 1707,302.50 1708,287.00 1709,302.50 1710,323.50 1711,323.50 1712,302.50 1713,287.00 1714,305.50 1715,317.50 1716,308.50 1717,290.00 1718,305.50 1719,320.50 1720,320.50 1721,302.50 1722,284.00 1723,305.50 1724,320.50 1725,302.50 1726,284.00 1727,287.00 1728,308.50 1729,317.50 1730,299.50 1731,287.00 1732,302.50 1733,320.50 1734,302.50 1735,290.00 1736,290.00 1737,305.50 1738,320.50 1739,305.50 1740,293.00 1741,302.50 1742,320.50 1743,302.50 1744,287.00 1745,290.00 1746,305.50 1747,320.50 1748,305.50 1749,284.00 1750,302.50 1751,323.50 1752,323.50 1753,302.50 1754,287.00 1755,305.50 1756,320.50 1757,302.50 1758,287.00 1759,299.50 1760,317.50 1761,323.50 1762,302.50 1763,290.00 1764,302.50 1765,317.50 1766,302.50 1767,293.00 1768,305.50 1769,320.50 1770,317.50 1771,302.50 1772,287.00 1773,305.50 1774,317.50 1775,305.50 1776,287.00 1777,290.00 1778,308.50 1779,320.50 1780,305.50 1781,287.00 1782,308.50 1783,320.50 1784,305.50 1785,287.00 1786,293.00" fill="none" stroke="rgb(255,0,128)" stroke-width="2" stroke-linecap="round" stroke-linejoin="round" />
  <polyline points="5,494.50 6,499.75 7,499.45 8,498.04 9,491.22 10,492.38 11,497.95 12,497.62 13,498.52 14,499.45 15,499.52 16,498.10 17,497.43 18,498.46 19,498.14 20,499.60 21,500.85 22,500.85 23,500.85 24,500.85 25,500.85 26,500.85 27,500.85 28,500.85 29,500.85 30,500.85 31,500.85 32,500.85 33,500.85 34,500.85 35,501.28 36,502.62 37,502.40 38,501.57 39,502.04 40,502.52 41,501.28 42,501.76 43,502.86 44,502.59 45,500.36 46,504.43 47,505.81 48,504.43 49,502.45 50,503.62 51,503.66 52,502.59 53,504.28 54,506.00 55,505.20 56,503.50 57,505.81 58,503.33 59,499.60 60,496.66 61,501.65 62,498.15 63,498.63 64,505.64 65,504.59 66,499.33 67,498.20 68,499.89 69,493.64 70,496.58 71,501.76 72,499.67 73,497.94 74,497.84 75,502.18 76,497.50 77,494.87 78,498.02 79,501.54 80,502.38 81,498.95 82,499.80 83,497.24 84,501.26 85,499.16 86,497.78 87,498.89 88,504.60 89,503.75 90,501.27 91,501.58 92,504.08 93,500.97 94,497.17 95,500.62 96,499.36 97,500.12 98,501.21 99,495.18" fill="none" stroke="rgb(112,104,160)" stroke-width="2" stroke-linecap="round" stroke-linejoin="round" />
  <polyline points="105,494.50 106,499.75 107,499.45 108,498.04 109,491.22 110,492.38 111,497.95 112,497.62 113,498.52 114,499.45 115,499.52 116,498.10 117,497.43 118,498.46 119,498.14 120,499.60 121,500.85 122,500.85 123,500.85 124,500.85 125,500.85 126,500.85 127,500.85 128,500.85 129,500.85 130,500.85 131,500.85 132,500.85 133,500.85 134,500.85 135,501.78 136,502.32 137,502.28 138,501.77 139,502.36 140,502.40 141,501.29 142,501.56 143,502.59 144,502.86 145,501.32 146,504.13 147,506.15 148,504.79 149,502.45 150,503.62 151,503.66 152,502.59 153,504.28 154,506.00 155,505.20 156,503.50 157,505.81 158,503.63 159,499.48 160,497.22 161,501.62 162,497.94 163,498.83 164,505.53 165,504.39 166,498.93 167,497.24 168,499.90 169,494.48 170,496.49 171,501.60 172,499.67 173,497.94 174,497.43 175,501.86 176,496.25 177,495.39 178,497.98 179,500.85 180,502.37 181,498.08 182,497.69 183,496.44 184,503.07 185,498.54 186,494.96 187,497.16 188,504.60 189,503.75 190,501.27 191,501.58 192,504.08 193,500.97 194,497.17 195,500.62 196,499.36 197,500.12 198,501.21 199,495.18" fill="none" stroke="rgb(112,104,160)" stroke-width="2" stroke-linecap="round" stroke-linejoin="round" />
  <polyline points="305,494.50 306,499.75 307,499.45 308,498.04 309,491.22 310,492.38 311,497.95 312,497.62 313,498.52 314,499.45 315,499.52 316,498.10 317,497.43 318,498.46 319,498.14 320,499.60 321,500.85 322,500.85 323,500.85 324,500.85 325,500.85 326,500.85 327,500.85 328,500.85 329,500.85 330,500.85 331,501.07 332,501.07 333,501.07 334,501.07 335,501.78 336,502.32 337,502.28 338,501.77 339,502.36 340,502.40 341,501.29 342,501.35 343,502.89 344,502.31 345,501.55 346,502.55 347,503.06 348,503.00 349,504.76 350,505.01 351,505.01 352,501.76 353,504.28 354,506.00 355,505.20 356,503.50 357,505.81 358,505.99 359,503.75 360,502.59 361,503.27 362,501.68 363,503.68 364,504.95 365,503.11 366,497.82 367,500.01 368,495.93 369,494.57 370,501.22 371,502.03 372,500.12 373,501.03 374,503.20 375,502.33 376,499.54 377,495.74 378,496.51 379,496.78 380,502.38 381,499.98 382,497.09 383,496.56 384,502.10 385,498.67 386,494.34 387,499.16 388,505.01 389,507.61 390,505.00 391,503.42 392,502.51 393,500.12 394,498.24 395,500.62 396,498.86 397,500.37 398,502.33 399,496.58" fill="none" stroke="rgb(112,104,160)" stroke-width="2" stroke-linecap="round" stroke-linejoin="round" />
  <polyline points="412,473.00 416,476.00 417,476.00 418,474.50 420,473.00 421,472.00 422,471.00 423,467.00" fill="none" stroke="rgb(112,104,160)" stroke-width="2" stroke-linecap="round" stroke-linejoin="round" />
  <polyline points="584,466.50 585,471.33 586,471.90 587,470.25 588,470.80 589,471.71 590,470.88 591,469.92 592,471.90 593,472.58 594,472.17 595,472.17 596,471.68 597,470.12 598,469.65 599,472.00 600,470.56 601,469.14 602,470.96 603,471.68 604,470.12 605,469.65 606,472.00 607,470.56 608,469.14 609,470.96 610,472.58 611,472.58 612,472.58 613,469.14 614,469.14 615,469.14 616,470.68 617,470.58 618,470.96 619,470.12 620,469.14 621,469.14 622,469.14 623,472.20 624,470.92 625,470.25 626,471.37 627,471.68 628,471.04 629,470.00 630,471.46 631,472.58 632,472.86 633,474.33 634,474.16 635,473.21 636,473.58 637,474.00 638,472.86 639,473.18 640,474.21 641,474.52 642,472.97 643,473.92 644,474.86 645,473.65 646,472.58 647,472.63 648,472.63 649,473.18 650,474.00 651,474.14 652,469.35 653,469.94 654,470.62 655,473.65 656,471.68 657,470.12 658,470.38 659,473.27 660,471.56 661,469.33 662,472.05 663,473.92 664,473.92 665,472.83 666,469.67 667,469.67 668,469.18 669,471.09 670,471.40 671,471.52 672,470.43 673,469.50 674,469.26 675,469.00 676,473.48 677,472.55 678,471.32 679,472.48 680,472.29 681,471.29 682,470.40 683,473.58 684,473.42 685,471.06 686,472.59 687,472.83 688,470.78 689,472.18 690,472.13 691,470.43 692,470.92 693,466.54 698,504.00 699,466.50 700,473.09 701,469.10 702,469.71 703,470.33 704,472.50 705,472.24 706,472.78 707,473.10 708,472.35 709,473.60 710,472.38 711,473.28 712,472.75 713,472.30 714,469.39 715,469.25 716,472.17 717,469.56 718,470.91 719,472.53 720,470.50 721,467.85 722,469.24 723,472.17 724,471.06 725,471.13 726,472.79 727,471.71 728,471.12 729,471.81 730,473.26 731,473.92 732,473.07 733,472.58 734,472.58 735,472.58 736,472.58 737,472.58 738,472.58 739,472.58 740,472.58 741,472.58 742,472.58 743,472.58 744,472.58 745,472.58 746,472.58 747,472.58 748,472.58 749,472.58 750,472.58 751,472.58 752,469.14 753,469.14 754,469.14 755,471.89 756,471.68 757,471.11 758,469.14 759,469.14 760,469.14 761,471.57 762,470.20 763,470.77 764,471.57 765,471.67 766,471.67 767,473.68 768,472.16 769,469.88 770,472.06 771,471.62 772,469.96 773,468.19 774,469.05 775,472.78 776,472.11 777,471.82 778,471.92 779,470.78 780,471.53 781,471.43 782,469.83 783,469.14 784,469.14 785,470.10 786,470.78 787,470.24 788,472.52 789,471.23 790,471.19 791,472.32 792,469.71 793,465.46" fill="none" stroke="rgb(112,104,160)" stroke-width="2" stroke-linecap="round" stroke-linejoin="round" />
  <polyline points="1002,494.50 1003,499.75 1004,499.45 1005,498.04 1006,491.22 1007,492.38 1008,497.95 1009,497.62 1010,498.52 1011,499.45 1012,499.52 1013,498.10 1014,497.43 1015,498.46 1016,498.14 1017,499.60 1018,500.85 1019,500.85 1020,500.85 1021,500.85 1022,500.85 1023,500.85 1024,500.85 1025,500.85 1026,500.85 1027,500.85 1028,500.85 1029,501.56 1030,502.59 1031,502.86 1032,501.32 1033,502.32 1034,503.14 1035,502.06 1036,500.85 1037,501.03 1038,501.03 1039,501.56 1040,502.59 1041,502.86 1042,500.14 1043,504.13 1044,506.15 1045,504.79 1046,503.25 1047,505.51 1048,505.89 1049,502.12 1050,502.32 1051,503.56 1052,502.44 1053,502.06 1054,503.81 1055,504.28 1056,502.23 1057,504.96 1058,506.69 1059,503.91 1060,502.99 1061,503.24 1062,500.95 1063,496.79 1064,501.40 1065,497.43 1066,494.67 1067,499.82 1068,501.76 1069,500.35 1070,501.77 1071,502.85 1072,499.42 1073,498.68 1074,502.70 1075,497.86 1076,493.81 1077,501.58 1078,501.94 1079,499.72 1080,495.87 1081,502.19 1082,499.37 1083,493.35 1084,497.72 1085,504.01 1086,505.65 1087,505.67 1088,504.82 1089,501.86 1090,499.41 1091,498.93 1092,500.66 1093,498.78 1094,500.62 1095,502.52 1096,496.91" fill="none" stroke="rgb(112,104,160)" stroke-width="2" stroke-linecap="round" stroke-linejoin="round" />
  <polyline points="1209,473.00 1213,476.00 1214,476.00 1215,474.50 1217,473.00 1218,472.00 1219,471.00 1220,467.00" fill="none" stroke="rgb(112,104,160)" stroke-width="2" stroke-linecap="round" stroke-linejoin="round" />
  <polyline points="1581,466.50 1582,471.33 1583,472.58 1584,472.37 1585,472.17 1586,469.14 1587,469.14 1588,469.14 1589,472.58 1590,471.68 1591,470.12 1592,469.65 1593,472.00 1594,470.56 1595,469.14 1596,470.96 1597,472.58 1598,472.17 1599,472.17 1600,471.68 1601,470.12 1602,469.65 1603,472.00 1604,470.56 1605,469.14 1606,470.96 1607,472.58 1608,472.58 1609,472.58 1610,469.14 1611,469.14 1612,469.14 1613,470.68 1614,470.58 1615,470.96 1616,470.12 1617,469.14 1618,469.14 1619,469.14 1620,472.20 1621,470.92 1622,470.25 1623,471.37 1624,471.68 1625,471.04 1626,470.00 1627,471.46 1628,472.58 1629,473.33 1630,473.92 1631,473.80 1632,473.30 1633,474.04 1634,474.16 1635,472.90 1636,473.18 1637,474.21 1638,474.52 1639,472.97 1640,473.92 1641,474.86 1642,473.65 1643,472.58 1644,472.63 1645,472.63 1646,472.46 1647,471.59 1648,472.59 1649,472.08 1650,472.05 1651,471.67 1652,472.92 1653,471.68 1654,470.12 1655,470.38 1656,473.27 1657,471.56 1658,469.33 1659,472.05 1660,473.92 1661,473.92 1662,472.83 1663,469.67 1664,469.67 1665,469.18 1666,471.09 1667,471.40 1668,471.52 1669,470.43 1670,469.50 1671,469.26 1672,469.00 1673,473.48 1674,472.55 1675,471.32 1676,472.48 1677,472.29 1678,471.29 1679,470.40 1680,473.58 1681,473.42 1682,471.06 1683,472.59 1684,472.83 1685,470.78 1686,472.18 1687,472.13 1688,470.43 1689,470.92 1690,466.54" fill="none" stroke="rgb(112,104,160)" stroke-width="2" stroke-linecap="round" stroke-linejoin="round" />
  <polyline points="1696,466.50 1697,471.33 1698,472.13 1699,469.71 1700,474.06 1701,472.50 1702,472.24 1703,472.78 1704,473.10 1705,472.35 1706,473.60 1707,472.38 1708,473.28 1709,472.75 1710,472.30 1711,469.39 1712,469.25 1713,472.17 1714,469.56 1715,470.91 1716,472.53 1717,470.50 1718,467.85 1719,469.24 1720,472.17 1721,471.06 1722,471.13 1723,472.79 1724,471.71 1725,471.12 1726,471.81 1727,473.26 1728,473.92 1729,473.07 1730,472.58 1731,472.58 1732,472.58 1733,472.58 1734,472.58 1735,472.58 1736,472.58 1737,472.58 1738,472.58 1739,472.58 1740,472.58 1741,472.58 1742,472.58 1743,472.58 1744,472.58 1745,472.58 1746,472.58 1747,472.58 1748,472.58 1749,472.58 1750,472.58 1751,472.58 1752,472.58 1753,472.58 1754,472.58 1755,469.14 1756,469.33 1757,469.60 1758,474.45 1759,474.45 1760,473.94 1761,471.35 1762,471.89 1763,471.59 1764,469.78 1765,471.40 1766,472.38 1767,471.96 1768,470.60 1769,473.74 1770,473.79 1771,470.42 1772,471.75 1773,473.10 1774,471.82 1775,471.88 1776,470.41 1777,471.14 1778,470.22 1779,469.83 1780,469.14 1781,469.14 1782,470.10 1783,470.78 1784,470.24 1785,472.52 1786,471.23 1787,471.19 1788,472.32 1789,469.71 1790,465.46" fill="none" stroke="rgb(112,104,160)" stroke-width="2" stroke-linecap="round" stroke-linejoin="round" />
  <polyline points="5,385.00 6,387.53 7,347.86 8,373.33 9,380.77 10,390.00 11,390.20 12,389.71 13,363.61 14,382.41 15,397.00 16,413.30 17,321.81 18,285.32 19,304.32 20,198.00 21,288.00 22,264.39 23,288.00 24,288.00 25,288.00 26,301.50 27,301.50 28,288.00 29,288.00 30,301.50 31,288.00 32,288.00 33,288.00 34,301.50 35,265.26 36,301.50 37,288.00 38,301.50 39,301.50 40,288.00 41,301.50 42,301.50 43,288.00 44,288.00 45,301.50 46,265.26 47,288.00 48,301.50 49,301.50 50,265.26 51,288.00 52,301.50 53,301.50 54,288.00 55,276.50 56,301.50 57,301.50 58,288.00 59,301.50 60,288.00 61,288.00 62,288.00 63,288.00 64,288.00 65,178.36 66,117.56 67,107.60 68,237.05 69,164.92 70,164.92 71,164.92 72,178.27 73,183.44 74,107.60 75,107.60 76,251.13 77,178.27 78,178.27 79,164.92 80,164.92 81,117.56 82,117.56 83,138.64 84,121.38 85,260.44 86,107.60 87,117.56 88,260.44 89,138.73 90,164.92 91,165.25 92,164.92 93,138.73 94,260.44 95,94.08 96,107.60 97,145.21 98,270.74 99,22.00 100,22.00 101,22.00 102,21.50 103,21.50 104,21.50 105,22.00 106,21.50 107,22.00 108,22.00 109,21.50 110,21.00 111,22.50 112,22.00 113,21.50 114,21.50 115,21.50 116,22.00 117,21.50 118,21.50 119,23.00 120,21.50 121,22.00 122,21.50 123,22.50 124,21.50 125,22.00 126,21.50 127,22.00 128,21.50 129,21.50 130,21.50 131,23.00 132,22.00 133,22.00 134,21.50 135,22.00 136,21.50 137,21.50 138,22.50 139,21.50 140,21.50 141,22.00 142,21.50 143,22.00 144,22.50 145,21.50 146,22.00 147,21.50 148,21.50 149,23.00 150,21.50 151,22.00 152,21.50 153,22.00 154,23.00 155,22.00 156,21.50 157,21.50 158,21.50 159,21.50 160,21.50 161,21.50 162,23.00 163,22.00 164,21.50 165,21.50 166,21.50 167,21.50 168,21.50 169,22.00 170,21.50 171,21.50 172,22.00 173,21.50 174,22.50 175,22.00 176,21.50 177,22.50 178,21.50 179,22.00 180,21.50 181,21.50 182,22.00 183,21.50 184,21.50 185,21.50 186,22.00 187,22.50 188,21.50 189,21.50 190,22.00 191,22.00 192,22.00 193,21.50 194,22.00 195,21.50 196,22.00 197,21.50 198,21.50 199,21.50 200,21.50 201,21.50 202,22.00 203,21.50 204,22.00 205,22.00 206,21.50 207,21.50 208,21.50 209,21.50 210,22.50 211,22.00 212,22.00 213,21.50 214,21.50 215,21.50 216,22.00 217,22.00 218,22.00 219,21.50 220,21.50 221,22.00 222,22.00 223,22.00 224,22.50 225,22.00 226,23.00 227,21.50 228,22.50 229,21.50 230,21.50 231,21.50 232,21.50 233,22.50 234,22.50 235,20.50 236,38.50 237,52.00 238,53.00 239,53.00 240,51.50 241,52.00 242,52.00 243,52.00 244,53.00 245,52.50 246,52.00 247,53.00 248,52.00 249,52.00 250,51.50 251,53.00 252,52.00 253,53.00 254,52.00 255,52.00 256,51.50 257,53.00 258,52.00 259,51.50 260,52.00 261,52.00 262,52.00 263,52.00 264,52.00 265,53.00 266,53.00 267,51.50 268,53.00 269,52.00 270,52.00 271,53.50 272,52.00 273,53.00 274,52.00 275,51.50 276,52.00 277,53.00 278,53.00 279,51.50 280,51.50 281,52.00 282,53.00 283,51.50 284,53.00 285,52.00 286,52.00 287,52.00 288,52.00 289,52.00 290,51.50 291,52.00 292,52.00 293,53.00 294,53.00 295,54.00 296,54.50 297,54.00 298,55.50 300,55.50 301,55.00 302,53.50 303,53.00 304,52.50 305,52.00 306,51.50 307,53.00 308,52.00 309,52.50 310,52.00 311,53.50 312,53.50 313,54.00 314,52.00 315,53.00 316,53.00 317,52.00 318,52.00 319,52.00 320,53.00 321,53.00 322,53.00 323,52.25 324,51.00 325,52.50 326,52.50 327,51.50 328,50.82 329,52.50 330,51.50 331,52.00 332,52.00 333,51.00 334,52.92 335,51.00 336,51.50 337,52.00 338,52.50 339,52.00 340,52.50 341,52.82 342,51.50 343,51.50 344,53.50 345,51.50 346,51.00 347,51.00 348,51.00 349,53.00 350,51.00 351,52.50 352,51.00 353,53.00 354,51.50 355,50.50 356,51.50 357,51.00 358,52.00 359,51.00 360,52.50 361,50.50 362,51.50 363,52.00 364,51.20 365,52.50 366,53.00 367,52.50 368,51.00 369,52.00 370,53.00 371,51.50 372,53.00 373,51.00 374,52.00 375,50.00 376,52.50 377,52.00 378,52.50 379,53.30 380,51.50 381,51.50 382,53.00 383,52.00 384,51.50 385,52.00 386,51.50 387,53.00 388,50.50 389,51.50 390,51.50 391,51.50 392,52.00 393,52.00 394,52.50 395,50.50 396,52.00 397,51.00 398,51.50 399,51.00 400,51.50 401,52.00 402,52.00 403,52.00 404,52.50 405,449.74 406,447.14 407,450.55 408,445.51 409,439.63 410,441.24 411,422.57 412,432.08 413,444.10 414,442.22 415,440.29 416,454.38 417,441.94 418,433.88 419,462.53 420,467.03 421,467.28 422,468.64 423,478.95 424,477.31 425,490.08 426,477.31 427,477.35 428,469.44 429,465.36 430,465.42 431,454.26 432,443.50 433,450.75 434,450.55 435,454.23 436,454.23 437,454.23 438,447.14 439,447.14 440,443.36 441,457.96 442,447.12 443,454.23 444,454.12 445,454.12 446,439.39 447,457.06 448,453.00 449,443.59 450,458.04 451,453.41 452,439.79 453,457.65 454,449.07 455,440.91 456,442.80 457,458.04 458,453.31 459,446.07 460,443.34 461,457.23 462,456.23 463,438.01 464,456.81 465,442.93 466,440.21 467,455.86 468,436.44 469,438.87 470,452.55 471,448.66 472,452.92 473,440.60 474,458.21 475,441.41 476,439.79 477,442.65 478,447.62 479,455.04 480,440.61 481,444.68 482,447.23 483,455.56 484,445.63 485,447.40 486,442.08 487,446.32 488,442.42 489,445.62 490,447.57 491,442.82 492,452.23 493,439.27 494,450.49 495,444.17 496,440.08 497,448.21 498,440.73 499,443.94 500,51.00 501,52.00 502,51.50 503,50.50 504,53.00 505,52.50 506,51.50 507,51.00 508,52.00 509,53.00 510,52.00 511,53.00 512,53.00 513,53.00 514,52.00 515,52.00 516,51.50 517,52.00 518,53.00 519,52.00 520,53.00 521,52.00 522,54.00 523,53.00 524,52.00 525,53.00 526,53.00 527,52.50 528,52.00 529,53.00 530,53.00 531,53.00 532,52.70 533,53.50 534,54.50 535,53.00 536,54.50 537,53.91 538,55.40 539,54.93 540,54.27 541,56.29 542,54.27 543,53.40 544,56.46 545,54.82 546,54.25 547,56.77 548,59.22 549,55.18 550,53.80 551,57.67 552,58.70 553,59.00 554,60.46 555,65.00 556,63.54 557,64.46 558,70.20 559,68.31 560,71.64 561,71.44 562,68.00 563,67.14 564,71.79 565,82.20 566,66.45 567,75.21 568,87.00 569,72.50 570,82.77 571,76.75 572,93.70 573,76.89 574,77.23 575,102.75 576,62.92 577,86.36 578,92.06 579,88.93 580,76.27 581,81.93 582,102.24 583,91.53 584,66.80 585,118.50 586,86.43 587,86.64 588,92.25 589,110.93 590,94.25 591,95.00 592,107.69 593,91.36 594,91.79 595,110.81 596,93.29 597,111.23 598,84.17 599,114.88 600,81.36 601,103.25 602,111.21 603,105.00 604,91.00 605,86.15 606,91.73 607,92.09 608,92.27 609,100.79 610,93.18 611,71.83 612,109.25 613,88.46 614,72.25 615,94.45 616,111.00 617,89.54 618,100.00 619,89.85 620,112.50 621,76.40 622,107.69 623,96.64 624,96.82 625,97.00 626,119.27 627,77.10 628,77.10 629,129.69 630,92.00 631,98.45 632,74.25 633,98.64 634,77.80 635,108.07 636,116.75 637,99.36 638,75.27 639,78.20 640,117.75 641,74.92 642,100.09 643,112.77 644,75.00 645,96.00 646,106.80 647,75.91 648,78.90 649,78.90 650,106.40 651,101.00 652,79.10 653,101.36 654,79.20 655,76.27 656,97.00 657,91.50 658,76.55 659,95.08 660,91.79 661,79.60 662,79.70 663,76.00 664,102.27 665,79.80 666,72.79 667,95.69 668,112.89 669,79.90 670,98.17 671,87.88 672,102.82 673,92.50 674,96.00 675,77.09 676,96.00 677,104.64 678,96.00 679,80.20 680,96.15 681,74.15 682,103.36 683,77.27 684,80.30 685,80.30 686,80.40 687,113.64 688,80.40 689,80.50 690,96.46 691,103.73 692,80.50 693,88.50 694,77.45 695,80.50 696,80.50 697,103.73 698,96.77 699,103.91 700,80.50 701,103.91 702,103.91 703,80.60 704,104.09 705,96.92 706,74.62 707,94.21 708,80.70 709,105.73 710,80.80 711,104.27 712,96.92 713,80.70 714,104.27 715,114.29 716,74.69 717,80.80 718,74.62 719,76.92 720,104.27 721,106.09 722,80.80 723,80.90 724,99.50 725,104.45 726,76.92 727,80.80 728,97.08 729,80.90 730,80.90 731,104.45 732,104.45 733,77.82 734,77.00 735,104.45 736,104.45 737,80.90 738,116.89 739,77.82 740,80.90 741,77.00 742,77.00 743,80.90 744,80.90 745,124.25 746,77.91 747,97.38 748,97.38 749,104.64 750,74.77 751,80.90 752,104.64 753,77.08 754,81.00 755,117.11 756,77.17 757,99.83 758,77.08 759,74.77 760,81.00 761,99.83 762,81.00 763,77.17 764,81.00 765,104.64 766,104.82 767,77.08 768,81.00 769,77.08 770,81.00 771,81.00 772,81.00 773,93.79 774,81.10 775,99.83 776,124.50 777,81.00 778,81.00 779,104.82 780,81.00 781,77.08 782,81.00 783,104.82 784,100.17 785,97.38 786,81.00 787,81.00 788,82.80 789,81.00 790,38.00 791,38.00 792,38.00 793,38.00 794,38.00 795,38.00 796,38.00 797,38.00" fill="none" stroke="rgb(173,170,0)" stroke-width="2" stroke-linecap="round" stroke-linejoin="round" />
  <polyline points="1003,411.23 1004,379.56 1005,394.89 1006,405.36 1007,412.38 1008,410.71 1009,408.00 1010,387.59 1011,400.25 1012,415.75 1013,430.60 1014,447.38 1015,452.25 1016,424.25 1017,282.25 1018,302.22 1019,287.00 1020,303.87 1021,295.67 1022,262.48 1023,264.69 1024,262.48 1025,262.48 1026,262.48 1027,288.08 1028,262.48 1029,262.48 1030,262.48 1031,262.48 1032,245.03 1033,262.48 1034,288.08 1035,262.48 1036,262.48 1037,262.48 1038,262.48 1039,245.03 1040,262.48 1041,245.03 1042,245.03 1043,262.48 1044,262.48 1045,262.48 1046,262.48 1047,262.48 1048,288.08 1049,264.69 1050,288.08 1051,288.08 1052,262.48 1053,262.48 1054,262.48 1055,262.48 1056,245.03 1057,288.08 1058,262.48 1059,245.03 1060,262.48 1061,262.48 1062,177.20 1063,146.67 1064,146.67 1065,240.46 1066,177.15 1067,177.15 1068,177.15 1069,180.35 1070,202.09 1071,141.55 1072,146.67 1073,222.88 1074,177.15 1075,177.15 1076,177.15 1077,167.38 1078,146.67 1079,159.29 1080,154.91 1081,154.91 1082,224.20 1083,146.67 1084,159.29 1085,265.55 1086,162.63 1087,195.81 1088,177.35 1089,177.15 1090,162.63 1091,224.20 1092,159.29 1093,159.29 1094,195.88 1095,231.68 1096,108.50 1097,108.50 1098,108.50 1099,108.50 1100,108.50 1101,110.50 1102,108.50 1103,110.50 1104,108.50 1105,110.50 1106,110.50 1107,110.50 1108,108.50 1109,110.50 1110,110.50 1111,110.50 1112,110.50 1113,108.50 1114,108.50 1115,108.50 1116,110.50 1117,108.50 1118,110.50 1119,108.50 1120,108.50 1121,108.50 1122,110.50 1123,108.50 1124,110.50 1125,110.50 1126,108.50 1127,108.50 1128,108.50 1129,108.50 1130,110.50 1131,110.50 1132,108.50 1133,110.50 1134,110.50 1135,108.50 1136,108.50 1137,108.50 1138,110.50 1139,108.50 1140,110.50 1141,108.50 1142,108.50 1143,108.50 1144,108.50 1145,110.50 1146,108.50 1147,108.50 1148,110.50 1149,108.50 1150,110.50 1151,112.50 1152,110.50 1153,110.50 1154,108.50 1155,108.50 1156,110.50 1157,110.50 1158,110.50 1159,110.50 1160,108.50 1161,108.50 1162,108.50 1163,108.50 1164,112.50 1165,108.50 1166,108.50 1167,112.50 1168,108.50 1169,108.50 1170,110.50 1171,108.50 1172,110.50 1173,108.50 1174,108.50 1175,110.50 1176,108.50 1177,110.50 1178,108.50 1179,108.50 1180,108.50 1181,110.50 1182,108.50 1183,108.50 1184,110.50 1185,108.50 1186,108.50 1187,110.50 1188,108.50 1189,110.50 1190,108.50 1191,110.50 1192,108.50 1193,110.50 1194,110.50 1195,110.50 1196,110.50 1197,110.50 1198,108.50 1199,108.50 1200,108.50 1201,108.50 1202,106.50 1203,110.50 1204,110.50 1205,110.50 1206,110.50 1207,110.50 1208,108.50 1209,108.50 1210,108.50 1211,108.50 1212,108.50 1213,108.50 1214,108.50 1215,108.50 1216,108.50 1217,108.50 1218,108.50 1219,108.50 1220,108.50 1221,147.00 1222,188.50 1223,188.50 1224,188.50 1225,190.50 1226,186.50 1227,188.50 1228,188.50 1229,186.50 1230,186.50 1231,188.50 1232,188.50 1233,188.50 1234,188.50 1235,186.50 1236,190.50 1237,187.00 1238,188.50 1239,188.50 1240,186.50 1241,188.50 1242,188.50 1243,186.50 1244,188.50 1245,188.50 1246,187.00 1247,188.50 1248,188.50 1249,188.50 1250,188.50 1251,188.50 1252,186.50 1253,187.00 1254,188.50 1255,188.50 1256,188.50 1257,188.50 1258,186.50 1259,186.50 1260,188.50 1261,188.50 1262,188.50 1263,188.50 1264,188.50 1265,187.00 1266,188.50 1267,188.50 1268,188.50 1269,188.50 1270,188.50 1271,188.50 1272,186.50 1273,188.50 1274,188.50 1275,186.50 1276,185.00 1277,188.50 1278,188.50 1279,188.50 1280,188.50 1281,188.50 1282,188.50 1283,190.50 1284,188.50 1285,186.50 1286,188.50 1287,188.50 1288,188.50 1289,188.50 1290,188.50 1291,188.50 1292,188.50 1293,187.00 1294,188.50 1295,186.50 1296,188.50 1297,188.50 1298,186.50 1299,186.50 1300,185.00 1301,184.50 1302,190.50 1303,186.50 1304,186.50 1305,186.50 1306,188.50 1307,185.00 1308,187.00 1309,187.00 1310,188.50 1311,186.50 1312,186.50 1313,188.50 1314,188.50 1315,188.50 1316,185.00 1317,188.50 1318,187.00 1319,188.50 1320,187.00 1321,188.50 1322,186.50 1323,186.50 1324,186.50 1325,188.50 1326,188.50 1327,188.50 1328,188.50 1329,188.50 1330,188.50 1331,187.00 1332,188.50 1333,188.50 1334,188.50 1335,186.50 1336,188.50 1337,188.50 1338,187.00 1339,188.50 1340,187.00 1341,188.50 1342,188.50 1343,188.50 1344,187.00 1345,186.50 1346,188.50 1347,186.50 1348,186.50 1349,187.00 1350,188.50 1351,188.50 1352,186.50 1353,188.50 1354,188.50 1355,188.50 1356,188.50 1357,187.00 1358,186.50 1359,186.50 1360,188.50 1361,188.50 1362,188.50 1363,186.50 1364,188.50 1365,186.50 1366,187.00 1367,187.00 1368,188.50 1369,187.00 1370,187.00 1371,186.50 1372,188.50 1373,188.50 1374,186.50 1375,188.50 1376,186.50 1377,188.50 1378,186.50 1379,188.50 1380,190.50 1381,188.50 1382,188.50 1383,188.50 1384,186.50 1385,186.50 1386,186.50 1387,188.50 1388,188.50 1389,186.50 1390,188.50 1391,186.50 1392,188.50 1393,187.00 1394,188.50 1395,188.50 1396,186.50 1397,186.50 1398,188.50 1399,186.50 1400,188.50 1401,190.50 1402,186.50 1403,188.50 1404,188.50 1405,186.50 1406,188.50 1407,188.50 1408,190.50 1409,185.00 1410,188.50 1411,186.50 1412,188.50 1413,188.50 1414,188.50 1415,190.50 1416,188.50 1417,188.50 1418,188.50 1419,186.50 1420,188.50 1421,188.50 1422,188.50 1423,186.50 1424,187.00 1425,188.50 1426,188.50 1427,185.00 1428,188.50 1429,187.00 1430,186.50 1431,186.50 1432,190.50 1433,188.50 1434,188.50 1435,186.50 1436,188.50 1437,188.50 1438,188.50 1439,188.50 1440,186.50 1441,186.50 1442,188.50 1443,185.00 1444,188.50 1445,188.50 1446,188.50 1447,186.50 1448,188.50 1449,186.50 1450,188.50 1451,186.50 1452,186.50 1453,188.50 1454,186.50 1455,188.50 1456,188.50 1457,188.50 1458,188.50 1459,188.50 1460,188.50 1461,187.00 1462,188.50 1463,187.00 1464,186.50 1465,186.50 1466,188.50 1467,188.50 1468,188.50 1469,187.00 1470,188.50 1471,187.00 1472,186.50 1473,188.50 1474,188.50 1475,188.50 1476,188.50 1477,186.50 1478,186.50 1479,188.50 1480,188.50 1481,188.50 1482,186.50 1483,188.50 1484,188.50 1485,186.50 1486,188.50 1487,188.50 1488,188.50 1489,187.00 1490,188.50 1491,188.50 1492,188.50 1493,188.50 1494,188.50 1495,188.50 1496,188.50 1497,188.50 1498,190.50 1499,186.50 1500,188.50 1501,186.50 1502,188.50 1503,188.50 1504,188.50 1505,187.00 1506,187.00 1507,188.50 1508,188.50 1509,188.50 1510,190.50 1511,185.00 1512,190.50 1513,186.50 1514,188.50 1515,188.50 1516,188.50 1517,188.50 1518,188.50 1519,187.00 1520,188.50 1521,186.50 1522,188.50 1523,188.50 1524,188.50 1525,188.50 1526,188.50 1527,186.50 1528,188.50 1529,186.50 1530,187.00 1531,188.50 1532,187.00 1533,186.50 1534,188.50 1535,188.50 1536,185.00 1537,188.50 1538,188.50 1539,188.50 1540,188.50 1541,186.50 1542,188.50 1543,188.50 1544,187.00 1545,187.00 1546,186.50 1547,188.50 1548,188.50 1549,186.50 1550,187.00 1551,190.50 1552,188.50 1553,187.00 1554,188.50 1555,186.50 1556,188.50 1557,187.00 1558,188.50 1559,190.50 1560,188.50 1561,188.50 1562,188.50 1563,186.50 1564,186.50 1565,188.50 1566,188.50 1567,186.89 1568,186.84 1569,187.06 1570,188.87 1571,188.80 1572,188.80 1573,188.80 1574,188.80 1575,188.80 1576,186.61 1577,188.57 1578,188.50 1579,188.40 1580,188.33 1581,186.26 1582,188.35 1583,188.20 1584,186.16 1585,186.11 1586,188.07 1587,186.00 1588,188.50 1589,188.50 1590,186.50 1591,188.50 1592,188.50 1593,188.50 1594,188.50 1595,188.50 1596,188.50 1597,188.50 1598,188.50 1599,188.50 1600,188.50 1601,186.50 1602,188.50 1603,188.50 1604,185.00 1605,188.50 1606,186.50 1607,186.50 1608,188.50 1609,186.50 1610,188.50 1611,186.50 1612,188.50 1613,188.50 1614,188.50 1615,188.50 1616,188.50 1617,186.50 1618,186.50 1619,188.50 1620,190.50 1621,188.50 1622,188.50 1623,190.50 1624,188.50 1625,188.50 1626,184.50 1627,188.50 1628,190.50 1629,188.50 1630,188.50 1631,188.50 1632,186.50 1633,188.50 1634,188.50 1635,186.50 1636,188.50 1637,188.50 1638,186.50 1639,188.50 1640,186.50 1641,188.50 1642,190.50 1643,186.50 1644,188.50 1645,186.50 1646,185.00 1647,190.50 1648,187.00 1649,188.50 1650,188.50 1651,188.50 1652,188.50 1653,188.50 1654,188.50 1655,188.50 1656,188.50 1657,188.50 1658,188.50 1659,186.50 1660,188.50 1661,188.50 1662,188.50 1663,188.50 1664,187.00 1665,188.50 1666,186.50 1667,186.50 1668,186.50 1669,186.50 1670,188.50 1671,188.50 1672,188.50 1673,188.50 1674,185.00 1675,185.00 1676,188.50 1677,186.50 1678,186.50 1679,186.50 1680,187.00 1681,186.50 1682,188.50 1683,188.50 1684,188.50 1685,188.50 1686,188.50 1687,188.50 1688,188.50 1689,188.50 1690,188.50 1691,186.50 1692,190.50 1693,187.00 1694,188.50 1695,185.00 1696,186.50 1697,188.50 1698,188.50 1699,188.50 1700,188.50 1701,188.50 1702,188.50 1703,190.50 1704,188.50 1705,188.50 1706,188.50 1707,185.00 1708,186.50 1709,190.50 1710,188.50 1711,186.50 1712,186.50 1713,188.50 1714,186.50 1715,188.50 1716,188.50 1717,186.50 1718,188.50 1719,188.50 1720,188.50 1721,190.50 1722,188.50 1723,185.00 1724,186.50 1725,186.50 1726,188.50 1727,186.50 1728,185.00 1729,187.00 1730,188.50 1731,185.00 1732,185.00 1733,188.50 1734,188.50 1735,187.00 1736,188.50 1737,188.50 1738,186.50 1739,188.50 1740,190.50 1741,188.50 1742,186.50 1743,188.50 1744,188.50 1745,188.50 1746,188.50 1747,190.50 1748,186.50 1749,188.50 1750,188.50 1751,188.50 1752,188.50 1753,188.50 1754,190.50 1755,188.50 1757,188.50 1758,188.50 1759,188.50 1760,188.50 1761,188.50 1762,188.50 1763,188.50 1765,186.50 1766,186.50 1767,188.50 1768,188.50 1769,188.50 1770,187.00 1771,188.50 1772,186.50 1773,188.50 1774,188.50 1775,186.50 1776,186.50 1777,188.50 1778,186.50 1779,188.50 1780,188.50 1781,188.50 1782,188.50 1783,188.50 1784,188.50 1785,186.50 1786,188.50 1787,160.00 1788,160.00 1789,160.00 1790,160.00 1791,160.00 1792,160.00 1793,160.00 1794,160.00" fill="none" stroke="rgb(173,170,0)" stroke-width="2" stroke-linecap="round" stroke-linejoin="round" />
  <polyline points="6,329.00 7,333.20 8,335.50 9,335.50 10,335.50 11,335.50 12,333.67 13,333.67 14,333.67 15,335.50 16,336.00 17,326.00 18,327.00 19,326.50 20,327.00 21,326.00 22,326.00 23,326.00 24,326.00 25,326.00 26,326.50 27,326.50 28,327.00 29,327.00 30,326.00 31,326.50 32,326.00 33,326.50 34,325.00 35,326.50 36,326.50 37,326.00 38,326.50 39,326.50 40,326.00 41,326.00 42,326.00 43,325.00 44,327.50 45,326.00 46,326.50 47,326.50 48,326.50 49,326.50 50,326.00 51,326.50 52,326.50 53,326.00 54,326.50 55,326.00 56,326.50 57,326.00 58,326.50 59,326.50 60,326.00 61,326.50 62,327.00 63,326.50 64,326.00 65,326.50 66,326.50 67,326.50 68,326.50 69,327.00 70,326.50 71,327.00 72,326.50 73,327.00 74,326.50 75,326.50 76,325.00 77,326.00 78,326.00 79,326.00 80,326.00 81,327.00 82,326.00 83,326.00 84,326.50 85,327.00 86,327.00 87,326.00 88,326.00 89,326.50 90,326.50 91,326.50 92,326.00 93,326.00 94,326.50 95,326.50 96,326.00 97,326.00 98,326.50 99,326.50 100,326.50 101,326.00 102,326.00 103,326.50 104,326.00 105,326.00 106,326.00 107,326.00 108,326.50 109,326.50 110,325.00 111,326.00 112,326.50 113,326.00 114,326.00 115,326.50 116,326.50 117,326.50 118,326.00 119,326.00 120,326.50 121,327.00 122,326.50 123,326.50 124,326.00 125,326.50 126,326.50 127,326.00 128,326.00 129,326.50 130,326.00 131,326.50 132,326.00 133,326.50 134,326.50 135,326.00 136,326.50 137,326.50 138,326.00 139,326.50 140,326.00 141,326.00 142,326.00 143,326.00 144,326.00 145,326.00 146,326.00 147,326.00 148,326.00 149,326.00 150,326.50 151,326.50 152,326.50 153,326.50 154,326.00 155,326.50 156,327.00 157,326.50 158,326.00 159,326.00 160,326.50 161,326.00 162,327.00 163,326.50 164,326.50 165,326.50 166,325.50 167,327.50 168,327.00 169,326.50 170,326.00 171,326.00 172,326.00 173,326.50 174,326.00 175,327.00 176,326.50 177,327.00 178,327.00 179,326.00 180,326.00 181,326.00 182,326.50 183,326.50 184,326.00 185,326.00 186,326.50 187,326.00 188,327.50 189,326.00 190,326.00 191,327.00 192,326.50 193,326.50 194,326.50 195,326.00 196,326.50 197,325.50 198,326.50 199,326.50 200,326.50 201,326.50 202,326.00 203,326.00 204,326.00 205,326.50 206,326.50 207,326.50 208,326.50 209,326.50 210,326.50 211,326.50 212,326.50 213,326.50 214,326.00 215,326.00 216,326.50 217,326.50 218,326.50 219,326.00 220,326.00 221,326.00 222,327.00 223,326.50 224,326.50 225,326.00 226,326.50 227,326.50 228,326.00 229,326.50 230,326.50 231,327.00 232,326.50 233,326.50 234,326.00 235,327.00 236,326.50 237,326.50 238,326.50 239,326.50 240,326.50 241,326.00 242,326.00 243,327.00 244,326.50 245,326.00 246,326.00 247,326.50 248,326.00 249,326.00 250,326.50 251,327.00 252,326.50 253,326.50 254,326.50 255,326.50 256,327.00 257,326.50 258,326.50 259,326.00 260,326.50 261,326.50 262,326.00 263,326.50 264,327.00 265,326.00 266,326.00 267,326.50 268,326.50 269,327.00 270,327.00 271,327.50 272,326.00 273,327.00 274,326.00 275,326.00 276,326.50 277,326.50 278,326.50 279,326.00 280,326.50 281,327.00 282,326.00 283,326.50 284,326.00 285,326.50 286,326.00 287,326.00 288,326.50 289,326.50 290,327.00 291,326.50 292,324.82 293,325.64 294,325.38 295,325.67 296,325.19 297,323.50 298,322.36 299,321.67 300,322.36 301,323.50 302,325.30 303,325.04 304,325.38 305,326.19 306,363.35 307,366.29 308,350.25 309,357.61 310,362.53 311,361.95 312,363.24 313,357.14 314,357.61 315,366.29 316,364.74 317,358.62 318,357.64 319,360.22 320,342.55 321,364.12 322,366.95 323,366.95 324,366.95 325,364.31 326,366.95 327,366.29 328,366.95 329,367.62 330,366.95 331,366.95 332,368.33 333,366.95 334,368.33 335,366.95 336,366.95 337,368.33 338,366.95 339,366.29 340,366.95 341,368.33 342,366.95 343,366.29 344,368.33 345,368.33 346,366.95 347,366.95 348,366.95 349,366.95 350,366.29 351,366.95 352,367.62 353,366.95 354,366.29 355,366.29 356,366.95 357,366.95 358,366.95 359,368.33 360,366.95 361,366.29 362,366.95 363,366.95 364,366.95 365,343.13 366,335.46 367,334.87 368,359.95 369,342.16 370,342.16 371,342.16 372,342.16 373,348.85 374,334.69 375,335.62 376,354.71 377,343.20 378,343.00 379,342.23 380,342.16 381,334.87 382,334.69 383,338.50 384,338.50 385,359.42 386,334.87 387,334.69 388,359.42 389,338.58 390,342.16 391,342.28 392,343.20 393,338.58 394,360.68 395,334.69 396,334.69 397,342.26 398,362.47 399,326.50 400,326.50 401,326.00 402,326.00 403,326.00 404,326.00 405,326.50 406,326.00 407,326.50 408,327.00 409,326.50 410,326.00 411,326.00 412,327.00 413,326.00 414,326.00 415,326.00 416,326.50 417,326.50 418,326.15 419,326.88 420,326.62 421,328.13 422,327.36 423,329.17 424,330.36 425,330.00 426,331.22 427,329.70 428,327.36 429,326.96 430,327.16 431,326.36 432,326.67 433,326.50 434,326.00 435,326.00 436,326.50 437,326.00 438,326.50 439,326.50 440,326.50 441,326.00 442,326.00 443,326.50 444,326.50 445,326.50 446,326.00 447,326.50 448,325.50 449,326.00 450,326.50 451,326.50 452,326.00 453,327.00 454,326.00 455,326.00 456,327.00 457,326.00 458,326.50 459,326.50 460,326.00 461,327.00 462,326.00 463,326.50 464,326.50 465,327.50 466,326.50 467,326.50 468,326.00 469,326.00 470,326.50 471,326.50 472,326.50 473,325.00 474,325.00 475,326.00 476,327.00 477,326.50 478,326.00 479,326.00 480,326.50 481,326.00 482,326.50 483,326.50 484,326.00 485,326.00 486,326.50 487,326.00 488,326.50 489,326.00 490,326.00 491,326.50 492,326.00 493,326.50 494,327.00 495,326.50 496,326.50 497,325.00 498,325.50 499,327.00 500,326.00 501,327.00 502,325.50 503,326.00 504,326.00 505,326.00 506,326.00 507,326.50 508,326.00 509,326.50 510,326.00 511,326.50 512,326.50 513,326.00 514,326.00 515,326.50 516,326.50 517,326.50 518,326.00 519,326.00 520,326.00 521,326.00 522,326.00 523,326.50 524,326.00 525,327.00 526,326.00 527,326.50 528,326.00 529,326.00 530,326.50 531,326.00 532,326.00 533,326.00 534,326.50 535,326.00 536,326.50 537,326.50 538,326.50 539,327.50 540,328.00 541,326.50 542,326.00 543,326.00 544,326.50 545,326.50 546,325.00 547,327.00 548,326.50 549,326.00 550,326.00 551,326.50 552,326.00 553,326.50 554,326.00 555,326.00 556,326.00 557,325.00 558,326.00 559,326.00 560,326.50 561,326.00 562,326.00 563,326.00 564,326.00 565,326.50 566,326.50 567,325.00 568,326.00 569,326.00 570,326.50 571,326.50 572,326.00 573,326.00 574,327.00 575,326.00 576,326.50 577,326.00 578,326.50 579,326.00 580,326.50 581,326.50 582,326.50 583,326.00 584,326.00 585,326.00 586,326.50 587,326.00 588,326.50 589,326.50 590,326.00 591,326.50 592,326.50 593,325.00 594,326.00 595,326.50 596,326.00 597,326.00 598,326.00 599,326.50 600,326.00 601,327.00 602,326.50 603,326.00 604,326.50 605,326.00 606,326.50 607,326.00 608,325.00 609,326.00 610,326.00 611,325.00 612,326.00 613,326.00 614,326.00 615,326.00 616,326.00 617,326.50 618,326.50 619,326.50 620,326.50 621,327.00 622,326.50 623,326.00 624,326.00 625,326.00 626,326.50 627,325.00 628,326.00 629,326.00 630,326.00 631,326.50 632,326.00 633,326.50 634,326.50 635,326.00 636,327.00 637,326.50 638,326.50 639,327.00 640,327.38 641,326.92 642,326.76 643,327.12 644,326.85 645,326.60 646,327.35 647,326.23 648,326.70 649,326.70 650,327.04 651,326.88 652,326.12 653,326.20 654,326.08 655,326.08 656,327.20 657,326.04 658,325.96 659,326.50 660,325.88 661,326.96 662,326.41 663,325.88 664,326.35 665,325.85 666,325.85 667,325.64 668,326.27 669,325.81 670,325.56 671,326.30 672,324.52 673,325.48 674,326.00 675,325.73 676,326.04 677,325.48 678,326.56 679,325.69 680,325.96 681,326.73 682,325.88 683,326.16 684,325.65 685,325.65 686,326.65 687,325.36 688,325.62 689,326.08 690,325.24 691,325.67 692,326.11 693,326.62 694,326.11 695,325.58 696,326.62 697,325.16 698,325.65 699,325.08 700,325.58 701,325.08 702,325.08 703,326.58 704,325.58 705,325.00 706,326.00 707,325.58 708,326.54 709,325.00 710,326.00 711,325.50 712,325.00 713,326.04 714,325.50 715,325.50 716,326.50 717,325.00 718,326.00 719,326.00 720,326.00 721,326.50 722,326.00 723,327.00 724,325.50 725,326.00 726,326.00 727,325.00 728,326.00 729,325.50 730,326.00 731,326.00 732,324.50 733,327.00 734,326.50 735,326.50 736,326.00 737,326.00 738,326.00 739,326.00 740,326.00 741,326.50 742,326.00 743,326.50 744,325.00 745,326.50 746,326.50 747,326.00 748,326.50 749,326.00 750,326.50 751,326.50 752,326.00 753,326.50 754,326.00 755,326.50 756,326.50 757,325.00 758,327.00 759,326.50 760,326.50 761,326.50 762,326.00 763,326.50 764,326.50 765,326.00 766,327.00 767,326.00 768,326.50 769,326.00 770,326.50 771,326.50 772,326.00 773,327.00 774,326.00 775,326.50 776,326.00 777,327.00 778,327.00 779,324.00 780,327.00 781,326.00 782,326.50 783,326.00 784,326.00 785,326.50 786,326.00 787,326.00 788,326.00 789,325.00" fill="none" stroke="rgb(0,255,0)" stroke-width="2" stroke-linecap="round" stroke-linejoin="round" />
  <polyline points="6,373.00 7,380.20 8,376.00 9,382.50 10,382.50 11,382.50 12,382.50 13,379.33 14,382.50 15,382.50 16,383.00 17,81.00 18,81.50 19,79.50 20,79.50 21,79.50 22,78.50 23,80.50 24,80.50 25,80.50 26,80.50 27,79.50 28,79.50 29,80.50 30,79.50 31,80.50 32,80.50 33,82.00 34,80.50 35,80.50 36,81.50 37,81.00 38,81.50 39,79.50 40,80.50 41,80.50 42,79.50 43,80.50 44,80.50 45,80.50 46,79.50 47,80.50 48,80.50 49,79.50 50,80.50 51,81.50 52,80.50 53,81.50 54,81.00 55,80.50 56,81.00 57,81.50 58,80.50 59,81.50 60,80.50 61,80.50 62,79.50 63,81.00 64,80.50 65,80.50 66,80.50 67,81.50 68,80.50 69,80.50 70,82.00 71,78.50 72,80.50 73,80.50 74,80.50 75,80.50 76,80.50 77,80.50 78,80.50 79,81.00 80,81.50 81,80.50 82,81.50 83,79.50 84,80.50 85,80.50 86,81.00 87,81.50 88,80.50 89,80.50 90,80.50 91,79.50 92,80.50 93,80.50 94,81.00 95,81.50 96,80.50 97,80.50 98,80.50 99,79.50 100,81.50 101,81.00 102,80.50 103,81.00 104,80.50 105,80.50 106,79.50 107,79.50 108,80.50 109,79.50 110,80.50 111,81.50 112,80.50 113,80.50 114,81.50 115,79.50 116,79.50 117,80.50 118,80.50 119,79.50 120,80.50 121,80.50 122,80.50 123,81.00 124,80.50 125,79.50 126,81.50 127,81.50 128,80.50 129,81.00 130,81.50 131,79.00 132,79.50 133,80.50 134,79.50 135,80.50 136,79.50 137,80.50 138,81.00 139,81.00 140,80.50 141,80.50 142,81.00 143,79.50 144,82.00 145,79.50 146,81.50 147,80.50 148,80.50 149,79.50 150,80.50 151,80.50 152,81.00 153,79.50 154,80.50 155,80.50 156,80.50 157,80.50 158,81.50 159,78.50 160,81.50 161,80.50 162,80.50 163,80.50 164,80.50 165,80.50 166,81.50 167,80.50 168,80.50 169,80.50 170,80.50 171,79.50 172,80.50 173,80.50 174,80.50 175,80.50 176,81.00 177,79.50 178,80.50 179,80.50 180,80.50 181,80.50 182,80.50 183,80.50 184,80.50 185,80.50 186,80.50 187,80.50 188,80.50 189,79.50 190,80.50 191,80.50 192,81.00 193,79.50 194,80.50 195,81.50 196,80.50 197,81.50 198,80.50 199,80.50 200,80.50 201,80.50 202,80.50 203,80.50 204,80.50 205,456.17 206,456.86 207,467.38 208,453.35 209,450.89 210,426.15 211,452.12 212,445.54 213,452.96 214,447.36 215,456.17 216,454.56 217,456.64 218,452.84 219,446.80 220,446.65 221,456.51 222,457.12 223,460.36 224,456.86 225,456.86 226,460.36 227,460.36 228,460.36 229,456.86 230,460.36 231,460.36 232,449.95 233,456.62 234,456.62 235,456.62 236,449.78 237,456.13 238,455.36 239,455.72 240,449.24 241,456.46 242,460.36 243,449.93 244,460.12 245,456.86 246,455.70 247,450.75 248,455.45 249,455.66 250,454.06 251,446.75 252,460.09 253,454.76 254,452.86 255,443.06 256,435.48 257,454.84 258,454.81 259,451.50 260,444.93 261,436.31 262,441.88 263,436.65 264,454.92 265,453.93 266,446.08 267,452.09 268,444.90 269,450.04 270,433.08 271,452.07 272,445.10 273,437.49 274,435.83 275,453.02 276,438.71 277,447.84 278,446.65 279,439.18 280,443.15 281,434.33 282,447.36 283,440.61 284,452.99 285,458.69 286,443.07 287,447.64 288,444.57 289,452.30 290,439.63 291,452.00 292,459.66 293,447.15 294,460.65 295,463.12 296,473.91 297,475.19 298,492.12 299,482.19 300,84.00 301,83.50 302,80.57 303,81.50 304,82.00 305,79.00 306,79.25 307,80.50 308,79.50 309,78.00 310,79.50 311,79.50 312,78.50 313,78.50 314,79.50 315,78.00 316,79.50 317,78.50 318,78.50 319,78.00 320,78.00 321,78.50 322,79.50 323,78.50 324,78.00 325,78.00 326,78.00 327,77.50 328,76.50 329,77.50 330,76.50 331,77.50 332,77.50 333,76.50 334,76.50 335,76.50 336,75.50 337,76.50 338,75.50 339,77.50 340,76.50 341,75.50 342,75.50 343,75.50 344,76.50 345,75.50 346,75.50 347,75.00 348,75.00 349,75.00 350,75.50 351,74.50 352,74.50 353,74.00 354,75.00 355,75.00 356,75.00 357,73.50 358,74.00 359,73.50 360,74.00 361,73.50 362,73.50 363,74.50 364,73.50 365,72.50 366,73.50 367,73.50 368,72.50 369,73.00 370,73.00 371,72.50 372,72.00 373,72.50 374,73.50 375,72.00 376,73.00 377,72.50 378,72.00 379,71.50 380,73.00 381,72.00 382,72.00 383,72.00 384,72.00 385,71.00 386,71.50 387,72.00 388,72.00 389,72.00 390,71.00 391,70.50 392,70.50 393,72.00 394,71.50 395,71.50 396,70.50 397,70.50 398,70.50 399,70.00 400,70.50 401,71.00 402,76.50 403,70.50 404,70.00 405,70.50 406,69.50 407,70.50 408,70.50 409,69.00 410,70.50 411,70.50 412,69.00 413,69.00 414,69.00 415,70.00 416,69.00 417,69.00 418,69.00 419,69.00 420,69.00 421,69.00 422,68.50 423,69.00 424,68.50 425,69.00 426,68.50 427,69.00 428,68.50 429,69.00 430,69.00 431,69.00 432,68.50 433,69.50 434,69.00 435,70.00 436,68.50 437,69.00 438,69.00 439,68.50 440,68.50 441,68.50 442,67.50 443,69.00 444,69.00 445,68.50 446,69.50 447,68.00 448,67.50 449,68.50 450,67.50 451,69.00 452,68.00 453,66.50 454,67.50 455,69.00 456,68.00 457,68.00 458,67.50 459,67.50 460,68.50 461,68.50 462,69.00 463,66.50 464,68.50 465,67.50 466,66.50 467,68.00 468,67.50 469,68.00 470,67.50 471,67.50 472,67.50 473,67.50 474,68.00 475,68.00 476,68.50 477,67.50 478,67.50 479,69.00 480,68.50 481,66.50 482,66.50 483,67.50 484,68.00 485,66.50 486,68.50 487,67.50 488,67.50 489,67.50 490,66.50 491,68.50 492,67.50 493,67.50 494,67.50 495,68.50 496,68.50 497,68.00 498,66.50 499,67.50 500,68.50 501,66.00 502,67.50 503,67.50 504,67.50 505,67.50 506,67.50 507,68.50 508,66.00 509,67.50 510,67.50 511,67.50 512,67.50 513,67.50 514,66.50 515,67.50 516,67.50 517,66.00 518,67.50 519,67.50 520,66.50 521,67.50 522,68.50 523,67.50 524,67.00 525,67.50 526,67.50 527,67.50 528,66.00 529,67.50 530,67.50 531,68.50 532,67.50 533,66.50 534,67.50 535,67.50 536,66.50 537,67.50 538,67.50 539,68.00 540,68.50 541,69.00 542,69.50 543,67.71 544,65.60 545,66.25 546,66.33 547,69.17 548,63.50 549,65.75 550,67.14 551,65.00 552,66.00 553,66.50 554,67.50 555,66.50 556,67.50 557,66.50 558,66.50 559,66.50 560,67.50 561,67.50 562,67.50 563,66.50 564,67.50 565,67.50 566,67.50 567,67.50 568,67.50 569,66.00 570,66.00 571,66.50 572,66.50 573,67.50 574,67.50 575,66.00 576,67.50 577,66.50 578,66.50 579,66.50 580,65.50 581,67.50 582,67.00 583,67.50 584,66.50 585,66.50 586,66.50 587,66.00 588,67.50 589,67.00 590,66.00 591,66.00 592,66.50 593,66.50 594,67.50 595,66.50 596,66.00 597,66.50 598,67.50 599,66.00 600,66.00 601,66.50 602,66.50 603,66.50 604,66.50 605,67.00 606,67.50 607,66.00 608,66.50 609,66.50 610,67.50 611,67.50 612,66.00 613,67.00 614,66.50 615,66.50 616,66.50 617,67.50 618,66.50 619,67.50 620,67.50 621,66.50 622,66.50 623,66.50 624,67.00 625,66.00 626,66.50 627,68.50 628,67.50 629,67.50 630,66.00 631,67.50 632,66.50 633,66.00 634,67.50 635,67.00 636,66.00 637,66.00 638,66.00 639,67.00 640,66.00 641,67.00 642,67.50 643,66.00 644,66.50 645,66.50 646,66.00 647,67.50 648,66.50 649,67.00 650,66.00 651,67.50 652,66.00 653,67.50 654,67.00 655,66.00 656,66.00 657,67.00 658,66.00 659,66.00 660,67.00 661,67.50 662,67.50 663,66.50 664,66.50 665,66.00 666,66.50 667,66.50 668,67.50 669,67.00 670,66.00 671,66.00 672,66.50 673,66.50 674,67.50 675,66.50 676,66.50 677,67.50 678,66.50 679,66.50 680,67.50 681,68.50 682,66.00 683,67.00 684,67.50 685,66.00 686,67.00 687,67.50 688,66.50 689,66.50 690,66.00 691,67.00 692,67.50 693,67.00 694,67.50 695,67.00 696,66.00 697,66.50 698,66.50 699,67.50 700,67.00 701,67.00 702,67.50 703,67.00 704,66.50 705,66.50 706,65.50 707,66.50 708,66.00 709,67.50 710,66.00 711,67.50 712,66.50 713,67.50 714,67.50 715,66.00 716,66.50 717,66.50 718,66.50 719,67.50 720,67.50 721,66.50 722,66.50 723,66.00 724,66.00 725,66.50 726,66.50 727,66.00 728,67.00 729,66.50 730,67.00 731,67.50 732,66.50 733,67.50 734,67.50 735,67.00 736,67.50 737,66.00 738,67.00 739,68.50 740,66.00 741,66.50 742,66.00 743,66.50 744,67.50 745,67.50 746,66.50 747,66.50 748,66.50 749,66.00 750,67.00 751,67.50 752,66.50 753,67.00 754,66.00 755,67.00 756,67.00 757,67.00 758,67.50 759,66.00 760,67.50 761,67.50 762,67.50 763,66.50 764,66.50 765,66.00 766,67.00 767,67.00 768,66.50 769,66.00 770,67.50 771,66.50 772,67.00 773,66.50 774,66.50 775,66.50 776,67.00 777,66.00 778,67.50 779,67.00 780,67.00 781,66.00 782,67.50 783,66.00 784,67.50 785,66.00 786,67.50 787,66.50 788,66.00 789,67.50" fill="none" stroke="rgb(0,0,255)" stroke-width="2" stroke-linecap="round" stroke-linejoin="round" />
  <polyline points="1002,385.00 1003,381.00 1004,381.50 1005,383.11 1006,382.67 1007,385.50 1008,385.00 1010,378.00 1011,378.00 1015,61.00 1016,60.00 1017,60.00 1018,60.00 1019,60.00 1020,61.00 1021,61.00 1022,62.00 1023,62.00 1024,62.00 1025,62.00 1026,62.00 1027,61.00 1028,61.00 1029,60.00 1030,60.00 1031,60.00 1032,61.00 1033,61.00 1034,62.00 1035,62.00 1036,62.00 1037,62.00 1038,61.00 1039,61.00 1040,60.00 1041,60.00 1042,60.00 1043,61.00 1044,61.00 1045,62.00 1046,62.00 1047,62.00 1048,62.00 1049,62.00 1050,61.00 1051,61.00 1052,60.00 1053,60.00 1054,60.00 1055,61.00 1056,61.00 1057,62.00 1058,62.00 1059,61.00 1060,61.00 1061,32.00" fill="none" stroke="rgb(0,195,255)" stroke-width="2" stroke-linecap="round" stroke-linejoin="round" />
  <polyline points="1070,8.00 1071,29.50 1072,54.00 1073,62.00 1074,61.00 1075,61.00 1076,61.00 1077,61.00 1078,60.00 1079,60.00 1080,60.00 1081,60.00 1082,61.00 1083,61.00 1084,62.00 1085,61.00 1086,61.00 1087,60.00 1088,60.00 1089,60.00 1090,61.00 1091,61.00 1092,62.00 1093,62.00 1094,61.00 1095,61.00 1096,61.00 1097,60.00 1098,60.00 1099,60.00 1100,60.00 1101,61.00 1102,61.00 1103,62.00 1104,62.00 1105,61.00 1106,61.00 1107,61.00 1108,61.00 1109,60.00 1110,60.00 1111,60.00 1112,60.00 1113,61.00 1114,61.00 1115,62.00 1116,62.00 1117,61.00 1118,61.00 1119,61.00 1120,61.00 1121,60.00 1122,60.00 1123,60.00 1124,61.00 1125,61.00 1126,62.00 1127,62.00 1128,61.00 1129,61.00 1130,61.00 1131,61.00 1132,61.00 1133,61.00 1134,61.00 1135,61.00 1136,61.00 1137,61.00 1138,61.00 1139,61.00 1140,61.00 1141,61.00 1142,61.00 1143,61.00 1144,61.00 1145,61.00 1146,61.00 1147,61.00 1148,61.00 1149,61.00 1150,61.00 1151,61.00 1152,61.00 1153,61.00 1154,61.00 1155,60.00 1156,60.00 1157,60.00 1158,60.00 1159,60.00 1160,61.00 1161,61.00 1162,61.00 1163,61.00 1164,62.00 1165,62.00 1166,61.00 1167,61.00 1168,60.00 1169,60.00 1170,60.00 1171,61.00 1172,61.00 1173,62.00 1174,61.00 1175,61.00 1176,60.00 1177,60.00 1178,61.00 1179,61.00 1180,62.00 1181,62.00 1182,62.00 1183,62.00 1184,62.00 1185,61.00 1186,61.00 1187,60.00 1188,60.00 1189,60.00 1190,60.00 1191,61.00 1192,61.00 1193,61.00 1194,61.00 1195,62.00 1196,62.00 1197,61.00 1198,61.00 1199,60.00 1200,60.00 1201,60.00 1202,490.11 1203,490.21 1204,490.21 1205,496.99 1206,494.78 1207,481.36 1208,492.47 1209,492.01 1210,492.55 1211,492.56 1212,494.74 1213,494.74 1214,492.45 1215,492.25 1216,496.45 1217,495.39 1218,493.81 1219,494.31 1220,494.31 1221,490.21 1222,490.21 1223,490.21 1224,490.21 1225,490.21 1226,490.21 1227,490.21 1228,490.61 1229,493.54 1230,493.96 1231,490.97 1232,492.98 1233,492.98 1234,490.60 1235,490.60 1236,491.71 1237,492.98 1238,491.35 1239,491.35 1240,493.17 1241,493.33 1242,491.10 1243,494.08 1244,494.75 1245,491.96 1246,491.15 1247,494.92 1248,495.72 1249,491.79 1250,492.75 1251,495.62 1252,493.32 1253,491.84 1254,495.56 1255,497.11 1256,492.06 1257,493.52 1258,496.66 1259,493.67 1260,491.43 1261,493.44 1262,494.62 1263,491.93 1264,493.37 1265,495.95 1266,494.35 1267,491.20 1268,492.22 1269,493.11 1270,493.61 1271,493.92 1272,492.63 1273,493.23 1274,492.75 1275,494.58 1276,492.80 1277,491.76 1278,493.96 1279,495.30 1280,492.33 1281,493.93 1282,495.65 1283,494.20 1284,491.13 1285,489.70 1286,492.37 1287,492.77 1288,489.13 1289,491.82 1290,492.15 1291,488.73 1292,489.88 1293,490.87 1294,490.06 1295,490.11 1296,490.05 1297,61.00 1298,61.00 1299,61.00 1300,61.00 1301,61.00 1302,61.00 1303,61.00 1304,61.00 1305,61.00 1306,61.00 1307,61.00 1308,61.00 1309,61.00 1310,61.00 1311,61.00 1312,61.00 1313,61.00 1314,61.00 1315,61.00 1316,61.00 1317,61.00 1318,61.00 1319,62.00 1320,62.00 1321,61.00 1322,61.00 1323,60.00 1324,60.00 1325,61.00 1326,61.00 1327,62.00 1328,62.00 1329,62.00 1330,62.00 1331,62.00 1332,61.00 1333,61.00 1334,60.00 1335,60.00 1336,60.00 1337,60.00 1338,61.00 1339,61.00 1340,61.00 1341,60.00 1342,60.00 1343,60.00 1344,60.00 1345,60.00 1346,61.00 1347,61.00 1348,61.00 1349,61.00 1350,62.00 1351,62.00 1352,62.00 1353,61.00 1354,61.00 1355,61.00 1356,60.00 1357,60.00 1358,60.00 1359,60.00 1360,61.00 1361,61.00 1362,62.00 1363,62.00 1364,61.00 1365,61.00 1366,61.00 1367,61.00 1368,61.00 1369,62.00 1370,62.00 1371,62.00 1372,61.00 1373,61.00 1374,61.00 1375,61.00 1376,62.00 1377,62.00 1378,63.00 1379,62.00 1380,62.00 1381,61.00 1382,61.00 1383,61.00 1384,62.00 1385,62.00 1386,62.00 1387,62.00 1388,63.00 1389,63.00 1390,63.00 1391,62.00 1392,62.00 1393,62.00 1394,62.00 1395,63.00 1396,63.00 1397,64.00 1398,64.00 1399,63.00 1400,63.00 1401,63.00 1402,63.00 1403,64.00 1404,64.00 1405,65.00 1406,65.00 1407,64.00 1408,64.00 1409,64.00 1410,64.00 1411,65.00 1412,65.00 1413,65.00 1414,65.00 1415,65.00 1416,65.00 1417,65.00 1418,65.00 1419,66.00 1420,66.00 1421,66.00 1422,66.00 1423,67.00 1424,37.00 1425,4.50" fill="none" stroke="rgb(0,195,255)" stroke-width="2" stroke-linecap="round" stroke-linejoin="round" />
  <polyline points="1435,18.00 1436,51.00 1437,68.00 1438,69.00 1439,69.00 1440,69.00 1441,69.00 1442,70.00 1443,70.00 1444,70.00 1445,70.00 1446,71.00 1447,71.00 1448,71.00 1449,72.00 1450,72.00 1451,73.00 1452,73.00 1453,74.00 1454,74.00 1455,75.00 1456,75.00 1457,76.00 1458,76.00 1459,77.00 1460,77.00 1461,77.00 1462,77.00 1463,77.00 1464,78.00 1465,78.00 1466,79.00 1467,79.00 1468,79.00 1469,80.00 1470,80.00 1471,81.00 1472,81.00 1473,82.00 1474,83.00 1475,84.00 1476,84.00 1477,85.00 1478,86.00 1479,87.00 1480,88.50 1481,90.00 1482,91.00 1483,92.00 1484,93.50 1485,95.00 1486,96.00 1487,96.00 1488,96.00 1489,97.00 1490,97.50 1491,99.50 1492,101.50 1493,103.50 1494,105.50 1495,106.00 1496,106.00 1497,106.00 1498,107.00 1499,107.00 1500,108.00 1501,109.00 1502,110.00 1503,111.50 1504,113.00 1505,114.00 1506,115.00 1507,116.00 1508,117.00 1509,118.00 1510,119.00 1511,120.50 1512,122.00 1513,123.00 1514,124.00 1515,125.00 1516,126.00 1517,127.00 1518,128.00 1519,128.00 1520,129.00 1521,130.00 1522,131.50 1523,133.50 1524,135.00 1525,136.00 1526,137.00 1527,138.00 1528,139.00 1529,139.00 1530,139.00 1531,139.00 1532,139.50 1533,141.50 1534,143.50 1535,145.50 1536,147.00 1537,147.00 1538,147.00 1539,147.00 1540,147.50 1541,149.50 1542,151.50 1543,153.50 1544,155.00 1545,156.00 1546,157.00 1547,158.00 1548,159.00 1549,160.00 1550,160.00 1551,161.00 1552,162.00 1553,163.50 1554,165.00 1555,166.00 1556,167.00 1557,168.00 1558,169.00 1559,170.00 1560,171.00 1561,172.00 1562,173.00 1563,174.00 1564,175.00 1565,176.50 1566,178.00 1567,179.00 1568,180.00 1569,181.50 1570,183.00 1571,184.00 1572,184.00 1573,184.00 1574,184.00 1575,184.00 1576,185.50 1577,187.00 1578,188.50 1579,190.00 1580,191.00 1581,191.00 1582,192.00 1583,193.00 1584,193.00 1585,194.00 1586,195.00 1587,196.00 1588,197.00 1589,198.00 1590,199.00 1591,199.00 1592,199.00 1593,199.00 1594,199.00 1595,200.00 1596,200.00 1597,201.00 1598,202.00 1599,202.00 1600,203.00 1601,203.00 1602,204.00 1603,204.00 1604,204.00 1605,205.00 1606,205.00 1607,206.00 1608,207.00 1609,208.00 1610,208.00 1611,209.00 1612,209.00 1613,210.00 1614,210.00 1615,210.00 1616,211.00 1617,211.00 1618,211.00 1619,212.00 1620,212.00 1621,213.00 1622,213.00 1623,214.00 1624,214.00 1625,215.00 1626,215.00 1627,215.00 1628,215.00 1629,215.00 1630,215.00 1631,216.00 1632,216.00 1633,217.00 1634,217.00 1635,217.00 1636,218.00 1637,218.00 1638,218.00 1639,219.00 1640,219.00 1641,219.00 1642,219.00 1643,220.00 1644,220.00 1645,220.00 1646,220.00 1647,221.00 1648,221.00 1649,221.00 1650,221.00 1651,222.00 1652,222.00 1653,222.00 1654,222.00 1655,223.00 1656,223.00 1657,223.00 1658,223.00 1659,224.00 1660,224.00 1661,224.00 1662,224.00 1663,224.00 1664,224.00 1665,224.00 1666,225.00 1667,225.00 1668,225.00 1669,225.00 1670,226.00 1671,226.00 1672,226.00 1673,226.00 1674,226.00 1675,226.00 1676,226.00 1677,226.00 1678,227.00 1679,227.00 1680,227.00 1681,227.00 1682,227.00 1683,227.00 1684,227.00 1685,227.00 1686,227.00 1687,227.00 1688,227.00 1689,227.00 1690,227.00 1691,227.00 1692,227.00 1693,227.00 1694,227.00 1695,227.00 1696,227.00 1697,227.00 1698,227.00 1699,227.00 1700,227.00 1701,228.00 1702,228.00 1703,228.00 1704,227.00 1705,227.00 1706,227.00 1707,227.00 1708,227.00 1709,227.00 1710,227.00 1711,227.00 1712,227.00 1713,227.00 1714,227.00 1715,227.00 1716,227.00 1717,227.00 1718,227.00 1719,227.00 1720,227.00 1721,228.00 1722,228.00 1723,228.00 1724,228.00 1725,228.00 1726,228.00 1727,228.00 1728,228.00 1729,228.00 1730,228.00 1731,228.00 1732,228.00 1733,228.00 1734,228.00 1735,228.00 1736,228.00 1737,228.00 1738,228.00 1739,228.00 1740,228.00 1741,228.00 1742,228.00 1743,228.00 1744,228.00 1745,228.00 1746,228.00 1747,228.00 1748,228.00 1749,228.00 1750,228.00 1751,228.00 1752,228.00 1753,228.00 1754,228.00 1755,228.00 1756,119.24" fill="none" stroke="rgb(0,195,255)" stroke-width="2" stroke-linecap="round" stroke-linejoin="round" />
  <polyline points="1764,114.31 1765,223.50 1766,225.00 1767,226.50 1768,228.00 1769,228.00 1770,228.00 1771,228.00 1772,228.00 1773,228.00 1774,228.00 1775,228.00 1776,228.00 1777,228.00 1778,228.00 1779,228.00 1780,228.00 1781,228.00 1782,228.00 1783,228.00 1784,228.00 1785,228.00 1786,228.00" fill="none" stroke="rgb(0,195,255)" stroke-width="2" stroke-linecap="round" stroke-linejoin="round" />
</svg>
