<?xml version="1.0" encoding="UTF-8" standalone="no"?>
<svg xmlns="http://www.w3.org/2000/svg" width="1800" height="547" viewBox="0 0 1800 547">
  <rect width="1800" height="547" fill="white" />
  <polyline points="5,137.00 6,137.00 7,141.20 8,140.25 9,142.00 10,143.50 11,143.50 12,140.00 13,139.80 14,140.25 15,143.50 16,144.00 17,140.00 18,140.00 19,141.00 20,140.00 21,141.00 22,141.00 23,141.00 24,140.00 25,138.50 26,140.00 27,140.50 28,140.00 29,141.00 30,140.00 31,141.00 32,141.00 33,140.00 34,139.00 35,141.00 36,141.00 37,140.00 38,139.50 39,140.00 40,139.00 41,140.00 42,141.00 43,140.00 44,140.00 45,141.00 46,140.00 47,140.50 48,140.00 49,141.00 50,141.00 51,140.00 52,141.00 53,141.00 54,141.00 55,140.00 56,141.00 57,139.50 58,141.00 59,141.00 60,140.00 61,140.00 62,140.00 63,140.00 64,141.00 65,141.50 66,141.00 67,140.00 68,140.00 69,141.00 70,140.00 71,141.00 72,140.00 73,140.50 74,141.00 75,140.50 76,142.00 77,142.50 78,143.00 79,142.50 80,142.00 81,141.50 82,141.00 83,140.50 84,141.00 85,139.50 86,141.00 87,140.50 88,140.00 89,140.00 90,141.00 91,140.00 92,140.00 93,140.00 94,141.00 95,141.00 96,141.00 97,140.00 98,140.00 99,139.50 100,140.00 101,140.00 102,139.50 103,139.00 104,139.00 105,140.00 106,330.67 107,304.84 108,250.53 109,261.67 110,280.60 111,312.15 112,312.15 113,254.95 114,296.72 115,296.09 116,280.50 117,277.44 118,255.42 119,296.56 120,261.83 121,262.00 122,283.00 123,323.95 124,309.00 125,323.95 126,315.70 127,324.77 128,309.00 129,309.00 130,323.95 131,323.95 132,342.80 133,309.00 134,309.00 135,309.00 136,309.00 137,309.00 138,302.00 139,296.00 140,302.00 141,309.00 142,309.00 143,309.00 144,324.77 145,309.00 146,342.80 147,324.77 148,309.00 149,309.00 150,309.00 151,309.00 152,309.00 153,315.70 154,309.00 155,296.00 156,302.48 157,309.00 158,315.70 159,309.00 160,342.80 161,309.00 162,324.77 163,324.77 164,309.00 165,223.20 166,197.55 167,185.00 168,304.47 169,236.62 170,223.13 171,223.13 172,223.13 173,250.00 174,197.55 175,184.14 176,271.21 177,223.13 178,217.56 179,223.13 180,230.14 181,197.55 182,188.00 183,218.50 184,201.80 185,288.38 186,188.00 187,188.00 188,288.38 189,206.71 190,236.62 191,236.92 192,236.62 193,206.71 194,303.53 195,188.00 196,188.00 197,236.69 198,296.00 199,140.00 200,141.00 201,140.00 202,140.00 203,140.50 204,140.00 205,141.00 206,141.00 207,139.50 208,140.00 209,140.00 210,141.00 211,140.00 212,140.00 213,140.00 214,139.50 215,141.00 216,140.50 217,141.50 218,140.00 219,140.00 220,139.00 221,140.00 222,140.00 223,140.00 224,140.00 225,140.00 226,140.00 227,141.00 228,140.00 229,140.00 230,140.00 231,140.50 232,139.00 233,141.00 234,139.00 235,141.00 236,140.00 237,140.00 238,140.00 239,139.00 240,140.00 241,141.00 242,141.00 243,140.00 244,140.00 245,140.00 246,140.00 247,140.00 248,139.00 249,140.00 250,140.00 251,141.00 252,140.00 253,140.00 254,140.00 255,139.50 256,139.50 257,139.00 258,138.50 259,139.00 260,137.50 262,137.50 263,138.00 264,139.50 265,139.00 266,139.50 267,139.00 268,140.00 269,140.00 270,140.00 271,140.00 272,140.00 273,141.00 274,139.00 275,140.00 276,140.00 277,140.00 278,140.00 279,141.50 280,140.00 281,140.50 282,140.00 283,139.00 284,140.00 285,142.50 286,141.00 287,141.00 288,141.50 289,140.00 290,140.00 291,141.00 292,140.00 293,140.00 294,141.00 295,140.00 296,140.00 297,141.00 298,140.00 299,140.00 300,140.00 301,140.00 302,141.00 303,139.00 304,140.00 305,139.00 306,139.50 307,139.71 308,141.00 309,141.67 310,140.50 311,140.00 312,141.00 313,140.00 314,141.00 315,140.00 316,139.00 317,141.00 318,139.00 319,139.50 320,140.00 321,141.00 322,141.00 323,140.00 324,140.00 325,140.00 326,139.50 327,141.00 328,140.00 329,141.00 330,140.00 331,140.00 332,141.00 333,140.00 334,140.50 335,140.00 336,139.50 337,139.50 338,140.00 339,140.00 340,139.00 341,140.00 342,140.00 343,141.00 344,141.00 345,140.00 346,140.00 347,141.00 348,140.50 349,140.00 350,139.50 351,140.00 352,140.00 353,140.00 354,140.00 355,140.00 356,141.00 357,140.00 358,140.00 359,140.50 360,141.00 361,139.00 362,140.00 363,140.00 364,141.00 365,140.50 366,141.00 367,141.00 368,140.50 369,140.00 370,140.50 371,140.00 372,141.00 373,141.00 374,141.50 375,140.00 376,140.00 377,140.00 378,141.00 379,141.00 380,141.00 381,141.00 382,140.00 383,140.00 384,140.00 385,139.50 386,140.00 387,139.50 388,141.00 389,141.00 390,139.00 391,140.00 392,140.00 393,140.00 394,140.00 395,141.00 396,140.00 397,139.50 398,140.00 399,141.00 400,140.00 401,140.00 402,141.00 403,140.00 404,141.00 405,141.00 406,141.00 407,141.00 408,140.00 409,140.00 410,140.00 411,141.00 412,141.50 413,140.50 414,140.00 415,139.50 416,141.00 417,140.00 418,140.00 419,140.00 420,140.00 421,141.00 422,141.00 423,140.00 424,140.00 425,139.50 426,140.00 427,139.00 428,140.00 429,141.00 430,140.00 431,141.50 432,141.00 433,140.00 434,140.00 435,139.50 436,141.00 437,139.00 438,140.50 439,140.00 440,140.00 441,140.00 442,141.00 443,141.00 444,139.00 445,139.00 446,141.00 447,141.00 448,139.00 449,140.00 450,140.00 451,141.00 452,140.00 453,140.00 454,141.00 455,140.00 456,141.00 457,140.00 458,140.00 459,141.50 460,141.00 461,139.00 462,140.00 463,140.50 464,140.00 465,140.00 466,139.00 467,140.00 468,139.00 469,141.00 470,139.00 471,141.50 472,140.00 473,140.00 474,140.00 475,140.00 476,141.00 477,140.00 478,139.50 479,141.00 480,140.00 481,141.50 482,141.00 483,140.00 484,140.00 485,140.00 486,140.00 487,140.00 488,141.50 489,141.00 490,141.00 491,140.00 492,140.00 493,141.00 494,141.00 495,141.00 496,140.00 497,140.00 498,141.00 499,141.00 500,140.50 501,141.00 502,141.00 503,139.00 504,140.00 505,141.00 506,140.00 507,141.00 508,140.00 509,140.00 510,139.00 511,140.00 512,141.00 513,141.00 514,141.00 515,140.00 516,139.00 517,140.00 518,141.00 519,140.00 520,140.50 521,141.00 522,140.00 523,141.50 524,140.00 525,141.00 526,141.00 527,138.50 528,141.00 529,140.00 530,140.00 531,140.00 532,139.00 533,141.00 534,140.00 535,140.00 536,140.50 537,140.00 538,140.00 539,140.50 540,141.00 541,141.00 542,140.00 543,140.00 544,140.50 545,140.50 546,141.50 547,140.00 548,141.00 549,139.00 550,139.00 551,139.50 552,140.00 553,140.00 554,141.00 555,140.00 556,140.00 557,141.00 558,140.00 559,140.00 560,141.00 561,141.00 562,141.00 563,140.00 564,140.00 565,140.50 566,140.00 567,140.00 568,140.00 569,140.00 570,140.00 571,140.00 572,140.00 573,140.00 574,140.00 575,140.00 576,140.50 577,141.00 578,140.00 579,140.00 580,140.00 581,140.00 582,139.00 583,140.00 584,140.00 585,140.00 586,141.00 587,141.50 588,141.50 589,140.00 590,140.00 591,140.00 592,141.00 593,140.00 594,140.00 595,140.00 596,139.00 597,141.00 598,141.00 599,141.00 600,140.00 601,140.00 602,141.00 603,140.00 604,140.00 605,139.00 606,140.00 607,139.50 608,139.00 609,139.00 610,140.00 611,141.00 612,140.00 613,140.00 614,140.00 615,140.00 616,140.50 617,140.00 618,140.00 619,141.00 620,141.00 621,140.00 622,140.50 623,140.00 624,141.00 625,141.00 626,140.50 627,140.00 628,140.00 629,140.00 630,141.00 631,141.00 632,140.00 633,140.00 634,141.50 635,138.50 636,141.00 637,140.00 638,139.50 639,141.00 640,140.00 641,140.00 642,141.00 643,141.00 644,141.00 645,141.00 646,140.00 647,140.50 648,140.00 649,139.00 650,140.00 651,140.00 652,140.00 653,140.00 654,140.50 655,140.00 656,140.00 657,140.00 658,140.00 659,140.00 660,139.00 661,141.00 662,140.00 663,140.00 664,140.00 665,140.00 666,140.00 667,140.00 668,140.00 669,141.50 670,141.00 671,140.00 672,140.00 673,140.00 674,141.00 675,140.00 676,140.00 677,141.00 678,140.00 679,140.00 680,141.00 681,141.00 682,140.00 683,139.00 684,140.00 685,140.00 686,141.00 687,139.50 688,141.00 689,140.00 690,141.00 691,140.50 692,141.00 693,140.00 694,139.50 695,140.00 696,140.00 697,140.00 698,139.00 699,140.00 700,141.00 701,140.00 702,140.00 703,140.00 704,140.00 705,140.00 706,139.00 707,140.00 708,141.00 709,139.50 710,140.00 711,137.50 712,139.50 713,141.00 714,139.50 715,140.00 716,139.50 717,141.50 718,141.00 719,141.00 720,140.00 721,140.00 722,140.00 723,140.00 724,140.00 725,138.50 726,141.00 727,141.00 728,140.00 729,140.00 730,140.00 731,141.00 732,141.00 733,141.00 734,141.50 735,139.50 736,139.00 737,141.00 738,139.50 739,140.00 740,140.00 741,140.00 742,139.50 743,140.00 744,141.00 745,141.00 746,140.00 747,141.00 748,141.00 749,140.00 750,140.00 751,141.00 752,140.00 753,141.00 754,140.50 755,140.00 756,141.00 757,141.00 758,139.00 759,140.00 760,140.00 761,140.00 762,139.00 763,140.00 764,140.00 765,140.00 766,141.00 767,140.50 768,141.00 769,139.00 770,140.00 771,140.00 772,140.00 773,140.00 774,140.00 775,141.00 776,139.50 777,139.00 778,141.00 779,140.00 780,141.00 781,140.50 782,141.50 783,140.00 784,141.00 785,140.00 786,141.00 787,139.00 788,140.00 789,140.00" fill="none" stroke="rgb(255,0,128)" stroke-width="2" stroke-linecap="round" stroke-linejoin="round" />
  <polyline points="1002,314.00 1003,314.00 1004,318.20 1005,317.25 1006,319.00 1007,320.50 1008,320.50 1009,317.00 1010,316.80 1011,317.25 1012,320.50 1013,321.00 1014,317.50 1015,302.50 1016,290.00 1017,284.00 1018,305.50 1019,323.50 1020,302.50 1021,290.00 1022,305.50 1023,320.50 1024,308.50 1025,289.71 1026,292.87 1027,305.63 1028,317.50 1029,302.59 1030,289.81 1031,302.59 1032,320.50 1033,308.73 1034,286.67 1035,292.87 1036,308.67 1037,320.50 1038,305.61 1039,289.81 1040,305.65 1041,323.50 1042,320.50 1043,299.55 1044,286.67 1045,302.59 1046,320.50 1047,302.57 1048,289.78 1049,305.61 1050,320.50 1051,320.50 1052,302.59 1053,289.81 1054,305.65 1055,323.50 1056,305.63 1057,286.67 1058,299.56 1059,323.50 1060,320.50 1061,305.64 1062,286.67 1063,305.63 1064,320.50 1065,308.69 1066,286.67 1067,286.67 1068,305.65 1069,320.50 1070,302.57 1071,286.63 1072,302.57 1073,320.50 1074,302.59 1075,289.71 1076,289.71 1077,308.69 1078,320.50 1079,305.63 1080,286.67 1081,305.63 1082,320.50 1083,320.50 1084,298.02 1085,286.67 1086,305.64 1087,320.50 1088,308.67 1089,289.81 1090,302.59 1091,320.50 1092,320.50 1093,299.55 1094,286.67 1095,302.59 1096,317.50 1097,302.59 1098,286.63 1099,296.48 1100,320.50 1101,323.50 1102,446.41 1103,445.40 1104,423.31 1105,450.98 1106,411.18 1107,423.54 1108,435.02 1109,426.62 1110,447.77 1111,412.82 1112,428.69 1113,431.12 1114,448.84 1115,414.92 1116,442.27 1117,435.25 1118,424.25 1119,453.14 1120,415.84 1121,440.32 1122,421.79 1123,458.60 1124,427.49 1125,438.68 1126,446.53 1127,427.48 1128,453.05 1129,427.13 1130,446.26 1131,421.41 1132,446.32 1133,446.59 1134,419.10 1135,446.02 1136,424.13 1137,450.93 1138,415.12 1139,446.54 1140,426.77 1141,450.64 1142,457.85 1143,420.65 1144,443.47 1145,416.32 1146,452.16 1147,420.92 1148,454.03 1149,429.16 1150,452.34 1151,452.14 1152,419.94 1153,446.96 1154,417.21 1155,464.69 1156,424.14 1157,438.66 1158,436.54 1159,419.17 1160,440.69 1161,427.76 1162,473.40 1163,419.38 1164,449.08 1165,418.15 1166,435.57 1167,432.30 1168,418.60 1169,448.57 1170,415.48 1171,431.02 1172,410.07 1173,443.99 1174,407.68 1175,430.43 1176,420.00 1177,405.54 1178,450.73 1179,403.59 1180,427.66 1181,399.80 1182,440.84 1183,402.64 1184,413.69 1185,409.41 1186,442.40 1187,405.10 1188,436.77 1189,407.70 1190,441.43 1191,402.14 1192,433.42 1193,407.23 1194,447.78 1195,407.52 1196,431.78 1197,302.50 1198,317.50 1199,305.50 1200,287.00 1201,302.50 1202,320.50 1203,302.50 1204,287.00 1205,305.50 1206,320.50 1207,302.50 1208,299.50 1209,320.50 1210,302.50 1211,284.00 1212,305.50 1213,323.50 1214,299.50 1215,290.00 1216,317.50 1217,302.50 1218,287.00 1219,302.50 1220,323.50 1221,299.50 1222,299.50 1223,320.50 1224,305.50 1225,287.00 1226,308.50 1227,302.50 1228,290.00 1229,305.50 1230,320.50 1231,296.50 1232,302.50 1233,320.50 1234,302.50 1235,305.50 1236,320.50 1237,302.50 1238,302.50 1239,320.50 1240,305.50 1241,287.00 1242,308.50 1243,305.50 1244,293.00 1245,302.50 1246,302.50 1247,287.00 1248,308.50 1249,308.50 1250,290.00 1251,305.50 1252,305.50 1253,290.00 1254,302.50 1255,305.50 1256,287.00 1257,302.50 1258,305.50 1259,287.00 1260,308.50 1261,302.50 1262,296.50 1263,323.50 1264,302.50 1265,305.50 1266,320.50 1267,302.50 1268,302.50 1269,320.50 1270,302.50 1271,305.50 1272,322.50 1273,291.50 1274,305.50 1275,308.50 1276,287.00 1277,305.50 1278,305.50 1279,290.00 1280,311.50 1281,305.50 1282,305.50 1283,323.50 1284,302.50 1285,305.50 1286,299.50 1287,284.00 1288,305.50 1289,302.50 1290,287.00 1291,302.50 1292,302.50 1293,302.50 1294,317.50 1295,296.50 1296,302.50 1297,308.50 1298,287.00 1299,305.50 1300,302.50 1301,299.50 1302,317.50 1303,299.50 1304,302.50 1305,302.50 1306,290.00 1307,302.50 1308,302.50 1309,299.50 1310,323.50 1311,299.50 1312,308.50 1313,305.50 1314,290.00 1315,308.50 1316,308.50 1317,305.50 1318,320.50 1319,299.50 1320,305.50 1321,302.50 1322,299.50 1323,320.50 1324,305.50 1325,302.50 1326,305.50 1327,290.00 1328,305.50 1329,302.50 1330,302.50 1331,305.50 1332,287.00 1333,302.50 1334,305.50 1335,302.50 1336,323.50 1337,299.50 1338,305.50 1339,302.50 1340,302.50 1341,323.50 1342,302.50 1343,305.50 1344,305.50 1345,302.50 1346,323.50 1347,302.50 1348,305.50 1349,308.50 1350,296.50 1351,320.50 1352,305.50 1353,302.50 1354,308.50 1355,287.00 1356,311.50 1357,305.50 1358,302.50 1359,308.50 1360,287.00 1361,311.50 1362,302.50 1363,305.50 1364,308.50 1365,290.00 1366,308.50 1367,302.50 1368,308.50 1369,305.50 1370,287.00 1371,311.50 1372,302.50 1373,302.50 1374,302.50 1375,293.00 1376,311.50 1377,308.50 1378,302.50 1379,302.50 1380,290.00 1381,315.00 1382,302.50 1383,302.50 1384,305.50 1385,302.50 1386,323.50 1387,302.50 1388,308.50 1389,305.50 1390,299.50 1391,320.50 1392,305.50 1393,302.50 1394,305.50 1395,305.50 1396,323.50 1397,302.50 1398,302.50 1399,305.50 1400,299.50 1401,323.50 1402,302.50 1403,302.50 1404,305.50 1405,302.50 1406,317.29 1407,301.80 1408,301.46 1409,301.12 1410,297.29 1411,310.00 1412,294.50 1413,299.50 1414,295.49 1415,292.00 1416,320.14 1417,301.12 1418,307.76 1419,301.80 1420,305.22 1421,317.50 1422,299.50 1423,305.50 1424,305.50 1425,296.50 1426,320.50 1427,302.50 1428,308.50 1429,302.50 1430,299.50 1431,320.50 1432,302.50 1433,302.50 1434,302.50 1435,302.50 1436,317.50 1437,299.50 1438,302.50 1439,299.50 1440,302.50 1441,320.50 1442,299.50 1443,305.50 1444,302.50 1445,305.50 1446,320.50 1447,299.50 1448,305.50 1449,302.50 1450,299.50 1451,320.50 1452,302.50 1453,305.50 1454,308.50 1455,299.50 1456,323.50 1457,302.50 1458,305.50 1459,302.50 1460,305.50 1461,317.50 1462,296.50 1463,308.50 1464,305.50 1465,302.50 1466,323.50 1467,302.50 1468,302.50 1469,305.50 1470,302.50 1471,323.50 1472,299.50 1473,305.50 1474,302.50 1475,308.50 1476,320.50 1477,302.50 1478,305.50 1479,308.50 1480,302.50 1481,317.50 1482,299.50 1483,305.50 1484,305.50 1485,302.50 1486,323.50 1487,290.00 1488,305.50 1489,302.50 1490,302.50 1491,311.50 1492,287.00 1493,305.50 1494,305.50 1495,299.50 1496,308.50 1497,287.00 1498,308.50 1499,305.50 1500,302.50 1501,302.50 1502,293.00 1503,302.50 1504,305.50 1505,302.50 1506,308.50 1507,287.00 1508,305.50 1509,302.50 1510,305.50 1511,308.50 1512,290.00 1513,305.50 1514,305.50 1515,302.50 1516,308.50 1517,287.00 1518,308.50 1519,305.50 1520,302.50 1521,305.50 1522,287.00 1523,302.50 1524,305.50 1525,302.50 1526,308.50 1527,293.00 1528,305.50 1529,302.50 1530,302.50 1531,311.50 1532,290.00 1533,308.50 1534,305.50 1535,302.50 1536,305.50 1537,284.00 1538,305.50 1539,302.50 1540,299.50 1541,308.50 1542,290.00 1543,305.50 1544,305.50 1545,308.50 1546,305.50 1547,287.00 1548,305.50 1549,302.50 1550,302.50 1551,308.50 1552,287.00 1553,308.50 1554,305.50 1555,302.50 1556,308.50 1557,287.00 1558,305.50 1559,302.50 1560,305.50 1561,305.50 1562,287.00 1563,308.50 1564,305.50 1565,302.50 1566,305.50 1567,287.00 1568,311.50 1569,302.50 1570,302.50 1571,302.50 1572,287.00 1573,305.50 1574,305.50 1575,299.50 1576,305.50 1577,287.00 1578,308.50 1579,302.50 1580,302.50 1581,305.50 1582,290.00 1583,308.50 1584,302.50 1585,305.50 1586,308.50 1587,290.00 1588,311.50 1589,299.50 1590,305.50 1591,305.50 1592,287.00 1593,314.50 1594,296.50 1595,299.50 1596,299.50 1597,296.50 1598,320.50 1599,302.50 1600,302.50 1601,305.50 1602,302.50 1603,323.50 1604,305.50 1605,305.50 1606,305.50 1607,296.50 1608,323.50 1609,302.50 1610,305.50 1611,302.50 1612,302.50 1613,320.50 1614,308.50 1615,308.50 1616,305.50 1617,299.50 1618,320.50 1619,299.50 1620,305.50 1621,305.50 1622,302.50 1623,320.50 1624,302.50 1625,305.50 1626,308.50 1627,305.50 1628,317.50 1629,302.50 1630,305.50 1631,305.50 1632,302.50 1633,317.50 1634,302.50 1635,302.50 1636,305.50 1637,302.50 1638,320.50 1639,308.50 1640,308.50 1641,305.50 1642,305.50 1643,323.50 1644,305.50 1645,302.50 1646,305.50 1647,302.50 1648,317.50 1649,302.50 1650,308.50 1651,305.50 1652,302.50 1653,323.50 1654,302.50 1655,305.50 1656,302.50 1657,305.50 1658,317.50 1659,302.50 1660,308.50 1661,302.50 1662,305.50 1663,323.50 1664,302.50 1665,305.50 1666,302.50 1667,299.50 1668,317.50 1669,302.50 1670,305.50 1671,302.50 1672,305.50 1673,320.50 1674,302.50 1675,305.50 1676,305.50 1677,302.50 1678,317.50 1679,299.50 1680,308.50 1681,305.50 1682,305.50 1683,323.50 1684,302.50 1685,308.50 1686,305.50 1687,299.50 1688,317.50 1689,299.50 1690,305.50 1691,305.50 1692,302.50 1693,320.50 1694,293.50 1695,305.50 1696,308.50 1697,302.50 1698,317.50 1699,290.00 1700,302.50 1701,302.50 1702,302.50 1703,308.50 1704,287.00 1705,305.50 1706,302.50 1707,305.50 1708,305.50 1709,280.50 1710,305.50 1711,302.50 1712,302.50 1713,305.50 1714,284.00 1715,302.50 1716,302.50 1717,302.50 1718,308.50 1719,287.00 1720,308.50 1721,308.50 1722,302.50 1723,308.50 1724,287.00 1725,308.50 1726,302.50 1727,305.50 1728,308.50 1729,287.00 1730,305.50 1731,305.50 1732,302.50 1733,305.50 1734,287.00 1735,311.50 1736,302.50 1737,302.50 1738,305.50 1739,293.00 1740,305.50 1741,299.50 1742,305.50 1743,305.50 1744,287.00 1745,305.50 1746,308.50 1747,302.50 1748,308.50 1749,287.00 1750,308.50 1751,308.50 1752,305.50 1753,305.50 1754,287.00 1755,308.50 1756,305.50 1757,305.50 1758,305.50 1759,287.00 1760,308.50 1761,305.50 1762,308.50 1763,302.50 1764,284.00 1765,308.50 1766,305.50 1767,302.50 1768,305.50 1769,287.00 1770,305.50 1771,305.50 1772,302.50 1773,305.50 1774,290.00 1775,305.50 1776,308.50 1777,302.50 1778,305.50 1779,287.00 1780,311.50 1781,302.50 1782,305.50 1783,305.50 1784,287.00 1785,305.50 1786,305.50" fill="none" stroke="rgb(255,0,128)" stroke-width="2" stroke-linecap="round" stroke-linejoin="round" />
  <polyline points="5,494.50 6,499.75 7,499.45 8,498.04 9,491.22 10,492.38 11,497.95 12,497.62 13,498.52 14,499.45 15,499.52 16,498.10 17,497.43 18,498.46 19,498.14 20,499.60 21,500.85 22,500.85 23,500.85 24,500.85 25,500.85 26,500.85 27,500.85 28,500.85 29,500.85 30,500.85 31,500.85 32,500.85 33,500.85 34,500.85 35,501.28 36,502.62 37,502.40 38,501.57 39,502.04 40,502.52 41,501.28 42,501.76 43,502.86 44,502.59 45,500.36 46,504.43 47,505.81 48,504.43 49,502.45 50,503.62 51,503.66 52,502.59 53,504.28 54,506.00 55,505.20 56,503.50 57,505.81 58,505.08 59,502.08 60,500.08 61,496.84 62,491.58 63,493.45 64,506.24 65,504.72 66,498.90 67,498.43 68,499.43 69,497.52 70,497.68 71,501.44 72,500.36 73,498.81 74,500.04 75,503.41 76,498.03 77,495.61 78,499.32 79,499.64 80,499.89 81,499.34 82,500.37 83,496.81 84,501.29 85,500.33 86,496.25 87,496.68 88,503.08 89,504.45 90,502.16 91,502.75 92,504.88 93,501.55 94,496.47 95,500.62 96,499.64 97,499.87 98,500.49 99,494.21" fill="none" stroke="rgb(112,104,160)" stroke-width="2" stroke-linecap="round" stroke-linejoin="round" />
  <polyline points="105,494.50 106,499.75 107,499.45 108,498.04 109,491.22 110,492.38 111,497.95 112,497.62 113,498.52 114,499.45 115,499.52 116,498.10 117,497.43 118,498.46 119,498.14 120,499.60 121,500.85 122,500.85 123,500.85 124,500.85 125,500.85 126,500.85 127,500.85 128,500.85 129,500.85 130,500.85 131,500.85 132,500.85 133,500.85 134,500.85 135,501.78 136,502.32 137,502.28 138,501.77 139,502.36 140,502.40 141,501.29 142,501.56 143,502.59 144,502.86 145,501.32 146,504.13 147,506.15 148,504.79 149,502.45 150,503.62 151,503.66 152,502.59 153,504.28 154,506.00 155,505.20 156,503.50 157,505.81 158,505.99 159,503.75 160,502.14 161,502.82 162,501.24 163,503.23 164,506.54 165,504.89 166,499.64 167,494.80 168,495.93 169,494.57 170,501.99 171,502.28 172,500.74 173,501.69 174,503.65 175,502.55 176,499.94 177,495.81 178,494.52 179,493.24 180,501.59 181,503.01 182,503.12 183,501.63 184,497.87 185,496.24 186,493.60 187,503.24 188,505.04 189,507.86 190,505.46 191,503.90 192,502.22 193,499.74 194,498.44 195,500.62 196,498.78 197,500.62 198,502.52 199,496.91" fill="none" stroke="rgb(112,104,160)" stroke-width="2" stroke-linecap="round" stroke-linejoin="round" />
  <polyline points="305,494.50 306,499.75 307,499.45 308,498.04 309,491.22 310,492.38 311,497.95 312,497.62 313,498.52 314,499.45 315,499.52 316,498.10 317,497.43 318,498.46 319,498.14 320,499.60 321,500.85 322,500.85 323,500.85 324,500.85 325,500.85 326,500.85 327,500.85 328,500.85 329,500.85 330,500.85 331,501.07 332,501.07 333,501.07 334,501.07 335,501.78 336,502.32 337,502.28 338,501.77 339,502.36 340,502.40 341,501.29 342,501.35 343,502.89 344,502.31 345,501.55 346,502.55 347,503.06 348,503.00 349,504.76 350,505.01 351,505.01 352,501.76 353,504.28 354,506.00 355,505.20 356,503.50 357,505.81 358,505.99 359,503.75 360,502.59 361,503.27 362,501.68 363,503.68 364,504.95 365,503.11 366,497.82 367,500.01 368,495.93 369,494.57 370,501.22 371,502.03 372,500.12 373,501.03 374,501.15 375,499.31 376,496.86 377,498.64 378,498.29 379,498.59 380,501.45 381,500.24 382,498.27 383,496.72 384,501.96 385,499.42 386,495.19 387,499.73 388,505.01 389,507.61 390,505.00 391,503.42 392,502.51 393,500.12 394,498.24 395,500.62 396,498.86 397,500.37 398,502.33 399,496.58" fill="none" stroke="rgb(112,104,160)" stroke-width="2" stroke-linecap="round" stroke-linejoin="round" />
  <polyline points="412,473.00 416,476.00 417,476.00 418,474.50 420,473.00 421,472.00 422,471.00 423,467.00" fill="none" stroke="rgb(112,104,160)" stroke-width="2" stroke-linecap="round" stroke-linejoin="round" />
  <polyline points="584,466.50 585,471.33 586,471.90 587,470.25 588,470.80 589,471.71 590,470.88 591,469.92 592,471.90 593,472.58 594,472.17 595,472.17 596,471.68 597,470.12 598,469.65 599,472.00 600,470.56 601,469.14 602,470.96 603,471.68 604,470.12 605,469.65 606,472.00 607,470.56 608,469.14 609,470.96 610,472.58 611,472.58 612,472.58 613,469.14 614,469.14 615,469.14 616,470.68 617,470.58 618,470.96 619,470.12 620,469.14 621,469.14 622,469.14 623,472.20 624,470.92 625,470.25 626,471.37 627,471.68 628,471.04 629,470.00 630,471.46 631,472.58 632,472.86 633,474.33 634,474.16 635,473.21 636,473.58 637,474.00 638,472.86 639,473.18 640,474.21 641,474.52 642,472.97 643,473.92 644,474.86 645,473.65 646,472.58 647,472.63 648,472.63 649,473.18 650,474.00 651,474.14 652,469.35 653,469.94 654,470.62 655,473.65 656,471.68 657,470.12 658,470.38 659,473.27 660,471.56 661,469.33 662,472.05 663,473.92 664,473.92 665,472.83 666,469.67 667,469.67 668,469.18 669,471.09 670,471.40 671,471.52 672,470.43 673,469.50 674,469.26 675,469.00 676,473.48 677,472.55 678,471.32 679,472.48 680,472.29 681,471.29 682,470.40 683,473.58 684,473.42 685,471.06 686,472.59 687,472.83 688,470.78 689,472.18 690,472.13 691,470.43 692,470.92 693,466.54 698,504.00 699,466.50 700,473.09 701,469.10 702,469.71 703,470.33 704,472.50 705,472.24 706,472.78 707,473.10 708,472.35 709,473.60 710,472.38 711,473.28 712,472.75 713,472.30 714,469.39 715,469.25 716,472.17 717,469.56 718,470.91 719,472.53 720,470.50 721,467.85 722,469.24 723,472.17 724,471.06 725,471.13 726,472.79 727,471.71 728,471.12 729,471.81 730,473.26 731,473.92 732,473.07 733,472.58 734,472.58 735,472.58 736,472.58 737,472.58 738,472.58 739,472.58 740,472.58 741,472.58 742,472.58 743,472.58 744,472.58 745,472.58 746,472.58 747,472.58 748,472.58 749,472.58 750,472.58 751,472.58 752,469.14 753,469.14 754,469.14 755,471.89 756,471.68 757,471.11 758,469.14 759,469.14 760,469.14 761,471.57 762,470.20 763,470.77 764,471.57 765,471.67 766,471.67 767,473.68 768,472.16 769,469.88 770,472.06 771,471.62 772,469.96 773,468.19 774,469.05 775,472.78 776,472.11 777,471.82 778,471.92 779,470.78 780,471.53 781,471.43 782,469.83 783,469.14 784,469.14 785,470.10 786,470.78 787,470.24 788,472.52 789,471.23 790,471.19 791,472.32 792,469.71 793,465.46" fill="none" stroke="rgb(112,104,160)" stroke-width="2" stroke-linecap="round" stroke-linejoin="round" />
  <polyline points="1002,494.50 1003,499.75 1004,499.45 1005,498.04 1006,491.22 1007,492.38 1008,497.95 1009,497.62 1010,498.52 1011,499.45 1012,499.52 1013,498.10 1014,497.43 1015,498.46 1016,498.14 1017,499.60 1018,500.85 1019,500.85 1020,500.85 1021,500.85 1022,500.85 1023,500.85 1024,500.85 1025,500.85 1026,500.85 1027,500.85 1028,500.85 1029,501.56 1030,502.59 1031,502.86 1032,501.32 1033,502.32 1034,503.14 1035,502.06 1036,500.85 1037,501.03 1038,501.03 1039,501.56 1040,502.59 1041,502.86 1042,500.14 1043,504.13 1044,506.15 1045,504.79 1046,503.25 1047,505.51 1048,505.89 1049,502.12 1050,502.32 1051,503.56 1052,502.44 1053,502.06 1054,503.81 1055,504.00 1056,501.70 1057,504.57 1058,506.51 1059,503.53 1060,502.58 1061,503.70 1062,502.59 1063,498.64 1064,500.17 1065,496.58 1066,495.93 1067,501.00 1068,501.54 1069,500.19 1070,501.22 1071,502.86 1072,499.98 1073,500.22 1074,501.81 1075,498.33 1076,497.46 1077,503.37 1078,502.31 1079,501.33 1080,499.53 1081,501.53 1082,496.37 1083,495.65 1084,499.59 1085,503.97 1086,505.21 1087,505.22 1088,504.36 1089,502.16 1090,499.80 1091,498.73 1092,500.66 1093,498.86 1094,500.37 1095,502.33 1096,496.58" fill="none" stroke="rgb(112,104,160)" stroke-width="2" stroke-linecap="round" stroke-linejoin="round" />
  <polyline points="1209,473.00 1213,476.00 1214,476.00 1215,474.50 1217,473.00 1218,472.00 1219,471.00 1220,467.00" fill="none" stroke="rgb(112,104,160)" stroke-width="2" stroke-linecap="round" stroke-linejoin="round" />
  <polyline points="1581,466.50 1582,471.33 1583,472.58 1584,472.37 1585,472.17 1586,469.14 1587,469.14 1588,469.14 1589,472.58 1590,471.68 1591,470.12 1592,469.65 1593,472.00 1594,470.56 1595,469.14 1596,470.96 1597,472.58 1598,472.17 1599,472.17 1600,471.68 1601,470.12 1602,469.65 1603,472.00 1604,470.56 1605,469.14 1606,470.96 1607,472.58 1608,472.58 1609,472.58 1610,469.14 1611,469.14 1612,469.14 1613,470.68 1614,470.58 1615,470.96 1616,470.12 1617,469.14 1618,469.14 1619,469.14 1620,472.20 1621,470.92 1622,470.25 1623,471.37 1624,471.68 1625,471.04 1626,470.00 1627,471.46 1628,472.58 1629,473.33 1630,473.92 1631,473.80 1632,473.30 1633,474.04 1634,474.16 1635,472.90 1636,473.18 1637,474.21 1638,474.52 1639,472.97 1640,473.92 1641,474.86 1642,473.65 1643,472.58 1644,472.63 1645,472.63 1646,472.46 1647,471.59 1648,472.59 1649,472.08 1650,472.05 1651,471.67 1652,472.92 1653,471.68 1654,470.12 1655,470.38 1656,473.27 1657,471.56 1658,469.33 1659,472.05 1660,473.92 1661,473.92 1662,472.83 1663,469.67 1664,469.67 1665,469.18 1666,471.09 1667,471.40 1668,471.52 1669,470.43 1670,469.50 1671,469.26 1672,469.00 1673,473.48 1674,472.55 1675,471.32 1676,472.48 1677,472.29 1678,471.29 1679,470.40 1680,473.58 1681,473.42 1682,471.06 1683,472.59 1684,472.83 1685,470.78 1686,472.18 1687,472.13 1688,470.43 1689,470.92 1690,466.54 1691,504.00 1693,502.00 1696,466.50 1697,471.33 1698,469.10 1699,469.71 1700,470.33 1701,472.50 1702,472.24 1703,472.78 1704,473.10 1705,472.35 1706,473.60 1707,472.38 1708,473.28 1709,472.75 1710,472.30 1711,469.39 1712,469.25 1713,472.17 1714,469.56 1715,470.91 1716,472.53 1717,470.50 1718,467.85 1719,469.24 1720,472.17 1721,471.06 1722,471.13 1723,472.79 1724,471.71 1725,471.12 1726,471.81 1727,473.26 1728,473.92 1729,473.07 1730,472.58 1731,472.58 1732,472.58 1733,472.58 1734,472.58 1735,472.58 1736,472.58 1737,472.58 1738,472.58 1739,472.58 1740,472.58 1741,472.58 1742,472.58 1743,472.58 1744,472.58 1745,472.58 1746,472.58 1747,472.58 1748,472.58 1749,472.58 1750,472.58 1751,472.58 1752,472.58 1753,472.58 1754,472.58 1755,469.14 1756,469.33 1757,469.60 1758,474.45 1759,474.45 1760,473.94 1761,471.35 1762,471.89 1763,471.59 1764,469.78 1765,471.40 1766,472.38 1767,471.96 1768,470.60 1769,473.74 1770,473.79 1771,470.42 1772,471.75 1773,473.10 1774,471.82 1775,471.88 1776,470.41 1777,471.14 1778,470.22 1779,469.83 1780,469.14 1781,469.14 1782,470.10 1783,470.78 1784,470.24 1785,472.52 1786,471.23 1787,471.19 1788,472.32 1789,469.71 1790,465.46" fill="none" stroke="rgb(112,104,160)" stroke-width="2" stroke-linecap="round" stroke-linejoin="round" />
  <polyline points="5,385.00 6,387.53 7,347.86 8,373.33 9,380.77 10,390.00 11,390.20 12,389.71 13,363.61 14,382.41 15,397.00 16,413.30 17,310.45 18,295.68 19,292.04 20,179.44 21,288.36 22,288.36 23,288.36 24,269.12 25,312.35 26,288.36 27,288.36 28,288.36 29,288.36 30,269.12 31,269.12 32,269.12 33,288.36 34,288.36 35,269.12 36,288.36 37,288.36 38,288.36 39,260.72 40,288.36 41,288.36 42,269.12 43,269.12 44,288.36 45,260.24 46,288.36 47,288.36 48,288.36 49,269.12 50,269.12 51,288.36 52,288.36 53,288.36 54,260.24 55,312.35 56,288.36 57,269.12 58,277.87 59,277.87 60,277.87 61,277.87 62,277.87 63,269.12 64,288.36 65,175.08 66,109.57 67,109.57 68,242.81 69,159.33 70,159.33 71,175.00 72,165.86 73,211.87 74,124.73 75,114.38 76,297.15 77,228.56 78,126.21 79,268.43 80,237.62 81,145.57 82,129.88 83,150.70 84,138.64 85,260.44 86,107.60 87,107.60 88,274.71 89,138.73 90,164.92 91,165.25 92,164.92 93,138.73 94,260.44 95,107.60 96,117.56 97,165.00 98,270.74 99,22.00 100,23.00 101,21.50 102,21.50 103,23.00 104,22.50 105,21.50 106,22.50 107,22.00 108,22.00 109,22.00 110,22.00 111,21.50 112,21.50 113,21.50 114,22.00 115,22.00 116,22.00 117,21.50 118,21.50 119,21.50 120,21.50 121,21.50 122,21.50 123,21.50 124,21.50 125,22.50 126,22.00 127,22.00 128,22.00 129,22.00 130,22.00 131,22.00 132,21.50 133,21.50 134,21.50 135,21.50 136,21.50 137,21.50 138,21.50 139,21.50 140,21.50 141,22.00 142,21.50 143,21.50 144,21.50 145,21.50 146,21.50 147,22.50 148,21.50 149,22.00 150,21.50 151,22.00 152,21.50 153,21.50 154,22.00 155,22.00 156,22.00 157,21.50 158,22.00 159,22.00 160,21.50 161,23.00 162,21.50 163,22.00 164,21.50 165,21.50 166,21.50 167,22.00 168,22.50 169,21.50 170,21.50 171,21.50 172,22.00 173,21.50 174,21.50 175,21.50 176,23.00 177,21.50 178,21.50 179,21.50 180,21.50 181,21.50 182,21.50 183,21.50 184,22.00 185,22.00 186,22.00 187,21.50 188,21.50 189,21.50 190,22.00 191,21.50 192,21.50 193,21.50 194,21.50 195,22.00 196,21.50 197,21.50 198,21.50 199,21.50 200,21.50 201,22.00 202,21.50 203,21.50 204,21.50 205,22.00 206,21.50 207,21.50 208,21.50 209,21.50 210,23.00 211,21.50 212,22.50 213,21.50 214,21.50 215,21.50 216,22.00 217,21.50 218,21.50 219,21.50 220,21.50 221,21.50 222,22.50 223,21.50 224,21.50 225,21.50 226,22.00 227,22.00 228,21.50 229,21.50 230,21.50 231,22.00 232,21.50 233,21.50 234,21.50 235,57.22 236,57.22 237,49.82 238,57.22 239,62.12 240,57.22 241,85.70 242,85.70 243,62.25 244,51.73 245,81.09 246,57.22 247,62.12 248,93.44 249,55.00 250,51.64 251,93.22 252,85.70 253,81.27 254,57.33 255,85.90 256,101.75 257,74.83 258,112.43 259,84.40 260,148.40 262,180.50 263,210.30 264,201.42 265,220.67 266,154.62 267,142.79 268,186.30 269,88.00 270,142.23 271,128.25 272,164.79 273,109.09 274,86.00 275,149.28 276,82.45 277,94.83 278,104.38 279,119.27 280,83.20 281,88.50 282,119.50 283,73.45 284,80.08 285,58.30 286,97.00 287,80.17 288,68.55 289,100.13 290,58.33 291,53.90 292,100.50 293,52.50 294,69.31 295,50.00 296,70.50 297,60.91 298,64.30 299,59.27 300,48.70 301,53.08 302,52.38 303,70.92 304,46.50 305,46.10 306,54.91 307,61.17 308,34.78 309,66.31 310,44.10 311,55.00 312,35.88 313,73.12 314,61.45 315,65.33 316,31.73 317,44.56 318,48.25 319,48.64 320,46.75 321,43.22 322,40.30 323,46.73 324,30.73 325,48.70 326,45.91 327,45.09 328,38.50 329,31.00 330,38.30 331,37.90 332,30.67 333,54.92 334,39.67 335,42.64 336,30.22 337,44.80 338,42.09 339,45.50 340,41.82 341,40.50 342,29.80 343,35.30 344,33.67 345,42.10 346,29.22 347,52.53 348,34.90 349,34.50 350,39.36 351,44.36 352,29.75 353,35.67 354,42.17 355,38.00 356,28.11 357,44.00 358,35.00 359,32.90 360,33.10 361,38.50 362,28.75 363,27.56 364,32.73 365,32.30 366,31.90 367,33.44 368,27.44 369,31.90 370,28.50 371,37.00 372,28.50 373,35.27 374,27.00 375,31.10 376,27.88 377,26.78 378,26.78 379,28.00 380,31.27 381,35.80 382,26.67 383,30.70 384,32.11 385,30.50 386,26.56 387,30.89 388,35.50 389,35.20 390,31.85 391,29.90 392,29.70 393,31.44 394,31.22 395,26.22 396,26.11 397,31.00 398,26.11 399,26.11 400,27.12 401,29.85 402,25.89 403,26.00 404,29.50 405,444.25 406,448.69 407,452.26 408,447.91 409,436.63 410,438.23 411,425.39 412,433.90 413,446.51 414,444.20 415,417.61 416,442.89 417,444.01 418,445.64 419,454.85 420,438.69 421,446.38 422,453.10 423,449.35 424,445.04 425,441.74 426,456.10 427,456.14 428,440.94 429,445.00 430,455.77 431,451.95 432,448.53 433,448.38 434,452.15 435,448.56 436,444.79 437,452.12 438,452.42 439,448.56 440,448.53 441,448.45 442,452.45 443,452.10 444,451.94 445,455.65 446,440.86 447,451.09 448,451.00 449,452.39 450,452.12 451,455.54 452,441.63 453,447.78 454,442.69 455,447.55 456,440.63 457,452.10 458,459.54 459,438.46 460,448.94 461,442.89 462,444.76 463,431.17 464,454.46 465,460.24 466,454.34 467,453.40 468,454.44 469,453.48 470,448.49 471,444.11 472,457.33 473,449.95 474,445.10 475,449.43 476,441.61 477,439.19 478,448.94 479,443.53 480,430.17 481,450.56 482,454.84 483,435.42 484,439.02 485,448.51 486,437.49 487,437.21 488,447.95 489,439.42 490,445.20 491,449.64 492,438.08 493,432.13 494,447.70 495,450.16 496,441.23 497,441.49 498,442.38 499,440.74 500,31.50 501,31.64 502,27.10 503,25.62 504,27.10 505,25.62 506,27.10 507,25.62 508,27.10 509,25.62 510,30.83 511,25.33 512,25.38 513,24.67 514,29.27 515,27.00 516,30.83 517,34.80 518,25.50 519,28.11 520,27.00 521,28.11 522,25.50 523,27.89 524,29.27 525,24.78 526,24.67 527,29.00 528,28.33 529,26.90 530,25.38 531,30.17 532,29.75 533,27.50 534,29.00 535,26.83 536,24.91 537,25.38 538,29.00 539,24.67 540,28.73 541,26.67 542,25.25 543,24.44 544,26.90 545,27.89 546,24.67 547,27.82 548,25.70 549,27.64 550,24.56 551,24.67 552,27.89 553,24.56 554,27.64 555,27.10 556,29.80 557,30.00 558,27.00 559,24.56 560,24.44 561,26.90 562,26.90 563,23.09 564,26.90 565,26.62 566,25.25 567,26.70 568,27.10 569,24.44 570,24.44 571,26.70 572,33.31 573,26.90 574,24.56 575,29.25 576,28.45 577,27.10 578,28.73 579,25.25 580,24.56 581,27.89 582,30.10 583,26.38 584,25.25 585,26.90 586,27.67 587,24.56 588,27.67 589,29.80 590,28.45 591,29.50 592,33.25 593,25.60 594,26.70 595,29.80 596,24.82 597,24.56 598,25.25 599,26.67 600,24.33 601,28.73 602,32.29 603,26.70 604,28.18 605,25.25 606,24.44 607,29.00 608,24.56 609,31.69 610,26.90 611,28.11 612,30.67 613,27.64 614,28.45 615,27.10 616,27.89 617,29.50 618,27.89 619,28.45 620,27.00 621,28.73 622,25.12 623,26.90 624,27.45 625,26.90 626,29.00 627,24.56 628,28.45 629,24.33 630,28.45 631,27.10 632,29.50 633,28.45 634,27.45 635,24.44 636,29.50 637,27.10 638,25.38 639,26.90 640,30.55 641,24.33 642,27.45 643,30.17 644,27.44 645,25.25 646,27.67 647,24.82 648,26.70 649,25.25 650,28.15 651,29.25 652,31.58 653,35.50 654,25.25 655,27.44 656,26.50 657,25.36 658,27.10 659,27.10 660,32.64 661,30.23 662,26.70 663,27.67 664,32.64 665,27.89 666,29.20 667,26.70 668,24.56 669,26.70 670,31.27 671,27.67 672,24.33 673,25.25 674,28.45 675,26.70 676,26.70 677,31.88 678,24.67 679,27.89 680,24.38 681,27.67 682,29.83 683,27.31 684,29.50 685,25.38 686,28.45 687,26.70 688,28.18 689,26.90 690,26.50 691,30.17 692,24.33 693,26.70 694,31.27 695,24.33 696,24.44 697,24.82 698,30.17 699,31.27 700,27.17 701,30.17 702,25.25 703,25.25 704,32.64 705,26.70 706,25.25 707,27.27 708,27.67 709,27.89 710,29.00 711,31.93 712,25.25 713,26.50 714,24.25 715,34.50 716,26.80 717,26.90 718,27.89 719,26.50 720,27.67 721,28.73 722,25.25 723,24.82 724,24.33 725,27.67 726,24.33 727,24.33 728,28.45 729,28.11 730,29.83 731,25.25 732,28.45 733,23.00 734,26.90 735,30.44 736,26.00 737,26.14 738,32.38 739,25.86 740,28.50 741,25.86 742,30.29 743,30.00 744,27.33 745,32.00 746,25.86 747,27.33 748,25.86 749,30.44 750,26.11 751,28.75 752,35.50 753,33.00 754,30.00 755,28.50 756,31.90 757,31.44 758,33.44 759,32.55 760,30.00 761,28.75 762,28.25 763,28.50 764,28.50 765,33.00 766,33.91 767,28.30 768,32.00 769,27.17 770,27.00 771,26.88 772,33.45 773,30.11 774,30.27 775,29.22 776,30.44 777,30.44 778,28.11 779,32.00 780,25.71 781,32.38 782,31.33 783,29.83 784,26.90 785,25.07 786,35.00 787,29.50 788,27.44 789,25.25 790,38.00 791,38.00 792,38.00 793,38.00 794,38.00 795,38.00 796,38.00 797,38.00" fill="none" stroke="rgb(173,170,0)" stroke-width="2" stroke-linecap="round" stroke-linejoin="round" />
  <polyline points="1003,411.23 1004,379.56 1005,394.89 1006,405.36 1007,412.38 1008,412.38 1009,412.38 1010,387.00 1011,405.36 1012,417.53 1013,433.57 1014,301.54 1015,301.54 1016,296.11 1017,249.88 1018,306.62 1019,306.62 1020,306.62 1021,319.50 1022,306.62 1023,306.62 1024,291.09 1025,306.62 1026,319.50 1027,291.09 1028,291.09 1029,306.62 1030,306.62 1031,306.62 1032,306.62 1033,306.62 1034,306.62 1035,306.62 1036,306.62 1037,306.62 1038,306.62 1039,319.50 1040,291.09 1041,291.09 1042,291.09 1043,291.09 1044,300.70 1045,306.62 1046,306.62 1047,319.50 1048,300.70 1049,293.52 1050,306.62 1051,291.09 1052,291.09 1053,319.50 1054,306.62 1055,281.08 1056,306.62 1057,306.62 1058,306.62 1059,291.09 1060,319.50 1061,291.09 1062,230.75 1063,217.78 1064,217.78 1065,302.04 1066,241.15 1067,241.15 1068,241.15 1069,226.11 1070,260.27 1071,217.78 1072,217.78 1073,262.25 1074,230.71 1075,230.71 1076,226.11 1077,241.15 1078,217.78 1079,217.78 1080,221.00 1081,236.50 1082,289.69 1083,217.78 1084,210.64 1085,274.87 1086,230.00 1087,230.71 1088,249.53 1089,241.15 1090,230.00 1091,289.69 1092,217.78 1093,213.11 1094,226.14 1095,280.71 1096,188.50 1097,190.50 1098,184.50 1099,187.00 1100,186.50 1101,186.50 1102,187.00 1104,188.50 1105,186.50 1106,188.50 1107,186.50 1108,188.50 1109,188.50 1111,186.50 1112,188.50 1113,190.50 1114,186.50 1115,188.50 1116,188.50 1117,185.00 1118,188.50 1119,187.00 1120,188.50 1121,188.50 1122,187.00 1123,188.50 1124,186.50 1125,186.50 1126,188.50 1127,188.50 1128,186.50 1129,188.50 1130,187.00 1131,190.50 1132,188.50 1133,188.50 1134,187.00 1135,188.50 1136,188.50 1137,186.50 1138,187.00 1139,184.50 1140,188.50 1141,187.00 1142,187.00 1143,186.50 1144,188.50 1145,188.50 1146,188.50 1147,188.50 1148,188.50 1149,185.00 1150,186.50 1151,190.50 1152,188.50 1153,188.50 1154,188.50 1155,186.79 1156,189.50 1157,187.29 1158,187.50 1159,191.00 1160,191.50 1161,192.00 1162,191.50 1163,192.00 1164,191.50 1165,191.00 1166,190.50 1167,190.00 1168,187.06 1169,186.79 1170,187.00 1171,188.50 1172,188.50 1173,205.14 1174,234.88 1175,250.95 1176,169.54 1177,171.81 1178,157.17 1179,139.94 1180,108.50 1181,108.50 1182,108.50 1183,112.50 1184,110.50 1185,110.50 1186,112.50 1187,110.50 1188,110.50 1189,108.50 1190,110.50 1191,108.50 1192,108.50 1193,108.50 1194,108.50 1195,108.50 1196,110.50 1197,108.50 1198,112.50 1199,108.50 1200,108.50 1201,108.50 1202,110.50 1203,110.50 1204,108.50 1205,108.50 1206,110.50 1207,108.50 1208,112.50 1209,108.50 1210,108.50 1211,112.50 1212,110.50 1213,110.50 1214,108.50 1215,108.50 1216,110.50 1217,110.50 1218,108.50 1219,108.50 1220,106.50 1221,108.50 1222,110.50 1223,108.50 1224,110.50 1225,110.50 1226,108.50 1227,110.50 1228,112.50 1229,108.50 1230,108.50 1231,110.50 1232,112.50 1233,108.50 1234,110.50 1235,106.50 1236,108.50 1237,108.50 1238,110.50 1239,106.50 1240,108.50 1241,110.50 1243,108.50 1244,108.50 1245,108.50 1246,110.50 1247,110.50 1248,110.50 1250,108.50 1251,110.50 1252,108.50 1253,110.50 1254,110.50 1255,110.50 1256,108.50 1257,110.50 1258,108.50 1259,110.50 1260,112.50 1261,108.50 1262,110.50 1263,108.50 1264,108.50 1265,108.50 1266,108.50 1267,108.50 1268,108.50 1269,110.50 1270,108.50 1271,110.50 1272,110.50 1273,110.50 1274,110.50 1275,108.50 1276,110.50 1277,106.50 1278,110.50 1279,108.50 1280,110.50 1281,108.50 1282,108.50 1283,110.50 1284,112.50 1285,110.50 1286,108.50 1287,108.50 1288,108.50 1289,110.50 1290,108.50 1291,108.50 1292,108.50 1293,108.50 1294,108.50 1295,108.50 1296,108.50 1297,112.50 1298,108.50 1299,110.50 1300,110.50 1301,108.50 1302,110.50 1303,108.50 1304,108.50 1305,108.50 1306,110.50 1307,110.50 1308,108.50 1309,108.50 1310,108.50 1311,108.50 1312,110.50 1313,112.50 1314,108.50 1315,108.50 1316,108.50 1317,108.50 1318,108.50 1319,110.50 1320,108.50 1321,108.50 1322,108.50 1323,108.50 1324,110.50 1325,108.50 1326,108.50 1327,108.50 1328,108.50 1329,108.50 1330,108.50 1331,108.50 1332,110.50 1333,110.50 1334,110.50 1335,108.50 1336,112.50 1337,108.50 1338,110.50 1339,108.50 1340,110.50 1341,108.50 1342,108.50 1343,110.50 1344,108.50 1345,108.50 1346,108.50 1347,110.50 1348,110.50 1349,110.50 1350,110.50 1351,108.50 1352,110.50 1353,108.50 1354,108.50 1355,108.50 1356,110.50 1357,108.50 1358,110.50 1359,110.50 1360,110.50 1361,108.50 1362,108.50 1363,108.50 1364,110.50 1365,108.50 1366,108.50 1367,112.50 1368,108.50 1369,108.50 1370,108.50 1371,108.50 1372,110.50 1373,108.50 1374,110.50 1375,108.50 1376,110.50 1377,108.50 1378,108.50 1379,110.50 1380,108.50 1381,110.50 1382,108.50 1383,110.50 1384,108.50 1385,110.50 1386,108.50 1387,108.50 1388,108.50 1389,108.50 1390,110.50 1391,108.50 1392,108.50 1393,108.50 1394,108.50 1395,108.50 1396,108.50 1397,108.50 1398,108.50 1399,110.50 1401,108.50 1402,108.50 1403,108.50 1404,108.50 1405,110.50 1406,108.13 1407,107.79 1408,107.46 1409,110.00 1410,106.91 1412,104.00 1414,104.00 1415,104.50 1416,106.91 1417,110.00 1418,107.46 1419,107.79 1420,112.40 1421,108.50 1422,110.50 1423,108.50 1424,108.50 1425,108.50 1426,110.50 1427,108.50 1428,110.50 1429,108.50 1430,108.50 1431,110.50 1432,112.50 1433,110.50 1434,108.50 1436,108.50 1437,108.50 1438,108.50 1439,108.50 1440,108.50 1441,112.50 1442,110.50 1443,108.50 1444,108.50 1445,116.00 1446,108.00 1447,108.50 1448,108.50 1449,108.50 1450,108.50 1451,110.50 1452,108.50 1453,108.50 1454,108.50 1455,108.50 1456,108.50 1457,112.50 1458,112.50 1459,108.50 1460,108.50 1461,108.50 1462,108.50 1463,110.50 1464,110.50 1465,110.50 1466,108.50 1467,108.50 1468,108.50 1469,108.50 1470,108.50 1471,110.50 1472,108.50 1473,108.50 1474,108.50 1475,108.50 1476,106.50 1477,108.50 1478,112.50 1479,110.50 1480,108.50 1481,108.50 1482,108.50 1483,108.50 1484,106.50 1485,108.50 1486,110.50 1487,108.50 1488,110.50 1489,108.50 1490,108.50 1491,110.50 1492,108.50 1493,108.50 1494,112.50 1495,110.50 1496,110.50 1497,108.50 1498,110.50 1499,108.50 1500,108.50 1501,108.50 1502,110.50 1503,108.50 1504,108.50 1505,110.50 1506,108.50 1507,108.50 1508,108.50 1509,108.50 1510,108.50 1511,108.50 1512,108.50 1513,112.50 1514,108.50 1515,108.50 1516,110.50 1517,108.50 1518,108.50 1519,110.50 1520,110.50 1521,108.50 1522,108.50 1523,110.50 1524,108.50 1525,112.50 1526,108.50 1527,112.50 1528,112.50 1529,108.50 1530,108.50 1531,112.50 1532,108.50 1533,108.50 1534,108.50 1535,108.50 1536,108.50 1537,112.50 1538,108.50 1539,110.50 1540,108.50 1541,110.50 1542,110.50 1543,106.50 1544,108.50 1545,108.50 1546,112.50 1547,110.50 1548,108.50 1549,108.50 1550,110.50 1551,108.50 1552,108.50 1553,108.50 1554,108.50 1555,110.50 1556,110.50 1557,108.50 1558,108.50 1559,106.50 1560,108.50 1561,106.50 1562,110.50 1563,108.50 1564,110.50 1565,110.50 1566,110.50 1567,108.50 1568,110.50 1569,108.50 1570,108.50 1571,110.50 1572,108.50 1573,108.50 1574,108.50 1575,108.50 1576,108.50 1577,108.50 1578,110.50 1579,108.50 1580,110.50 1581,108.50 1582,108.50 1583,110.50 1584,108.50 1585,108.50 1586,110.50 1587,108.50 1588,110.50 1589,108.50 1590,110.50 1591,108.50 1592,110.50 1593,108.50 1594,110.50 1595,108.50 1596,110.50 1597,108.50 1598,108.50 1599,108.50 1600,108.50 1601,110.50 1602,108.50 1603,108.50 1604,110.50 1605,110.50 1606,110.50 1607,110.50 1608,112.50 1609,108.50 1610,110.50 1611,109.50 1612,110.50 1613,108.50 1614,108.50 1615,108.50 1616,108.50 1617,110.50 1618,108.50 1619,108.50 1620,110.50 1621,112.50 1622,110.50 1623,108.50 1624,112.50 1625,110.50 1626,110.50 1627,108.50 1628,110.50 1629,112.50 1630,110.50 1631,108.50 1632,108.50 1633,108.50 1634,110.50 1635,108.50 1636,108.50 1637,112.50 1638,108.50 1639,110.50 1640,108.50 1641,108.50 1642,110.50 1643,108.50 1644,108.50 1645,110.50 1646,110.50 1647,108.50 1648,112.50 1649,110.50 1650,108.50 1651,106.50 1652,110.50 1653,108.50 1654,110.50 1655,110.50 1656,110.50 1657,110.50 1658,110.50 1659,110.50 1660,108.50 1661,108.50 1662,108.50 1663,110.50 1664,108.50 1665,108.50 1666,110.50 1667,108.50 1668,108.50 1669,110.50 1670,110.50 1672,110.50 1673,110.50 1674,110.50 1675,108.50 1676,112.50 1677,110.50 1678,108.50 1679,108.50 1680,108.50 1681,113.50 1682,105.50 1683,108.50 1684,108.50 1685,108.50 1686,108.50 1687,106.50 1688,110.50 1689,110.50 1690,110.50 1691,108.50 1692,108.50 1693,108.50 1694,108.50 1695,112.50 1696,110.50 1697,108.50 1698,110.50 1699,110.50 1700,108.50 1701,108.50 1702,108.50 1703,108.50 1704,110.50 1705,110.50 1706,110.50 1707,110.50 1708,110.50 1709,108.50 1710,108.50 1711,110.50 1712,108.50 1713,108.50 1714,108.50 1715,108.50 1716,108.50 1717,108.50 1718,108.50 1719,108.50 1720,108.50 1721,110.50 1722,108.50 1723,108.50 1724,108.50 1725,108.50 1726,110.50 1727,110.50 1728,110.50 1729,110.50 1730,108.50 1731,108.50 1732,112.50 1733,108.50 1734,108.50 1735,108.50 1736,108.50 1737,112.50 1738,110.50 1739,108.50 1740,108.50 1741,108.50 1742,110.50 1743,112.50 1744,112.50 1745,108.50 1746,110.50 1747,108.50 1748,112.50 1749,108.50 1750,112.50 1751,108.50 1752,110.50 1753,108.50 1754,108.50 1755,110.50 1756,110.50 1757,110.50 1758,112.50 1759,110.50 1760,108.50 1761,108.50 1762,110.50 1763,110.50 1764,108.50 1765,110.50 1766,110.50 1767,110.50 1768,110.50 1769,108.50 1770,112.50 1771,110.50 1772,110.50 1773,110.50 1774,108.50 1775,108.50 1776,108.50 1777,110.50 1778,108.50 1779,110.50 1780,108.50 1781,110.50 1782,110.50 1783,110.50 1784,110.50 1785,108.50 1786,108.50 1787,160.00 1788,160.00 1789,160.00 1790,160.00 1791,160.00 1792,160.00 1793,160.00 1794,160.00" fill="none" stroke="rgb(173,170,0)" stroke-width="2" stroke-linecap="round" stroke-linejoin="round" />
  <polyline points="6,329.00 7,333.20 8,335.50 9,335.50 10,335.50 11,335.50 12,333.67 13,333.67 14,333.67 15,335.50 16,336.00 17,326.50 18,326.00 19,326.00 20,326.50 21,326.50 22,326.50 23,326.00 24,326.00 25,326.50 26,326.00 27,326.50 28,326.00 29,326.00 30,326.00 31,326.00 32,327.00 33,325.00 34,326.00 35,326.00 36,326.50 37,326.50 38,325.00 39,327.00 40,326.00 41,326.00 42,326.00 43,326.00 44,327.00 45,326.00 46,326.50 47,326.00 48,325.50 49,326.50 50,326.50 51,326.50 52,327.00 53,326.00 54,326.50 55,326.50 56,326.00 57,326.50 58,326.50 59,327.00 60,326.00 61,327.00 62,326.00 63,327.00 64,326.00 65,325.00 66,326.50 67,326.00 68,326.50 69,326.50 70,326.00 71,326.88 72,325.64 73,325.38 74,325.67 75,325.30 76,323.50 77,322.36 78,321.67 79,323.83 80,323.50 81,324.64 82,326.22 83,325.38 84,326.72 85,325.85 86,326.50 87,327.00 88,326.50 89,326.50 90,326.00 91,326.00 92,326.00 93,326.50 94,326.00 95,326.50 96,326.00 97,326.00 98,326.00 99,325.50 100,326.50 101,326.50 102,326.50 103,326.50 104,326.00 105,326.50 106,327.00 107,326.50 108,326.50 109,326.50 110,326.00 111,326.50 112,326.00 113,326.00 114,327.00 115,326.50 116,326.00 117,326.00 118,326.50 119,326.50 120,326.00 121,326.50 122,326.00 123,326.00 124,326.00 125,326.00 126,326.50 127,326.00 128,326.00 129,326.00 130,326.00 131,326.00 132,326.00 133,326.50 134,326.00 135,326.00 136,326.00 137,326.50 138,326.00 139,326.50 140,326.00 141,326.50 142,327.00 143,326.00 144,326.50 145,326.00 146,326.50 147,326.50 148,327.00 149,326.00 150,326.50 151,326.00 152,327.00 153,326.00 154,326.50 155,326.50 156,327.00 157,326.00 158,326.00 159,326.00 160,325.00 161,326.50 162,326.00 163,326.50 164,326.00 165,326.50 166,326.00 167,326.50 168,326.50 169,326.00 170,327.50 171,326.00 172,327.00 173,326.50 174,326.50 175,326.00 176,326.00 177,326.00 178,326.00 179,326.50 180,326.50 181,326.50 182,326.50 183,326.50 184,326.50 185,326.00 186,326.00 187,326.00 188,326.00 189,326.50 190,327.00 191,327.00 192,326.50 193,326.00 194,326.50 195,326.00 196,326.00 197,326.00 198,327.00 199,326.50 200,326.00 201,326.00 202,326.00 203,327.00 204,325.00 205,327.00 206,326.50 207,327.00 208,326.50 209,325.00 210,326.00 211,326.00 212,326.00 213,326.00 214,327.00 215,325.00 216,326.50 217,326.00 218,326.00 219,326.50 220,326.50 221,327.00 222,326.50 223,325.50 224,326.00 225,325.00 226,326.50 227,326.50 228,326.00 229,327.00 230,326.00 231,325.00 232,326.00 233,326.50 234,326.50 235,326.00 236,326.00 237,326.00 238,326.00 239,326.50 240,326.00 241,326.50 242,326.00 243,327.50 244,326.00 245,326.50 246,326.00 247,326.00 248,326.50 249,326.00 250,326.00 251,327.00 252,326.50 253,326.50 254,326.67 255,326.88 256,327.75 257,327.50 258,328.05 259,328.18 260,329.40 261,330.00 262,330.36 263,320.83 264,326.56 265,331.92 266,327.22 267,326.36 268,327.19 269,326.50 270,326.50 271,327.00 272,326.50 273,326.50 274,326.00 275,326.50 276,326.50 277,326.00 278,326.00 279,326.50 280,326.00 281,326.00 282,327.50 283,326.00 284,327.00 285,326.00 286,326.00 287,326.00 288,326.00 289,326.50 290,326.50 291,327.00 292,327.00 293,326.50 294,326.50 295,326.50 296,326.50 297,326.00 298,326.50 299,327.00 300,326.50 301,326.50 302,326.00 303,326.00 304,326.00 305,326.00 306,361.90 307,366.95 308,350.25 309,357.14 310,361.95 311,362.53 312,362.53 313,354.79 314,358.36 315,366.29 316,366.11 317,360.05 318,357.64 319,360.22 320,342.55 321,364.12 322,366.95 323,366.29 324,366.29 325,367.62 326,368.33 327,366.29 328,366.95 329,366.95 330,366.95 331,366.29 332,366.95 333,368.33 334,366.95 335,366.95 336,366.95 337,367.62 338,366.95 339,366.29 340,365.14 341,366.95 342,367.62 343,366.95 344,367.62 345,366.29 346,366.95 347,366.29 348,367.62 349,366.29 350,366.29 351,366.95 352,365.14 353,368.33 354,366.29 355,366.95 356,366.95 357,366.29 358,367.62 359,366.29 360,367.62 361,366.29 362,366.29 363,364.31 364,366.95 365,342.26 366,335.46 367,335.46 368,359.95 369,342.16 370,342.23 371,343.10 372,343.20 373,349.67 374,334.87 375,334.69 376,354.31 377,343.10 378,342.16 379,342.16 380,342.16 381,334.69 382,334.69 383,338.50 384,338.50 385,359.95 386,334.87 387,333.19 388,359.42 389,338.53 390,342.23 391,342.35 392,340.35 393,338.53 394,359.95 395,334.69 396,334.87 397,343.23 398,361.90 399,326.50 400,326.50 401,326.00 402,326.50 403,326.00 404,326.50 405,326.50 406,326.50 407,326.00 408,326.50 409,326.50 410,326.00 411,326.00 412,326.00 413,326.00 414,325.50 415,326.00 416,326.50 417,326.00 418,326.00 419,326.00 420,326.00 421,326.00 422,326.00 423,326.00 424,326.00 425,326.50 426,326.00 427,326.50 428,326.00 429,326.00 430,326.00 431,327.00 432,326.00 433,326.00 434,326.50 435,326.50 436,326.50 437,326.00 438,326.00 439,326.50 440,326.00 441,326.00 442,326.50 443,326.50 444,326.00 445,326.00 446,326.00 447,326.00 448,326.00 449,326.00 450,326.50 451,326.50 452,326.50 453,326.00 454,326.50 455,326.50 456,326.50 457,326.00 458,326.00 459,326.50 460,326.50 461,326.50 462,327.00 463,326.00 464,326.00 465,326.00 466,327.00 467,327.50 468,326.50 469,326.00 470,326.00 471,326.50 472,326.00 473,326.00 474,326.50 475,326.00 476,326.50 477,326.00 478,326.50 479,326.00 480,326.00 481,326.00 482,326.00 483,326.50 484,326.50 485,326.00 486,326.50 487,327.00 488,326.00 489,326.00 490,326.50 491,325.50 492,326.00 493,326.50 494,326.50 495,326.50 496,326.00 497,325.00 498,326.00 499,326.00 500,326.00 501,326.00 502,326.50 503,326.00 504,327.00 505,326.50 506,326.50 507,326.50 508,326.00 509,326.00 510,326.50 511,326.50 512,327.00 513,326.00 514,327.00 515,326.50 516,326.00 517,327.00 518,326.50 519,326.50 520,326.00 521,326.00 522,327.00 523,326.50 524,326.00 525,326.50 526,326.00 527,326.00 528,326.00 529,326.50 530,325.00 531,326.00 532,326.00 533,325.00 534,326.00 535,326.50 536,326.00 537,326.00 538,327.00 539,326.50 540,326.00 541,327.00 542,326.50 543,326.50 544,326.00 545,326.00 546,326.00 547,326.00 548,326.00 549,326.50 550,326.50 551,325.00 552,326.00 553,326.00 554,326.50 555,326.50 556,326.00 557,326.50 558,326.50 559,326.50 560,325.00 561,327.00 562,326.00 563,325.50 564,327.00 565,326.00 566,326.50 567,326.50 568,327.00 569,326.00 570,326.00 571,326.50 572,326.50 573,326.50 574,326.50 575,326.50 576,326.50 577,326.50 578,326.00 579,326.50 580,326.50 581,327.00 582,326.50 583,326.00 584,326.50 585,326.50 586,326.50 587,326.00 588,326.00 589,326.00 590,326.50 591,326.00 592,327.00 593,326.00 594,325.00 595,326.00 596,326.50 597,325.00 598,326.50 599,326.50 600,326.00 601,326.50 602,327.00 603,326.50 604,327.00 605,326.50 606,326.50 607,326.00 608,326.50 609,327.00 610,326.00 611,326.50 612,326.00 613,326.00 614,326.50 615,326.00 616,326.00 617,326.50 618,326.50 619,326.50 620,326.50 621,326.00 622,326.50 623,326.00 624,326.50 625,326.50 626,325.00 627,328.00 628,326.50 629,326.00 630,326.00 631,326.00 632,325.00 633,326.00 634,326.00 635,326.50 636,326.50 637,326.00 638,326.50 639,326.00 640,327.00 641,326.00 642,327.00 643,326.00 644,326.00 645,326.00 646,326.00 647,326.00 648,326.00 649,327.00 650,326.00 651,326.00 652,326.50 653,326.50 654,326.00 655,326.50 656,326.00 657,326.00 658,326.50 659,327.00 660,326.00 661,326.50 662,326.00 663,326.50 664,326.50 665,326.00 666,326.50 667,326.50 668,326.50 669,326.50 670,326.00 671,327.00 672,326.50 673,326.50 674,326.50 675,326.00 676,325.50 677,326.00 678,326.00 679,326.00 680,326.50 681,326.00 682,326.50 683,326.00 684,326.50 685,327.50 686,326.50 687,326.00 688,326.50 689,326.00 690,326.00 691,326.50 692,326.50 693,326.50 694,326.50 695,326.00 696,326.50 697,326.00 698,326.50 699,326.50 700,326.00 701,326.50 702,325.50 703,326.50 704,326.00 705,326.00 706,326.00 707,326.50 708,326.50 709,326.50 710,326.50 711,326.00 712,326.50 713,326.00 714,327.00 715,326.50 716,326.50 717,326.00 718,326.50 719,326.00 720,327.00 721,326.50 722,326.50 723,326.00 724,326.50 725,326.50 726,326.50 727,326.50 728,326.00 729,326.00 730,326.00 731,325.00 732,327.00 733,326.50 734,325.00 735,326.50 736,326.00 737,326.50 738,326.50 739,326.50 740,326.00 741,326.50 742,326.50 743,326.50 744,326.50 745,327.00 746,326.50 747,326.50 748,326.00 749,326.00 750,326.00 751,326.00 752,326.00 753,326.50 754,326.00 755,326.50 756,326.50 757,325.50 758,326.50 759,326.50 760,326.50 761,326.50 762,326.00 763,326.50 764,326.50 765,326.50 766,326.00 767,326.00 768,326.00 769,326.00 770,326.50 771,326.00 772,326.50 773,326.00 774,326.00 775,326.50 776,326.50 777,326.50 778,326.00 779,326.00 780,325.00 781,326.50 782,326.50 783,326.50 784,326.00 785,326.50 786,326.00 787,326.50 788,326.50 789,326.50" fill="none" stroke="rgb(0,255,0)" stroke-width="2" stroke-linecap="round" stroke-linejoin="round" />
  <polyline points="6,373.00 7,380.20 8,376.00 9,382.50 10,382.50 11,382.50 12,382.50 13,379.33 14,382.50 15,382.50 16,383.00 17,66.00 18,68.50 19,66.00 20,66.00 21,67.00 22,67.50 23,66.00 24,67.00 25,67.00 26,66.50 27,66.00 28,67.50 29,66.50 30,66.50 31,67.00 32,66.00 33,67.50 34,66.50 35,67.50 36,66.50 37,67.00 38,67.50 39,66.50 40,66.50 41,66.50 42,66.50 43,67.50 44,66.50 45,67.00 46,66.50 47,67.00 48,66.00 49,66.50 50,66.50 51,67.50 52,67.50 53,66.50 54,66.50 55,66.50 56,66.50 57,67.50 58,67.00 59,67.50 60,66.50 61,66.50 62,66.00 63,66.00 64,66.00 65,67.00 66,66.50 67,67.00 68,66.00 69,66.50 70,66.50 71,67.50 72,67.50 73,68.00 74,68.00 75,68.50 76,69.50 77,69.50 78,71.50 79,69.50 80,69.50 81,69.00 82,69.50 83,68.00 84,68.50 85,68.50 86,69.00 87,68.00 88,68.50 89,69.00 90,69.50 91,69.50 92,69.00 93,69.00 94,70.50 95,70.50 96,70.00 97,69.50 98,70.50 99,70.50 100,70.50 101,70.50 102,70.50 103,70.50 104,70.50 105,71.00 106,71.50 107,72.00 108,71.50 109,72.00 110,72.50 111,72.50 112,70.50 113,72.50 114,72.50 115,73.00 116,72.50 117,72.00 118,72.00 119,73.50 120,73.00 121,74.50 122,73.50 123,73.50 124,72.50 125,74.50 126,73.50 127,75.00 128,74.50 129,73.50 130,74.00 131,74.50 132,73.50 133,74.50 134,75.00 135,75.00 136,75.00 137,75.50 138,75.00 139,76.00 140,74.50 141,75.00 142,75.50 143,75.50 144,75.50 145,75.50 146,75.50 147,75.50 148,75.50 149,74.50 150,76.50 151,75.50 152,76.50 153,75.50 154,75.50 155,76.50 156,76.50 157,75.50 158,77.00 159,75.50 160,76.50 161,75.50 162,76.50 163,75.50 164,75.50 165,76.50 166,76.50 167,77.50 168,77.50 169,77.50 170,78.00 171,77.50 172,77.50 173,77.50 174,76.50 175,78.00 176,77.50 177,78.00 178,77.50 179,77.50 180,78.00 181,77.50 182,77.50 183,77.50 184,77.50 185,78.00 186,77.50 187,77.50 188,77.50 189,77.50 190,78.00 191,77.50 192,77.50 193,78.00 194,77.50 195,77.50 196,78.00 197,78.00 198,77.50 199,77.50 200,78.00 201,78.50 202,77.50 203,78.50 204,78.00 205,455.89 206,456.59 207,460.11 208,449.42 209,446.75 210,434.37 211,448.21 212,456.04 213,449.12 214,454.41 215,455.98 216,450.84 217,452.65 218,456.34 219,453.60 220,453.68 221,452.51 222,456.93 223,456.68 224,453.23 225,456.68 226,453.23 227,453.23 228,456.68 229,453.23 230,453.23 231,456.68 232,456.44 233,449.74 234,456.44 235,452.95 236,456.49 237,455.94 238,458.78 239,455.53 240,456.06 241,456.28 242,456.68 243,456.41 244,446.35 245,453.23 246,455.50 247,446.76 248,455.25 249,448.40 250,453.86 251,454.42 252,456.27 253,454.76 254,460.45 255,433.59 256,434.04 257,461.68 258,453.73 259,456.23 260,443.13 261,495.25 262,451.91 263,446.84 264,437.30 265,453.71 266,452.11 267,445.77 268,443.80 269,442.51 270,444.58 271,457.56 272,439.44 273,442.80 274,439.60 275,453.02 276,450.41 277,451.48 278,445.19 279,455.28 280,447.74 281,453.68 282,438.37 283,439.76 284,452.99 285,448.77 286,441.83 287,447.64 288,455.09 289,444.22 290,439.63 291,452.00 292,455.40 293,447.20 294,438.54 295,444.95 296,441.60 297,446.52 298,443.34 299,430.49 300,79.50 301,79.50 302,79.50 303,78.50 304,79.50 305,80.50 306,80.50 307,80.50 308,81.50 309,79.50 310,80.50 311,80.50 312,80.50 313,80.50 314,80.50 315,78.50 316,79.50 317,79.50 318,80.50 319,79.50 320,80.50 321,78.50 322,79.50 323,79.00 324,79.50 325,80.50 326,79.50 327,78.50 328,78.50 329,79.50 330,79.50 331,80.50 332,80.50 333,80.00 334,79.50 335,79.50 336,79.50 337,79.50 338,80.50 339,80.50 340,79.50 341,80.50 342,79.50 343,79.50 344,80.50 345,80.50 346,80.50 347,80.00 348,80.50 349,79.50 350,79.00 351,78.50 352,79.09 353,78.70 354,78.50 355,78.67 356,80.44 357,79.14 358,82.27 359,80.83 360,80.67 361,82.00 362,79.82 363,81.00 364,81.50 365,80.30 366,81.00 367,80.50 368,80.92 369,81.50 370,80.50 371,80.50 372,80.50 373,79.50 374,80.50 375,79.50 376,79.50 377,79.50 378,80.50 379,80.50 380,79.50 381,80.50 382,79.50 383,79.50 384,79.50 385,79.50 386,80.50 387,79.50 388,79.50 389,80.50 390,80.50 391,79.50 392,80.50 393,79.50 394,79.50 395,80.50 396,79.50 397,80.50 398,80.50 399,80.50 400,79.50 401,80.50 402,79.50 403,81.50 404,81.00 405,80.50 406,80.50 407,80.50 408,80.50 409,80.50 410,79.50 411,80.50 412,80.50 413,80.50 414,80.50 415,80.00 416,79.50 417,80.50 418,80.50 419,80.50 420,79.50 421,79.50 422,79.50 423,79.50 424,80.00 425,79.00 426,80.50 427,79.00 428,79.50 429,80.50 430,82.00 431,80.50 432,80.50 433,80.50 434,80.50 435,81.50 436,80.50 437,78.50 438,80.50 439,80.50 440,79.50 441,79.50 442,79.50 443,80.50 444,80.50 445,81.00 446,80.50 447,80.50 448,80.50 449,81.50 450,80.50 451,79.50 452,80.50 453,80.50 454,79.50 455,80.50 456,79.50 457,80.50 458,79.50 459,81.50 460,80.50 461,81.50 462,80.50 463,79.50 464,80.50 465,80.50 466,80.50 467,80.50 468,80.50 469,79.50 470,81.50 471,80.50 472,79.00 473,80.50 474,80.50 475,81.50 476,79.50 477,80.50 478,80.50 479,80.50 480,80.50 481,79.50 482,81.00 483,80.50 484,80.50 485,80.50 486,80.50 487,80.50 488,80.50 489,80.50 490,80.50 491,79.50 492,80.50 493,80.50 494,81.50 495,80.50 496,80.50 497,80.50 498,80.50 499,79.50 500,79.50 501,80.50 502,80.50 503,81.50 504,80.50 505,81.00 506,80.50 507,80.50 508,80.50 509,81.50 510,80.50 511,80.50 512,80.50 513,79.50 514,80.50 515,80.50 516,79.50 517,79.50 518,79.50 519,79.50 520,80.50 521,80.50 522,79.50 523,80.50 524,79.50 525,80.50 526,80.50 527,80.50 528,80.50 529,80.50 530,79.50 531,79.50 532,80.50 533,80.50 534,80.50 535,80.50 536,79.50 537,79.50 538,79.50 539,80.50 540,81.50 541,80.50 542,80.50 543,81.50 544,80.50 545,80.50 546,79.50 547,80.50 548,80.50 549,79.50 550,80.50 551,80.50 552,80.50 553,82.00 554,81.00 555,80.50 556,80.50 557,80.50 558,79.50 559,80.50 560,80.50 561,80.50 562,80.50 563,79.50 564,81.00 565,79.50 566,80.50 567,78.50 568,80.50 569,80.50 570,80.50 571,80.50 572,79.50 573,80.50 574,80.50 575,81.50 576,81.50 577,80.50 578,79.00 579,80.50 580,79.50 581,80.50 582,81.50 583,79.50 584,81.00 585,79.50 586,80.50 587,80.50 588,79.50 589,79.50 590,80.50 591,80.50 592,79.50 593,82.00 594,81.50 595,81.00 596,80.50 597,80.00 598,80.50 599,81.50 600,81.50 601,80.50 602,80.50 603,80.50 604,80.50 605,80.50 606,79.50 607,80.50 608,81.00 609,81.00 610,80.50 611,80.50 612,79.50 613,80.50 614,80.50 615,80.50 616,80.50 617,80.50 618,79.50 619,82.00 620,80.50 621,80.50 622,80.50 623,79.50 624,80.50 625,79.50 626,79.50 627,80.50 628,80.50 629,80.50 630,80.50 631,80.50 632,80.50 633,80.50 634,80.50 635,79.50 636,81.50 637,80.50 638,82.00 639,80.50 640,80.50 641,80.50 642,80.50 643,80.50 644,80.50 645,81.50 646,80.50 647,81.00 648,80.50 649,79.50 650,81.00 651,80.50 652,80.50 653,80.50 654,81.00 655,81.00 656,80.50 657,81.50 658,80.00 659,80.50 660,81.50 661,81.00 662,80.50 663,81.00 664,80.50 665,80.50 666,79.50 667,79.50 668,79.50 669,80.50 670,80.50 671,80.50 672,79.50 673,80.50 674,80.50 675,81.50 676,79.50 677,81.00 678,80.50 679,80.50 680,79.50 681,80.50 682,80.50 683,81.50 684,80.50 685,82.00 686,80.50 687,79.50 688,79.50 689,80.50 690,80.50 691,79.50 692,80.50 693,80.50 694,79.50 695,80.50 696,80.50 697,81.00 698,80.50 699,78.50 700,81.50 701,80.50 702,80.50 703,80.50 704,79.50 705,81.00 706,80.50 707,81.00 708,80.50 709,81.50 710,81.50 711,80.50 712,80.50 713,80.50 714,79.50 715,80.50 716,80.50 717,79.50 718,79.50 719,80.50 720,80.50 721,81.50 722,80.50 723,80.50 724,80.50 725,80.50 726,80.50 727,80.50 728,80.50 729,81.50 730,80.50 731,79.50 732,80.50 733,80.50 734,80.00 735,80.50 736,80.50 737,80.50 738,81.50 739,80.50 740,80.50 741,80.50 742,80.50 743,80.50 744,80.50 745,79.50 746,80.50 747,79.50 748,81.00 749,79.50 750,80.50 751,80.50 752,81.50 753,79.50 754,79.50 755,79.50 756,80.50 757,80.50 758,81.50 759,80.50 760,81.00 761,79.50 762,79.50 763,80.50 764,80.50 765,80.50 766,79.50 767,79.50 768,80.50 769,81.50 770,81.50 771,81.00 772,79.50 773,79.50 774,79.50 775,79.00 776,80.50 777,80.50 778,80.50 779,81.50 780,81.50 781,80.50 782,79.50 783,80.50 784,81.50 785,80.50 786,80.50 787,80.50 788,81.00 789,80.50" fill="none" stroke="rgb(0,0,255)" stroke-width="2" stroke-linecap="round" stroke-linejoin="round" />
  <polyline points="1002,385.00 1003,381.00 1004,381.50 1005,383.11 1006,382.67 1007,385.50 1008,387.00 1009,389.00 1010,385.86 1011,384.88 1012,389.00 1013,389.00 1014,389.00" fill="none" stroke="rgb(0,195,255)" stroke-width="2" stroke-linecap="round" stroke-linejoin="round" />
  <polyline points="1025,297.00 1026,297.00 1027,297.00 1028,297.00 1029,297.00 1030,297.00 1031,297.00 1032,297.00 1033,297.00 1034,297.00 1035,297.00 1036,298.00 1037,298.00 1038,298.00 1039,297.00 1040,297.00 1041,297.00 1042,297.00 1043,297.00 1044,297.00 1045,297.00 1046,297.00 1047,298.00 1048,298.00 1049,298.00 1050,297.00 1051,297.00 1052,297.00 1053,297.00 1054,297.00 1055,297.00 1056,297.00 1057,297.00 1058,297.00 1059,298.00 1060,298.00 1061,298.00 1062,297.00 1063,297.00 1064,297.00 1065,297.00 1066,297.00 1067,297.00 1068,297.00 1069,297.00 1070,298.00 1071,298.00 1072,298.00 1073,297.00 1074,297.00 1075,297.00 1076,297.00 1077,297.00 1078,297.00 1079,297.00 1080,297.00 1081,297.00 1082,297.00 1083,297.00 1084,297.00 1085,297.00 1086,298.00 1087,298.00 1088,298.00 1089,297.00 1090,297.00 1091,297.00 1092,297.00 1093,297.00 1094,297.00 1095,297.00 1096,297.00 1097,297.00 1098,298.00 1099,298.00 1100,298.00 1101,297.00 1102,263.50 1103,161.50 1104,48.00 1108,24.00 1109,104.00 1110,196.50 1111,240.00 1112,259.50 1113,279.00 1114,293.50 1115,298.00 1116,297.00 1117,297.00 1118,297.00 1119,297.00 1120,297.00 1121,297.00 1122,297.00 1123,297.00 1124,297.00 1125,298.00 1126,298.00 1127,298.00 1128,297.00 1129,297.00 1130,297.00 1131,297.00 1132,297.00 1133,297.00 1134,297.00 1135,297.00 1136,297.00 1137,297.00 1138,297.00 1139,297.00 1140,298.00 1141,298.00 1142,298.00 1143,297.00 1144,297.00 1145,297.00 1146,297.00 1147,297.00 1148,297.00 1149,297.00 1150,297.00 1151,297.00 1152,298.00 1153,298.00 1154,298.00 1155,297.00 1156,297.00 1157,297.00 1158,297.00 1159,297.00 1160,297.00 1161,296.00 1163,293.00 1164,291.50 1165,289.50 1166,287.50 1167,285.50 1168,284.00 1169,283.00 1170,281.50 1171,280.00 1172,279.00 1173,277.50 1174,276.00 1175,274.50 1176,273.00 1177,272.00 1178,271.00 1179,270.00 1180,268.50 1181,266.50 1182,264.00 1183,261.50 1184,259.50 1185,257.50 1186,255.50 1187,254.00 1188,253.00 1189,251.50 1190,250.00 1191,249.00 1192,248.00 1193,247.00 1194,246.00 1195,245.00 1196,244.00 1197,242.50 1198,241.00 1199,239.50 1200,237.50 1201,235.50 1202,489.28 1203,491.90 1204,491.90 1205,499.39 1206,497.33 1207,479.95 1208,491.25 1209,490.74 1210,491.25 1211,491.25 1212,496.72 1213,496.81 1214,491.00 1215,490.75 1216,494.74 1217,493.72 1218,495.62 1219,496.09 1220,496.09 1221,491.72 1222,488.99 1223,488.95 1224,488.91 1225,488.87 1226,491.64 1227,491.64 1228,492.06 1229,495.11 1230,492.42 1231,489.53 1232,491.41 1233,491.37 1234,491.99 1235,491.99 1236,493.14 1237,494.45 1238,492.76 1239,489.76 1240,494.64 1241,491.52 1242,230.99 1243,498.94 1244,499.74 1245,496.70 1246,495.78 1247,500.10 1248,501.09 1249,236.46 1250,457.06 1251,458.89 1252,459.06 1253,477.11 1254,497.08 1255,498.69 1256,493.49 1257,494.97 1258,498.16 1259,495.07 1260,492.71 1261,494.77 1262,496.05 1263,493.30 1264,494.77 1265,497.42 1266,495.90 1267,492.81 1268,493.69 1269,494.39 1270,491.06 1271,495.34 1272,493.90 1273,494.70 1274,494.26 1275,496.01 1276,494.14 1277,489.38 1278,495.35 1279,492.84 1280,493.40 1281,495.10 1282,496.95 1283,495.73 1284,492.42 1285,490.52 1286,493.73 1287,494.16 1288,490.26 1289,493.16 1290,493.53 1291,489.90 1292,491.10 1293,492.13 1294,491.26 1295,491.40 1296,491.31 1297,166.00 1298,166.00 1299,165.00 1300,165.00 1301,165.00 1302,165.00 1303,165.00 1304,164.00 1305,162.50 1306,161.00 1307,160.00 1308,160.00 1309,160.00 1310,160.00 1311,160.00 1312,159.00 1313,159.00 1314,158.00 1315,158.00 1316,157.00 1317,156.00 1318,156.00 1319,155.00 1320,155.00 1321,155.00 1322,155.00 1323,155.00 1324,154.00 1325,153.00 1326,152.00 1327,151.00 1328,151.00 1329,151.00 1330,151.00 1331,150.00 1332,149.00 1333,149.00 1334,148.00 1335,148.00 1336,147.00 1337,147.00 1338,147.00 1339,147.00 1340,146.00 1341,146.00 1342,146.00 1343,146.00 1344,145.00 1345,145.00 1346,145.00 1347,145.00 1348,144.00 1349,144.00 1350,144.00 1351,143.00 1352,143.00 1353,142.00 1354,142.00 1355,142.00 1356,141.00 1357,141.00 1358,141.00 1359,140.00 1360,140.00 1361,140.00 1362,140.00 1363,139.00 1364,139.00 1365,139.00 1366,139.00 1367,139.00 1368,140.00 1369,140.00 1370,139.00 1371,138.00 1372,137.00 1373,136.00 1374,136.00 1375,136.00 1376,136.00 1377,136.00 1378,136.00 1379,136.00 1380,136.00 1381,136.00 1382,136.00 1383,136.00 1384,136.00 1385,136.00 1386,135.00 1387,135.00 1388,134.00 1389,134.00 1390,134.00 1391,134.00 1392,134.00 1393,134.00 1394,133.00 1395,133.00 1396,133.00 1397,133.00 1398,133.00 1399,133.00 1400,83.50 1401,18.00" fill="none" stroke="rgb(0,195,255)" stroke-width="2" stroke-linecap="round" stroke-linejoin="round" />
  <polyline points="1409,13.50 1410,46.00 1411,88.00 1412,128.50 1414,131.00 1415,131.00 1416,131.00 1417,131.00 1418,131.00 1419,131.00 1420,131.00 1421,131.00 1422,132.00 1423,132.00 1424,131.00 1425,131.00 1426,130.00 1427,130.00 1428,130.00 1429,130.00 1430,131.00 1431,131.00 1432,131.00 1433,131.00 1434,131.00 1435,67.00" fill="none" stroke="rgb(0,195,255)" stroke-width="2" stroke-linecap="round" stroke-linejoin="round" />
  <polyline points="1443,28.00 1444,69.00 1445,100.00 1446,123.50 1447,131.00 1448,130.00 1449,130.00 1450,130.00 1451,130.00 1452,130.00 1453,131.00 1454,131.00 1455,131.00 1456,131.00 1457,131.00 1458,131.00 1459,131.00 1460,130.00 1461,130.00 1462,130.00 1463,130.00 1464,130.00 1465,131.00 1466,131.00 1467,131.00 1468,131.00 1469,131.00 1470,131.00 1471,131.00 1472,130.00 1473,130.00 1474,130.00 1475,130.00 1476,130.00 1477,130.00 1478,130.00 1479,130.00 1480,131.00 1481,131.00 1482,131.00 1483,130.00 1484,130.00 1485,130.00 1486,130.00 1487,130.00 1488,131.00 1489,131.00 1490,131.00 1491,131.00 1492,131.00 1493,131.00 1494,131.00 1495,130.00 1496,130.00 1497,130.00 1498,130.00 1499,130.00 1500,130.00 1501,130.00 1502,130.00 1503,131.00 1504,131.00 1505,131.00 1506,130.00 1507,130.00 1508,130.00 1509,130.00 1510,130.00 1511,131.00 1512,131.00 1513,131.00 1514,131.00 1515,131.00 1516,131.00 1517,131.00 1518,130.00 1519,130.00 1520,130.00 1521,130.00 1522,130.00 1523,131.00 1524,131.00 1525,131.00 1526,130.00 1527,130.00 1528,130.00 1529,130.00 1530,130.00 1531,130.00 1532,130.00 1533,130.00 1534,131.00 1535,131.00 1536,130.00 1537,130.00 1538,129.00 1539,129.00 1540,129.00 1541,130.00 1542,130.00 1543,131.00 1544,131.00 1545,131.00 1546,131.00 1547,131.00 1548,130.00 1549,130.00 1550,129.00 1551,129.00 1552,129.00 1553,129.00 1554,130.00 1555,130.00 1556,130.00 1557,131.00 1558,131.00 1559,130.00 1560,130.00 1561,129.00 1562,129.00 1563,129.00 1564,130.00 1565,130.00 1566,131.00 1567,131.00 1568,131.00 1569,131.00 1570,131.00 1571,131.00 1572,130.00 1573,130.00 1574,130.00 1575,130.00 1576,130.00 1577,131.00 1578,131.00 1579,131.00 1580,131.00 1581,131.00 1582,131.00 1583,130.00 1584,130.00 1585,129.00 1586,129.00 1587,130.00 1588,130.00 1589,131.00 1590,131.00 1591,131.00 1592,131.00 1593,131.00 1594,130.00 1595,130.00 1596,129.00 1597,129.00 1598,129.00 1599,130.00 1600,130.00 1601,131.00 1602,131.00 1603,130.00 1604,130.00 1605,130.00 1606,130.00 1607,130.00 1608,130.00 1609,130.00 1610,130.00 1611,130.00 1612,131.00 1613,131.00 1614,131.00 1615,131.00 1616,131.00 1617,131.00 1618,130.00 1619,130.00 1620,130.00 1621,130.00 1622,130.00 1623,130.00 1624,130.00 1625,130.00 1626,130.00 1627,130.00 1628,130.00 1629,130.00 1630,130.00 1631,131.00 1632,131.00 1633,131.00 1634,131.00 1635,131.00 1636,131.00 1637,130.00 1638,130.00 1639,129.00 1640,129.00 1641,130.00 1642,130.00 1643,131.00 1644,131.00 1645,130.00 1646,130.00 1647,130.00 1648,130.00 1649,130.00 1650,130.00 1651,130.00 1652,130.00 1653,130.00 1654,130.00 1655,130.00 1656,130.00 1657,130.00 1658,131.00 1659,131.00 1660,131.00 1661,130.00 1662,130.00 1663,130.00 1664,130.00 1665,130.00 1666,131.00 1667,131.00 1668,131.00 1669,131.00 1670,131.00 1671,67.00" fill="none" stroke="rgb(0,195,255)" stroke-width="2" stroke-linecap="round" stroke-linejoin="round" />
  <polyline points="1679,16.50 1680,50.50 1681,90.50 1682,121.00 1683,131.00 1684,131.00 1685,131.00 1686,131.00 1687,131.00 1688,130.00 1689,130.00 1690,130.00 1691,130.00 1692,130.00 1693,131.00 1694,131.00 1695,131.00 1696,131.00 1697,131.00 1698,131.00 1699,131.00 1700,130.00 1701,130.00 1702,130.00 1703,130.00 1704,131.00 1705,131.00 1706,131.00 1707,130.00 1708,130.00 1709,130.00 1710,130.00 1711,130.00 1712,131.00 1713,131.00 1714,131.00 1715,131.00 1716,131.00 1717,131.00 1718,131.00 1719,130.00 1720,130.00 1721,130.00 1722,130.00 1723,130.00 1724,131.00 1725,131.00 1726,131.00 1727,131.00 1728,131.00 1729,131.00 1730,130.00 1731,130.00 1732,129.00 1733,129.00 1734,130.00 1735,130.00 1736,131.00 1737,131.00 1738,131.00 1739,131.00 1740,131.00 1741,131.00 1742,130.00 1743,130.00 1744,130.00 1745,130.00 1746,130.00 1747,131.00 1748,131.00 1749,131.00 1750,131.00 1751,131.00 1752,131.00 1753,131.00 1754,130.00 1755,130.00 1756,130.00 1757,130.00 1758,130.00 1759,130.00 1760,130.00 1761,130.00 1762,131.00 1763,131.00 1764,131.00 1765,130.00 1766,130.00 1767,130.00 1768,130.00 1769,130.00 1770,131.00 1771,131.00 1772,131.00 1773,131.00 1774,131.00 1775,131.00 1776,131.00 1777,130.00 1778,130.00 1779,130.00 1780,130.00 1781,130.00 1782,131.00 1783,131.00 1784,131.00 1785,131.00 1786,131.00" fill="none" stroke="rgb(0,195,255)" stroke-width="2" stroke-linecap="round" stroke-linejoin="round" />
</svg>
