<?xml version="1.0" encoding="UTF-8" standalone="no"?>
<svg xmlns="http://www.w3.org/2000/svg" width="727" height="426" viewBox="0 0 727 426">
  <rect width="727" height="426" fill="#1a1c18" />
  <line x1="0" y1="0" x2="0" y2="426" stroke="#3a3c36" stroke-dasharray="2,2" stroke-width="1" />
  <line x1="50" y1="0" x2="50" y2="426" stroke="#3a3c36" stroke-dasharray="2,2" stroke-width="1" />
  <line x1="100" y1="0" x2="100" y2="426" stroke="#3a3c36" stroke-dasharray="2,2" stroke-width="1" />
  <line x1="150" y1="0" x2="150" y2="426" stroke="#3a3c36" stroke-dasharray="2,2" stroke-width="1" />
  <line x1="200" y1="0" x2="200" y2="426" stroke="#3a3c36" stroke-dasharray="2,2" stroke-width="1" />
  <line x1="250" y1="0" x2="250" y2="426" stroke="#3a3c36" stroke-dasharray="2,2" stroke-width="1" />
  <line x1="300" y1="0" x2="300" y2="426" stroke="#3a3c36" stroke-dasharray="2,2" stroke-width="1" />
  <line x1="350" y1="0" x2="350" y2="426" stroke="#3a3c36" stroke-dasharray="2,2" stroke-width="1" />
  <line x1="400" y1="0" x2="400" y2="426" stroke="#3a3c36" stroke-dasharray="2,2" stroke-width="1" />
  <line x1="450" y1="0" x2="450" y2="426" stroke="#3a3c36" stroke-dasharray="2,2" stroke-width="1" />
  <line x1="500" y1="0" x2="500" y2="426" stroke="#3a3c36" stroke-dasharray="2,2" stroke-width="1" />
  <line x1="550" y1="0" x2="550" y2="426" stroke="#3a3c36" stroke-dasharray="2,2" stroke-width="1" />
  <line x1="600" y1="0" x2="600" y2="426" stroke="#3a3c36" stroke-dasharray="2,2" stroke-width="1" />
  <line x1="650" y1="0" x2="650" y2="426" stroke="#3a3c36" stroke-dasharray="2,2" stroke-width="1" />
  <line x1="700" y1="0" x2="700" y2="426" stroke="#3a3c36" stroke-dasharray="2,2" stroke-width="1" />
  <line x1="0" y1="0" x2="727" y2="0" stroke="#3a3c36" stroke-dasharray="2,2" stroke-width="1" />
  <line x1="0" y1="50" x2="727" y2="50" stroke="#3a3c36" stroke-dasharray="2,2" stroke-width="1" />
  <line x1="0" y1="100" x2="727" y2="100" stroke="#3a3c36" stroke-dasharray="2,2" stroke-width="1" />
  <line x1="0" y1="150" x2="727" y2="150" stroke="#3a3c36" stroke-dasharray="2,2" stroke-width="1" />
  <line x1="0" y1="200" x2="727" y2="200" stroke="#3a3c36" stroke-dasharray="2,2" stroke-width="1" />
  <line x1="0" y1="250" x2="727" y2="250" stroke="#3a3c36" stroke-dasharray="2,2" stroke-width="1" />
  <line x1="0" y1="300" x2="727" y2="300" stroke="#3a3c36" stroke-dasharray="2,2" stroke-width="1" />
  <line x1="0" y1="350" x2="727" y2="350" stroke="#3a3c36" stroke-dasharray="2,2" stroke-width="1" />
  <line x1="0" y1="400" x2="727" y2="400" stroke="#3a3c36" stroke-dasharray="2,2" stroke-width="1" />
  <polyline points="1,197.50 2,200.00 3,200.00 4,199.89 5,200.50 6,200.00 7,200.50 8,200.00 9,200.00 10,191.50 11,185.62 12,177.00 13,177.00 14,176.50 15,176.00 16,176.50 17,177.00 18,177.00 19,177.00 20,176.50 21,177.00 24,177.00 25,177.00 26,177.00 27,177.00 28,176.50 29,176.50 30,176.50 31,177.00 32,177.50 33,177.00 34,177.00 35,177.00 36,177.00 37,179.00 41,288.55 42,329.89 43,341.11 44,335.86 45,343.70 46,335.86 47,343.90 48,335.86 49,343.70 50,335.86 51,343.70 52,335.86 53,335.86 54,343.90 55,335.86 56,335.86 57,343.70 58,335.86 59,352.42 60,352.42 61,343.70 62,335.86 63,335.86 64,343.80 65,335.86 66,343.80 67,335.86 68,343.80 69,335.86 70,335.86 71,335.86 72,335.86 73,348.76 74,346.88 75,298.57 76,177.33 77,177.33 78,177.33 79,176.50 80,176.00 81,177.00 82,177.00 83,177.00 84,177.00 85,177.00 86,177.00 87,177.00 88,177.00 89,177.33 90,177.33 91,177.33 92,176.33 93,177.00 94,177.00 95,177.00 96,176.50 97,260.60 98,307.75 99,316.11 100,385.50 101,385.50 102,387.00 105,177.00 106,177.00 107,176.67 108,315.22 109,309.36 110,316.00 111,339.56 112,339.56 113,333.38 114,302.10 115,316.33 116,316.17 117,328.55 118,362.56 119,385.00 120,384.50 121,385.00 122,385.00 123,316.00 124,296.86 125,296.86 126,302.40 127,177.00 128,177.00 129,177.00 130,177.00 131,177.00 132,177.00 133,179.00 134,179.00 135,179.40 136,188.50 137,198.50 138,186.50 139,198.00 140,199.00 141,200.50 142,200.50 143,200.67 144,200.50 145,199.00 146,200.50 147,200.50 148,199.00 149,199.00 150,200.50 151,200.67 152,200.67 153,200.67 154,200.67 155,200.50 156,200.50 157,200.50 158,199.00 159,200.67 160,200.67 161,200.67 162,200.67 163,200.67 164,200.67 165,200.50 166,200.67 167,200.67 168,200.67 169,200.67 170,200.67 171,200.67 172,200.67 173,200.67 174,200.50 175,200.50 176,200.50 177,200.67 178,200.67 179,200.67 180,200.67 181,200.67 182,200.67 183,200.50 184,199.00 185,199.00 186,199.00 187,199.00 188,199.00 189,199.00 190,199.00 191,199.00 192,199.00 193,200.50 194,200.50 195,200.50 196,200.50 197,200.50 198,199.00 199,200.50 200,200.50 201,200.50 202,200.50 203,199.00 204,199.00 205,200.50 206,200.50 207,200.50 208,200.50 209,200.50 210,200.50 211,200.50 212,200.50 213,199.00 214,199.00 215,199.00 216,199.00 217,200.50 218,200.50 219,200.50 220,200.50 221,200.50 222,200.50 223,199.00 224,199.00 225,199.00 226,199.00 227,199.00 228,199.00 229,199.00 230,199.00 231,199.00 232,199.00 233,199.00 234,200.50 235,202.00 236,200.50 237,202.00 239,199.00 240,200.50 241,202.00 242,199.00 243,199.00 244,199.00 245,199.00 247,199.00 248,202.00 249,200.50 250,202.00 251,202.00 256,202.00 263,202.00 264,202.00 265,202.00 266,202.00 267,202.00 268,202.00 269,202.00 273,202.00 274,202.00 275,202.00 276,202.00 277,202.00 278,202.00 279,202.00 283,202.00 284,202.00 285,202.00 286,202.00 296,202.00 297,202.00 298,202.00 300,202.00 301,202.00 302,202.00 303,202.00 304,202.00 305,202.00 310,202.00 311,202.00 312,202.00 313,202.00 314,202.00 315,202.00 319,202.00 320,202.00 321,202.00 322,202.00 323,202.00 324,202.00 325,202.00 326,202.00 328,202.00 329,202.00 330,202.00 331,202.00 332,202.00 333,202.00 334,202.00 341,202.00 342,202.00 343,202.00 344,202.00 345,202.00 347,202.00 348,202.00 349,202.00 350,202.00 351,202.00 352,202.00 353,202.00 354,202.00 356,202.00 357,202.00 358,202.00 359,202.00 360,202.00 361,202.00 362,202.00 363,202.00 366,202.00 367,202.00 368,202.00 369,202.00 370,202.00 371,202.00 372,202.00 379,202.00 380,202.00 381,202.00 385,195.71 386,176.00 387,176.00 388,178.00 389,178.00 390,178.00 391,178.00 392,178.00 393,178.00 394,178.00 395,180.00 396,178.00 397,178.50 398,180.00 399,178.00 400,178.00 401,178.00 402,178.00 403,178.00 404,178.00 405,178.50 406,178.00 407,178.00 408,180.00 409,180.00 410,180.00 411,180.00 412,180.00 413,178.00 414,178.00 415,178.00 416,178.00 417,178.00 418,180.00 419,180.00 420,180.00 421,180.00 422,178.00 423,178.50 424,178.50 425,178.00 426,178.00 427,178.00 428,178.00 429,178.00 430,178.00 431,180.00 432,180.00 433,180.00 434,180.00 435,180.00 436,180.00 437,178.50 438,180.00 439,178.00 440,178.00 441,178.00 446,180.00 447,178.00 448,178.00 449,180.00 450,180.00 451,180.00 452,177.67 453,178.00 454,178.00 455,178.00 456,178.00 457,178.00 462,178.00 463,178.00 464,180.00 465,178.00 466,178.00 467,180.00 468,180.00 469,180.00 470,180.00 474,180.00 475,178.50 476,178.00 477,178.00 478,178.00 479,178.00 480,178.00 481,178.00 482,178.00 483,180.00 484,180.00 485,178.00 486,178.00 487,178.00 488,178.00 489,178.00 490,178.00 491,178.00 492,178.00 493,180.00 494,180.00 495,178.00 496,178.00 497,178.00 498,178.00 499,178.50 500,178.00 501,177.50 502,180.00 503,180.00 504,180.00 505,180.00 506,180.00 507,180.00 508,180.00 509,180.00 510,180.00 511,180.00 512,176.00 513,180.00 514,180.00 515,180.00 516,180.00 517,179.00 518,178.50 519,180.00 523,180.00 524,180.00 525,178.67 526,178.33 527,177.50 528,178.33 529,178.33 530,178.33 531,177.50 532,178.33 533,179.50 534,177.50 535,180.00 539,180.00 540,180.00 541,180.00 542,180.00 543,179.50 544,178.33 545,178.33 546,177.50 547,178.33 548,178.33 549,178.33 550,178.33 551,178.33 552,178.67 553,177.33 554,178.33 555,177.50 556,177.50 557,178.00 558,177.50 559,178.33 560,178.00 561,177.00 562,179.00 563,177.50 564,178.00 565,178.00 566,177.50 567,177.50 568,177.00 569,177.67 570,177.50 571,177.50 572,177.50 573,177.50 574,177.50 575,177.50 576,177.00 577,177.50 578,178.00 579,178.00 580,177.50 581,177.50 582,177.50 583,177.33 584,177.50 585,177.50 586,177.00 587,177.67 588,177.50 589,177.50 590,177.50 591,177.50 592,177.50 593,177.50 594,177.50 595,177.50 596,177.50 597,175.00 600,179.00 601,177.50 602,177.50 603,177.67 604,177.67 605,177.50 606,178.00 607,177.50 608,177.50 609,177.50 610,177.00 611,177.50 612,177.50 613,177.50 614,175.00 616,179.00 617,177.50 618,177.50 619,177.50 620,178.00 621,178.50 622,177.50 623,177.00 624,177.50 625,177.50 626,177.00 627,177.00 628,191.23 629,188.75 630,187.69 631,199.50 632,200.00 633,200.00 634,200.00 635,200.00 636,200.00 637,199.50 638,199.50 639,200.00 640,200.50 641,200.00 642,200.50 643,200.00 644,200.00 645,200.00 646,200.00 647,199.50 648,200.00 649,200.00 650,200.00 651,200.50 652,200.00 653,200.00 654,200.50 655,200.50 656,200.00 657,200.00 658,200.00 659,199.50 660,200.50 661,200.50 662,201.00 663,201.00 664,199.50 665,200.50 666,199.50 667,201.00 668,200.50 669,201.00 671,201.00 672,201.00 673,200.00 674,201.00 675,200.00 676,201.00 677,200.50 678,201.00 679,200.00 683,200.00 684,201.00 685,201.00 686,201.00 687,200.00 690,201.00 695,200.00 696,200.00 697,200.00 699,200.00 703,200.50 704,200.00" fill="none" stroke="#ffff5e" stroke-width="2.5" stroke-linecap="round" stroke-linejoin="round" />
  <polyline points="0,127.72 1,128.30 2,132.25 3,135.70 4,139.14 5,143.37 6,148.66 7,153.04 8,156.16 9,160.70 10,161.86 11,168.62 12,176.20 13,181.11 14,183.62 15,187.23 16,193.47 17,196.94 18,197.88 19,202.15 20,206.43 21,210.33 22,207.93 23,207.56 24,206.83 25,205.69 26,205.27 27,205.32 28,207.71 29,206.64 30,200.13 31,197.80 32,194.19 33,193.75 34,183.48 35,181.56 36,182.81 37,190.32 38,194.38 39,196.56 40,201.77 41,199.28 42,200.75 43,205.38 44,220.25 45,223.19 46,228.97 47,223.52 48,221.58 49,221.31 50,210.45 51,235.28 52,228.15 53,236.33 54,237.29 55,233.29 56,233.14 57,244.79 58,238.67 59,225.91 60,225.02 61,246.47 62,242.05 63,243.49 64,251.12 65,264.97 66,246.15 67,246.16 68,246.76 69,221.51 70,214.97 71,230.75 72,235.80 73,247.34 74,250.54 75,259.63 76,266.00 77,268.75 78,262.39 79,261.36 80,258.63 81,264.87 82,283.91 83,303.86 84,314.59 85,303.11 86,298.06 87,296.38 88,299.46 89,286.92 90,289.83 91,307.10 92,305.97 93,279.44 94,290.05 95,306.48 96,292.09 97,287.36 98,270.39 99,260.81 100,268.61 101,272.84 102,255.92 103,261.41 104,276.45 105,280.96 106,280.78 107,277.15 108,284.27 109,278.63 110,265.30 111,259.02 112,264.57 113,256.99 114,265.61 115,244.61 116,230.63 117,236.95 118,241.20 119,236.65 120,221.94 121,209.34 122,207.34 123,202.79 124,206.53 125,204.14 126,196.26 127,197.20 128,200.52 129,203.46 130,188.56 131,189.04 132,181.88 133,188.02 134,186.60 135,183.34 136,186.51 137,187.64 138,189.40 139,195.52 140,180.76 141,182.83 142,199.14 143,213.19 144,208.21 145,238.12 146,239.50 147,236.94 148,228.79 149,242.22 150,250.64 151,238.47 152,245.72 153,265.87 154,257.77 155,275.33 156,277.43 157,280.14 158,294.58 159,308.22 160,299.51 161,291.21 162,297.22 163,296.52 164,308.96 165,305.20 166,326.46 167,319.43 168,333.21 169,322.34 170,317.84 171,289.76 172,284.35 173,266.40 174,285.93 175,300.70 176,307.61 177,319.80 178,332.67 179,326.27 180,327.76 181,312.63 182,287.68 183,293.06 184,304.02 185,298.66 186,302.56 187,298.49 188,306.14 189,307.58 190,312.48 191,307.43 192,296.00 193,295.48 194,306.24 195,313.07 196,308.16 197,318.34 198,314.73 199,305.26 200,312.30 201,315.14 202,309.14 203,290.24 204,306.11 205,314.14 206,279.54 207,243.20 208,236.08 209,263.47 210,264.54 211,239.93 212,224.00 213,230.70 214,245.49 215,250.42 216,256.42 217,266.62 218,271.36 219,280.57 220,278.51 221,270.37 222,262.82 223,279.50 224,275.67 225,266.07 226,279.28 227,271.59 228,268.71 229,254.46 230,248.19 231,266.73 232,282.13 233,267.00 234,235.99 235,238.62 236,249.48 237,257.36 238,223.63 239,228.71 240,214.16 241,219.11 242,270.09 243,263.84 244,209.78 245,195.12 246,210.67 247,231.53 248,237.89 249,238.19 250,233.87 251,215.61 252,204.08 253,210.52 254,220.86 255,212.21 256,229.75 257,244.27 258,234.52 259,245.78 260,277.23 261,260.97 262,248.29 263,262.40 264,256.55 265,261.78 266,259.74 267,259.41 268,250.47 269,251.61 270,260.03 271,247.47 272,259.32 273,224.79 274,259.12 275,233.29 276,245.13 277,206.79 278,196.00 279,229.49 280,253.02 281,255.63 282,268.89 283,294.22 284,268.85 285,255.34 286,187.94 287,124.34 288,123.11 289,122.88 290,130.78 291,143.45 292,184.74 293,249.86 294,247.98 295,234.04 296,234.54 297,278.94 298,279.64 299,233.00 300,201.15 301,204.67 302,202.56 303,184.33 304,192.77 305,191.63 306,180.96 307,161.40 308,186.06 309,199.14 310,216.23 311,204.38 312,201.06 313,213.39 314,300.37 315,301.39 316,267.94 317,191.13 318,219.29 319,222.97 320,198.17 321,191.81 322,199.24 323,194.17 324,217.00 325,178.03 326,161.85 327,217.14 328,241.85 329,252.13 330,195.89 331,221.59 332,232.23 333,208.73 334,180.09 335,194.08 336,215.44 337,245.00 338,233.23 339,182.92 340,175.33 341,164.82 342,147.49 343,188.45 344,221.28 345,220.77 346,174.25 347,173.32 348,185.45 349,182.12 350,212.55 351,212.76 352,217.43 353,194.14 354,211.65 355,201.11 356,217.97 357,219.13 358,174.61 359,161.03 360,154.44 361,158.85 362,158.80 363,171.63 364,171.39 365,159.15 366,145.84 367,152.86 368,187.75 369,215.11 370,230.65 371,232.45 372,185.32 373,170.65 374,218.75 375,178.14 376,178.04 377,161.76 378,171.46 379,163.06 380,231.73 381,199.83 382,180.22 383,156.76 384,151.17 385,137.11 386,141.60 387,184.25 388,152.53 389,196.03 390,206.19 391,164.29 392,154.91 393,169.65 394,163.70 395,165.04 396,170.87 397,192.07 398,154.78 399,181.19 400,196.36 401,178.69 402,178.04 403,140.33 404,142.75 405,147.24 406,179.67 407,181.26 408,179.13 409,157.21 410,151.19 411,205.47 412,220.34 413,168.87 414,213.55 415,219.12 416,242.51 417,248.43 418,227.91 419,209.24 420,219.41 421,190.67 422,181.97 423,182.79 424,199.66 425,207.12 426,228.06 427,200.78 428,220.27 429,206.67 430,204.83 431,225.57 432,232.56 433,228.59 434,207.44 435,198.83 436,203.22 437,200.87 438,199.86 439,200.12 440,217.11 441,207.91 442,196.04 443,198.39 444,207.78 445,193.23 446,185.72 447,190.17 448,195.26 449,187.42 450,221.19 451,241.56 452,219.25 453,205.70 454,203.93 455,222.81 456,213.62 457,203.81 458,208.69 459,216.72 460,228.39 461,225.34 462,219.80 463,260.35 464,269.44 465,265.76 466,276.65 467,250.39 468,239.02 469,229.85 470,207.55 471,201.19 472,183.90 473,178.97 474,159.83 475,142.05 476,139.51 477,130.41 478,111.27 479,123.64 480,134.62 481,185.84 482,190.06 483,188.55 484,205.43 485,225.29 486,213.49 487,220.61 488,219.09 489,261.14 490,253.00 491,256.49 492,258.59 493,252.55 494,267.05 495,262.74 496,263.58 497,286.70 498,292.05 499,287.03 500,284.95 501,274.16 502,262.61 503,259.74 504,285.25 505,300.98 506,275.11 507,300.88 508,281.00 509,275.39 510,285.42 511,249.70 512,251.73 513,256.02 514,247.67 515,260.52 516,261.61 517,252.83 518,256.54 519,259.51 520,247.90 521,247.82 522,246.24 523,244.90 524,241.01 525,321.11 526,327.81 527,286.67 528,237.94 529,263.87 530,251.22 531,243.81 532,222.13 533,219.95 534,256.53 535,266.40 536,254.02 537,234.44 538,235.15 539,226.10 540,215.23 541,224.60 542,224.05 543,244.90 544,254.53 545,218.54 546,240.10 547,240.70 548,243.63 549,231.82 550,253.68 551,280.24 552,282.91 553,262.30 554,261.41 555,283.17 556,314.88 557,343.77 558,320.16 559,332.45 560,347.35 561,340.82 562,335.81 563,327.04 564,338.23 565,362.84 566,341.62 567,348.47 568,346.75 569,351.70 570,350.22 571,346.46 572,358.54 573,344.65 574,347.51 575,349.06 576,355.33 577,351.84 578,361.80 579,365.18 580,360.11 581,346.84 582,354.54 583,352.51 584,361.92 585,354.19 586,355.26 587,353.81 588,357.92 589,362.54 590,341.81 591,344.34 592,316.13 593,323.85 594,318.42 595,325.57 596,314.28 597,327.53 598,313.44 599,311.51 600,320.70 601,322.44 602,336.12 603,355.76 604,350.28 605,353.50 606,365.16 607,362.64 608,346.82 609,343.25 610,341.92 611,338.61 612,344.06 613,343.13 614,329.46 615,332.55 616,331.85 617,330.89 618,334.33 619,364.63 620,373.68 621,369.27 622,366.10 623,353.47 624,361.94 625,363.17 626,359.88 627,368.46 628,359.43 629,356.87 630,369.27 631,364.96 632,363.02 633,361.95 634,362.43 635,367.25 636,357.13 637,356.12 638,356.69 639,364.29 640,354.74 641,357.11 642,362.51 643,358.97 644,364.64 645,349.28 646,363.37 647,361.26 648,367.05 649,348.31 650,345.80 651,349.02 652,355.05 653,356.60 654,354.51 655,367.39 656,373.83 657,355.32 658,354.79 659,355.93 660,349.45 661,348.89 662,358.00 663,365.74 664,358.00 665,360.46 666,353.90 667,348.60 668,357.91 669,357.00 670,364.67 671,355.09 672,363.15 673,362.13 674,354.44 675,359.75 676,356.56 677,348.49 678,354.95 679,360.86 680,351.33 681,367.75 682,362.60 683,361.16 684,363.67 685,361.24 686,348.62 687,346.10 688,357.18 689,360.07 690,360.00 691,365.46 692,365.46 693,364.15 694,356.20 695,352.02 696,352.75 697,364.00 698,358.48 699,359.00 700,354.53 701,351.86 702,351.37 703,348.02 704,339.20 705,337.85 706,334.53 707,334.26 708,329.60 709,332.74 710,332.91 711,338.10 712,334.89 713,331.72 714,333.17 715,324.55 716,319.70 717,288.21 718,245.75 719,227.00 720,207.82 721,212.00 722,223.43 723,224.33 724,225.92 725,266.62 726,418.00" fill="none" stroke="#61b9ca" stroke-width="2.5" stroke-linecap="round" stroke-linejoin="round" />
</svg>
